{
.appVersion = "3414";
.formatVersion = 3;
DisplayStrings = (
"˘̆/brevecomb-cy ̈̇̀/gravecomb_macroncomb ́/acutecomb_macroncomb ̋/caroncomb.alt ̂̌̆̊̃̄/macroncomb_gravecomb/macroncomb_acutecomb ̛̘̙̜̝̞̟̠̣̅̉̍̎̏̐̑̒̚.̤̥̦/commaaccentcomb.loclMAH ̴̵̧̨̩̪̬̮̰̱̲̹̺̻̼͇͈͉͍͎̽͆͊͋͌᷉᷇͜͟͢͡/brevecomb_acutecomb/brevecomb_gravecomb/brevecomb_hookabovecomb/brevecomb_tildecomb/circumflexcomb_acutecomb/circumflexcomb_gravecomb/circumflexcomb_hookabovecomb/circumflexcomb_tildecomb ᷈᷅᷄᷆/dieresiscomb.sc/dotaccentcomb.sc ̀/gravecomb.sc/gravecomb_macroncomb/gravecomb_macroncomb.sc/acutecomb.sc/acutecomb_macroncomb.sc/hungarumlautcomb.sc/circumflexcomb.sc/circumflexcomb_gravecomb.sc/circumflexcomb_acutecomb.sc/circumflexcomb_tildecomb.sc/circumflexcomb_hookabovecomb.sc/caroncomb.sc/brevecomb.sc/brevecomb_gravecomb.sc/brevecomb_acutecomb.sc/brevecomb_tildecomb.sc/brevecomb_hookabovecomb.sc/ringcomb.sc/tildecomb.sc/macroncomb.sc/macroncomb_gravecomb.sc/macroncomb_acutecomb.sc/hookabovecomb.sc/horncomb.sc",
"/circumflexcomb_tildecomb"
);
axes = (
{
name = Weight;
tag = wght;
}
);
classes = (
{
automatic = 1;

glyphs = (
{
color = 4;
glyphname = A;
lastChange = "2025-08-10 18:31:08 +0000";
layers = (
{
anchors = (
{
name = bottom;
pos = (300,0);
},
{
name = ogonek;
pos = (481,0);
},
{
name = top;
pos = (300,620);
}
);
layerId = m01;
shapes = (
{
closed = 1;
nodes = (
(110,330,l),
(488,330,l),
(488,390,l),
(110,390,l)
);
},
{
closed = 1;
nodes = (
(458,0,l),
(518,0,l),
(517,500,l),
(518,568,o),
(466,620,o),
(398,620,cs),
(201,620,ls),
(133,620,o),
(81,568,o),
(82,500,c),
(83,0,l),
(143,0,l),
(142,500,l),
(141,534,o),
(167,560,o),
(201,560,cs),
(398,560,ls),
(432,560,o),
(458,534,o),
(457,500,c)
);
}
);
width = 600;
},
{
anchors = (
{
name = bottom;
pos = (300,0);
},
{
name = ogonek;
pos = (467,0);
},
{
name = top;
pos = (300,620);
}
);
layerId = "BDCBA76E-5474-4BD3-A1CC-9641C626CFE7";
shapes = (
{
closed = 1;
nodes = (
(127,290,l),
(479,290,l),
(479,380,l),
(127,380,l)
);
},
{
closed = 1;
nodes = (
(429,0,l),
(519,0,l),
(518,500,ls),
(519,568,o),
(467,620,o),
(399,620,cs),
(201,620,ls),
(133,620,o),
(81,568,o),
(82,500,cs),
(83,0,l),
(173,0,l),
(172,500,ls),
(172,517,o),
(185,530,o),
(202,530,cs),
(398,530,ls),
(415,530,o),
(428,517,o),
(428,500,cs)
);
}
);
width = 600;
},
{
anchors = (
{
name = bottom;
pos = (300,0);
},
{
name = ogonek;
pos = (504,0);
},
{
name = top;
pos = (300,620);
}
);
layerId = "D8CC3DFA-F3EA-4C7D-84FB-05FCEA5C6558";
shapes = (
{
closed = 1;
nodes = (
(98,350,l),
(505,350,l),
(505,380,l),
(98,380,l)
);
},
{
closed = 1;
nodes = (
(489,0,l),
(519,0,l),
(518,500,ls),
(519,568,o),
(467,620,o),
(399,620,cs),
(201,620,ls),
(133,620,o),
(81,568,o),
(82,500,cs),
(83,0,l),
(113,0,l),
(112,500,ls),
(111,551,o),
(150,590,o),
(201,590,cs),
(399,590,ls),
(450,590,o),
(488,551,o),
(488,500,cs)
);
}
);
width = 600;
}
);
unicode = 65;
},
{
glyphname = "Alpha-latin";
lastChange = "2025-07-27 17:53:39 +0000";
layers = (
{
anchors = (
{
name = bottom;
pos = (268,0);
},
{
name = top;
pos = (268,620);
}
);
layerId = m01;
shapes = (
{
closed = 1;
nodes = (
(139,620,ls),
(71,620,o),
(19,568,o),
(20,500,cs),
(20,120,ls),
(19,52,o),
(71,0,o),
(139,0,cs),
(287,0,ls),
(323,0,o),
(355,15,o),
(376,38,c),
(398,14,o),
(429,0,o),
(465,0,cs),
(517,0,l),
(517,60,l),
(465,60,ls),
(432,60,o),
(406,83,o),
(406,116,cs),
(406,504,ls),
(406,537,o),
(432,560,o),
(465,560,cs),
(517,560,l),
(517,620,l),
(465,620,ls),
(429,620,o),
(397,605,o),
(376,582,c),
(354,606,o),
(323,620,o),
(287,620,cs)
);
},
{
closed = 1;
nodes = (
(320,560,o),
(346,537,o),
(346,504,cs),
(346,116,ls),
(346,83,o),
(320,60,o),
(287,60,cs),
(139,60,ls),
(105,60,o),
(79,86,o),
(80,120,cs),
(80,500,ls),
(79,534,o),
(105,560,o),
(139,560,cs),
(287,560,l)
);
}
);
width = 536;
},
{
anchors = (
{
name = bottom;
pos = (268,0);
},
{
name = top;
pos = (268,620);
}
);
layerId = "BDCBA76E-5474-4BD3-A1CC-9641C626CFE7";
shapes = (
{
closed = 1;
nodes = (
(132,620,ls),
(64,620,o),
(12,568,o),
(13,500,cs),
(13,120,ls),
(12,52,o),
(64,0,o),
(132,0,cs),
(295,0,ls),
(323,0,o),
(349,9,o),
(369,24,c),
(389,9,o),
(415,0,o),
(443,0,cs),
(522,0,l),
(522,90,l),
(444,90,ls),
(427,90,o),
(414,103,o),
(414,120,cs),
(414,500,ls),
(414,517,o),
(427,530,o),
(444,530,cs),
(522,530,l),
(522,620,l),
(443,620,ls),
(415,620,o),
(389,611,o),
(369,596,c),
(349,611,o),
(323,620,o),
(295,620,cs)
);
},
{
closed = 1;
nodes = (
(311,530,o),
(324,517,o),
(324,500,cs),
(324,120,ls),
(324,103,o),
(311,90,o),
(294,90,cs),
(133,90,ls),
(116,90,o),
(103,103,o),
(103,120,cs),
(103,500,ls),
(103,517,o),
(116,530,o),
(133,530,cs),
(294,530,ls)
);
}
);
width = 536;
},
{
anchors = (
{
name = bottom;
pos = (268,0);
},
{
name = top;
pos = (268,620);
}
);
layerId = "D8CC3DFA-F3EA-4C7D-84FB-05FCEA5C6558";
shapes = (
{
closed = 1;
nodes = (
(146,620,ls),
(78,620,o),
(26,568,o),
(27,500,cs),
(27,120,ls),
(26,52,o),
(78,0,o),
(146,0,cs),
(264,0,ls),
(310,0,o),
(348,23,o),
(368,59,c),
(388,23,o),
(426,0,o),
(472,0,cs),
(509,0,l),
(509,30,l),
(472,30,ls),
(422,30,o),
(383,66,o),
(383,116,cs),
(383,504,ls),
(383,554,o),
(422,590,o),
(472,590,cs),
(509,590,l),
(509,620,l),
(472,620,ls),
(426,620,o),
(388,597,o),
(368,561,c),
(348,597,o),
(310,620,o),
(264,620,cs)
);
},
{
closed = 1;
nodes = (
(314,590,o),
(353,554,o),
(353,504,cs),
(353,116,ls),
(353,66,o),
(314,30,o),
(264,30,cs),
(146,30,ls),
(95,30,o),
(56,69,o),
(57,120,cs),
(57,500,ls),
(56,551,o),
(95,590,o),
(146,590,cs),
(264,590,ls)
);
}
);
width = 536;
}
);
unicode = 11373;
},
{
glyphname = AE;
lastChange = "2025-08-03 15:28:58 +0000";
layers = (
{
anchors = (
{
name = bottom;
pos = (300,0);
},
{
name = top;
pos = (300,620);
}
);
layerId = m01;
shapes = (
{
closed = 1;
nodes = (
(133,0,l),
(132,500,ls),
(131,534,o),
(157,560,o),
(191,560,cs),
(528,560,l),
(528,620,l),
(191,620,ls),
(123,620,o),
(71,568,o),
(72,500,cs),
(73,0,l)
);
},
{
closed = 1;
nodes = (
(492,330,l),
(492,390,l),
(101,390,l),
(101,330,l)
);
},
{
closed = 1;
nodes = (
(528,0,l),
(528,60,l),
(319,60,l),
(349,25,l),
(348,595,l),
(288,595,l),
(289,0,l)
);
}
);
width = 600;
},
{
anchors = (
{
name = bottom;
pos = (300,0);
},
{
name = top;
pos = (300,620);
}
);
layerId = "BDCBA76E-5474-4BD3-A1CC-9641C626CFE7";
shapes = (
{
closed = 1;
nodes = (
(163,0,l),
(162,500,ls),
(162,517,o),
(175,530,o),
(192,530,cs),
(528,530,l),
(528,620,l),
(191,620,ls),
(123,620,o),
(71,568,o),
(72,500,cs),
(73,0,l)
);
},
{
closed = 1;
nodes = (
(492,290,l),
(492,380,l),
(114,380,l),
(114,290,l)
);
},
{
closed = 1;
nodes = (
(528,0,l),
(528,90,l),
(319,90,l),
(364,45,l),
(363,588,l),
(273,588,l),
(274,0,l)
);
}
);
width = 600;
},
{
anchors = (
{
name = bottom;
pos = (300,0);
},
{
name = top;
pos = (300,620);
}
);
layerId = "D8CC3DFA-F3EA-4C7D-84FB-05FCEA5C6558";
shapes = (
{
closed = 1;
nodes = (
(103,0,l),
(102,500,ls),
(101,551,o),
(140,590,o),
(191,590,cs),
(528,590,l),
(528,620,l),
(191,620,ls),
(123,620,o),
(71,568,o),
(72,500,cs),
(73,0,l)
);
},
{
closed = 1;
nodes = (
(492,346,l),
(492,376,l),
(88,376,l),
(88,346,l)
);
},
{
closed = 1;
nodes = (
(528,0,l),
(528,30,l),
(320,30,l),
(334,15,l),
(333,607,l),
(303,607,l),
(304,0,l)
);
}
);
width = 600;
}
);
unicode = 198;
},
{
color = 4;
glyphname = B;
lastChange = "2025-08-02 18:24:22 +0000";
layers = (
{
anchors = (
{
name = bottom;
pos = (300,0);
},
{
name = center;
pos = (150,155);
},
{
name = top;
pos = (300,620);
}
);
layerId = m01;
shapes = (
{
closed = 1;
nodes = (
(399,0,ls),
(467,0,o),
(519,52,o),
(518,120,cs),
(518,270,ls),
(519,307,o),
(503,339,o),
(480,360,c),
(503,381,o),
(519,413,o),
(518,450,cs),
(518,500,ls),
(519,568,o),
(467,620,o),
(399,620,cs),
(82,620,l),
(82,0,l)
);
},
{
closed = 1;
nodes = (
(142,587,l),
(114,560,l),
(399,560,ls),
(433,560,o),
(459,534,o),
(458,500,cs),
(458,450,ls),
(459,416,o),
(433,390,o),
(399,390,cs),
(112,390,l),
(112,330,l),
(399,330,ls),
(433,330,o),
(459,304,o),
(458,270,cs),
(458,120,ls),
(459,86,o),
(433,60,o),
(399,60,cs),
(112,60,l),
(142,30,l)
);
}
);
width = 600;
},
{
anchors = (
{
name = bottom;
pos = (300,0);
},
{
name = center;
pos = (150,155);
},
{
name = top;
pos = (300,620);
}
);
layerId = "BDCBA76E-5474-4BD3-A1CC-9641C626CFE7";
shapes = (
{
closed = 1;
nodes = (
(399,0,ls),
(467,0,o),
(519,52,o),
(518,120,cs),
(518,260,ls),
(518,288,o),
(510,314,o),
(494,335,c),
(509,355,o),
(518,382,o),
(518,410,cs),
(518,500,ls),
(519,568,o),
(467,620,o),
(399,620,cs),
(82,620,l),
(82,0,l)
);
},
{
closed = 1;
nodes = (
(172,575,l),
(127,530,l),
(398,530,ls),
(415,530,o),
(428,517,o),
(428,500,cs),
(428,410,ls),
(428,393,o),
(415,380,o),
(398,380,cs),
(128,380,l),
(128,290,l),
(398,290,ls),
(415,290,o),
(428,277,o),
(428,260,cs),
(428,120,ls),
(428,103,o),
(415,90,o),
(398,90,cs),
(127,90,l),
(172,45,l)
);
}
);
width = 600;
},
{
anchors = (
{
name = bottom;
pos = (300,0);
},
{
name = center;
pos = (150,155);
},
{
name = top;
pos = (300,620);
}
);
layerId = "D8CC3DFA-F3EA-4C7D-84FB-05FCEA5C6558";
shapes = (
{
closed = 1;
nodes = (
(399,0,ls),
(467,0,o),
(519,52,o),
(518,120,cs),
(518,270,ls),
(519,317,o),
(495,355,o),
(459,375,c),
(495,395,o),
(519,433,o),
(518,480,cs),
(518,500,ls),
(519,568,o),
(467,620,o),
(399,620,cs),
(82,620,l),
(82,0,l)
);
},
{
closed = 1;
nodes = (
(112,606,l),
(97,590,l),
(399,590,ls),
(450,590,o),
(489,551,o),
(488,500,cs),
(488,480,ls),
(489,429,o),
(450,390,o),
(399,390,cs),
(97,390,l),
(97,360,l),
(399,360,ls),
(450,360,o),
(489,321,o),
(488,270,cs),
(488,120,ls),
(489,69,o),
(450,30,o),
(399,30,cs),
(96,30,l),
(112,14,l)
);
}
);
width = 600;
}
);
unicode = 66;
},
{
glyphname = Bhook;
lastChange = "2025-08-03 15:30:10 +0000";
layers = (
{
anchors = (
{
name = bottom;
pos = (300,0);
},
{
name = top;
pos = (300,620);
}
);
layerId = m01;
shapes = (
{
closed = 1;
nodes = (
(437,0,ls),
(505,0,o),
(557,52,o),
(556,120,cs),
(556,270,ls),
(557,307,o),
(541,339,o),
(518,360,c),
(541,381,o),
(557,413,o),
(556,450,cs),
(556,500,ls),
(557,568,o),
(505,620,o),
(437,620,cs),
(165,620,ls),
(97,620,o),
(45,568,o),
(45,500,cs),
(45,466,l),
(105,466,l),
(105,500,ls),
(105,534,o),
(131,560,o),
(165,560,cs),
(170,560,l),
(170,0,l)
);
},
{
closed = 1;
nodes = (
(230,592,l),
(199,560,l),
(437,560,ls),
(471,560,o),
(497,534,o),
(496,500,cs),
(496,450,ls),
(497,416,o),
(471,390,o),
(437,390,cs),
(199,390,l),
(199,330,l),
(437,330,ls),
(471,330,o),
(497,304,o),
(496,270,cs),
(496,120,ls),
(497,86,o),
(471,60,o),
(437,60,cs),
(199,60,l),
(230,31,l)
);
}
);
width = 600;
},
{
anchors = (
{
name = bottom;
pos = (300,0);
},
{
name = top;
pos = (300,620);
}
);
layerId = "BDCBA76E-5474-4BD3-A1CC-9641C626CFE7";
shapes = (
{
closed = 1;
nodes = (
(441,0,ls),
(509,-1,o),
(561,51,o),
(561,119,cs),
(561,271,ls),
(561,299,o),
(552,325,o),
(537,345,c),
(552,365,o),
(561,391,o),
(561,419,cs),
(561,501,ls),
(561,569,o),
(509,621,o),
(441,620,cs),
(184,620,ls),
(102,620,o),
(40,558,o),
(40,476,cs),
(40,466,l),
(130,466,l),
(130,470,ls),
(130,504,o),
(156,530,o),
(190,530,cs),
(195,530,l),
(195,0,l)
);
},
{
closed = 1;
nodes = (
(285,575,l),
(240,530,l),
(441,530,ls),
(458,530,o),
(471,517,o),
(471,500,cs),
(471,420,ls),
(471,403,o),
(458,390,o),
(441,390,cs),
(240,390,l),
(240,300,l),
(441,300,ls),
(458,300,o),
(471,287,o),
(471,270,cs),
(471,120,ls),
(471,103,o),
(458,90,o),
(441,90,cs),
(240,90,l),
(285,45,l)
);
}
);
width = 600;
},
{
anchors = (
{
name = bottom;
pos = (300,0);
},
{
name = top;
pos = (300,620);
}
);
layerId = "D8CC3DFA-F3EA-4C7D-84FB-05FCEA5C6558";
shapes = (
{
closed = 1;
nodes = (
(437,0,ls),
(505,0,o),
(557,52,o),
(556,120,cs),
(556,270,ls),
(557,317,o),
(533,355,o),
(497,375,c),
(533,395,o),
(557,433,o),
(556,480,cs),
(556,500,ls),
(557,568,o),
(505,620,o),
(437,620,cs),
(165,620,ls),
(97,620,o),
(45,568,o),
(45,500,cs),
(45,466,l),
(75,466,l),
(75,500,ls),
(75,551,o),
(114,590,o),
(165,590,cs),
(170,590,l),
(170,0,l)
);
},
{
closed = 1;
nodes = (
(200,605,l),
(185,590,l),
(437,590,ls),
(488,590,o),
(527,551,o),
(526,500,cs),
(526,480,ls),
(527,429,o),
(488,390,o),
(437,390,cs),
(183,390,l),
(183,360,l),
(437,360,ls),
(488,360,o),
(527,321,o),
(526,270,cs),
(526,120,ls),
(527,69,o),
(488,30,o),
(437,30,cs),
(183,30,l),
(200,13,l)
);
}
);
width = 600;
}
);
unicode = 385;
},
{
glyphname = Bstroke;
lastChange = "2025-08-03 15:30:57 +0000";
layers = (
{
layerId = m01;
shapes = (
{
pos = (36,0);
ref = B;
},
{
closed = 1;
nodes = (
(46,220,l),
(46,170,l),
(286,170,l),
(286,220,l)
);
}
);
width = 600;
},
{
layerId = "BDCBA76E-5474-4BD3-A1CC-9641C626CFE7";
shapes = (
{
pos = (36,0);
ref = B;
},
{
closed = 1;
nodes = (
(46,240,l),
(46,150,l),
(286,150,l),
(286,240,l)
);
}
);
width = 600;
},
{
layerId = "D8CC3DFA-F3EA-4C7D-84FB-05FCEA5C6558";
shapes = (
{
pos = (36,0);
ref = B;
},
{
closed = 1;
nodes = (
(46,209,l),
(46,179,l),
(286,179,l),
(286,209,l)
);
}
);
width = 600;
}
);
unicode = 579;
},
{
color = 4;
glyphname = C;
lastChange = "2025-08-02 18:24:29 +0000";
layers = (
{
anchors = (
{
name = bottom;
pos = (300,0);
},
{
name = top;
pos = (300,620);
}
);
layerId = m01;
shapes = (
{
closed = 1;
nodes = (
(133,620,o),
(81,568,o),
(82,500,cs),
(82,120,ls),
(81,52,o),
(133,0,o),
(201,0,cs),
(518,0,l),
(518,60,l),
(201,60,ls),
(167,60,o),
(141,86,o),
(142,120,cs),
(142,500,ls),
(141,534,o),
(167,560,o),
(201,560,cs),
(518,560,l),
(518,620,l),
(201,620,ls)
);
}
);
width = 600;
},
{
anchors = (
{
name = bottom;
pos = (300,0);
},
{
name = top;
pos = (300,620);
}
);
layerId = "BDCBA76E-5474-4BD3-A1CC-9641C626CFE7";
shapes = (
{
closed = 1;
nodes = (
(133,620,o),
(81,568,o),
(82,500,cs),
(82,120,ls),
(81,52,o),
(133,0,o),
(201,0,cs),
(518,0,l),
(518,90,l),
(202,90,ls),
(185,90,o),
(172,103,o),
(172,120,cs),
(172,500,ls),
(172,517,o),
(185,530,o),
(202,530,cs),
(518,530,l),
(518,620,l),
(201,620,ls)
);
}
);
width = 600;
},
{
anchors = (
{
name = bottom;
pos = (300,0);
},
{
name = top;
pos = (300,620);
}
);
layerId = "D8CC3DFA-F3EA-4C7D-84FB-05FCEA5C6558";
shapes = (
{
closed = 1;
nodes = (
(133,620,o),
(81,568,o),
(82,500,cs),
(82,120,ls),
(81,52,o),
(133,0,o),
(201,0,cs),
(518,0,l),
(518,30,l),
(201,30,ls),
(150,30,o),
(111,69,o),
(112,120,cs),
(112,500,ls),
(111,551,o),
(150,590,o),
(201,590,cs),
(518,590,l),
(518,620,l),
(201,620,ls)
);
}
);
width = 600;
}
);
unicode = 67;
},
{
glyphname = Chook;
lastChange = "2025-08-03 15:31:53 +0000";
layers = (
{
anchors = (
{
name = bottom;
pos = (300,0);
},
{
name = top;
pos = (300,620);
}
);
layerId = m01;
shapes = (
{
closed = 1;
nodes = (
(486,0,l),
(486,60,l),
(169,60,ls),
(135,60,o),
(109,86,o),
(110,120,cs),
(110,500,ls),
(109,534,o),
(135,560,o),
(169,560,cs),
(486,560,l),
(486,654,ls),
(486,688,o),
(512,714,o),
(546,714,cs),
(551,714,l),
(551,774,l),
(546,774,ls),
(478,774,o),
(426,722,o),
(426,654,cs),
(426,595,l),
(457,620,l),
(169,620,ls),
(101,620,o),
(49,568,o),
(50,500,cs),
(50,120,ls),
(49,52,o),
(101,0,o),
(169,0,cs)
);
}
);
width = 600;
},
{
anchors = (
{
name = bottom;
pos = (300,0);
},
{
name = top;
pos = (300,620);
}
);
layerId = "BDCBA76E-5474-4BD3-A1CC-9641C626CFE7";
shapes = (
{
closed = 1;
nodes = (
(486,0,l),
(486,90,l),
(170,90,ls),
(153,90,o),
(140,103,o),
(140,120,cs),
(140,500,ls),
(140,517,o),
(153,530,o),
(170,530,cs),
(486,530,l),
(486,624,ls),
(486,658,o),
(512,684,o),
(546,684,cs),
(551,684,l),
(551,774,l),
(540,774,ls),
(458,774,o),
(396,712,o),
(396,630,cs),
(396,575,l),
(441,620,l),
(169,620,ls),
(101,620,o),
(49,568,o),
(50,500,cs),
(50,120,ls),
(49,52,o),
(101,0,o),
(169,0,cs)
);
}
);
width = 600;
},
{
anchors = (
{
name = bottom;
pos = (300,0);
},
{
name = top;
pos = (300,620);
}
);
layerId = "D8CC3DFA-F3EA-4C7D-84FB-05FCEA5C6558";
shapes = (
{
closed = 1;
nodes = (
(486,0,l),
(486,30,l),
(169,30,ls),
(118,30,o),
(79,69,o),
(80,120,cs),
(80,500,ls),
(79,551,o),
(118,590,o),
(169,590,cs),
(456,590,l),
(456,654,ls),
(456,705,o),
(495,744,o),
(546,744,cs),
(551,744,l),
(551,774,l),
(546,774,ls),
(478,774,o),
(426,722,o),
(426,654,cs),
(426,607,l),
(441,620,l),
(169,620,ls),
(101,620,o),
(49,568,o),
(50,500,cs),
(50,120,ls),
(49,52,o),
(101,0,o),
(169,0,cs)
);
}
);
width = 600;
}
);
unicode = 391;
},
{
color = 4;
glyphname = D;
lastChange = "2025-08-02 18:24:34 +0000";
layers = (
{
anchors = (
{
name = bottom;
pos = (300,0);
},
{
name = center;
pos = (150,310);
},
{
name = top;
pos = (300,620);
}
);
layerId = m01;
shapes = (
{
closed = 1;
nodes = (
(433,560,o),
(459,534,o),
(458,500,cs),
(458,120,ls),
(459,86,o),
(433,60,o),
(399,60,cs),
(109,60,l),
(142,33,l),
(142,585,l),
(109,560,l),
(399,560,ls)
);
},
{
closed = 1;
nodes = (
(82,620,l),
(82,0,l),
(399,0,ls),
(467,0,o),
(519,52,o),
(518,120,cs),
(518,500,ls),
(519,568,o),
(467,620,o),
(399,620,cs)
);
}
);
width = 600;
},
{
anchors = (
{
name = bottom;
pos = (300,0);
},
{
name = center;
pos = (150,310);
},
{
name = top;
pos = (300,620);
}
);
layerId = "BDCBA76E-5474-4BD3-A1CC-9641C626CFE7";
shapes = (
{
closed = 1;
nodes = (
(415,530,o),
(428,517,o),
(428,500,cs),
(428,120,ls),
(428,103,o),
(415,90,o),
(398,90,cs),
(127,90,l),
(172,45,l),
(172,575,l),
(127,530,l),
(398,530,ls)
);
},
{
closed = 1;
nodes = (
(82,620,l),
(82,0,l),
(398,0,ls),
(466,-1,o),
(518,51,o),
(518,119,cs),
(518,501,ls),
(518,569,o),
(466,621,o),
(398,620,cs)
);
}
);
width = 600;
},
{
anchors = (
{
name = bottom;
pos = (300,0);
},
{
name = center;
pos = (150,310);
},
{
name = top;
pos = (300,620);
}
);
layerId = "D8CC3DFA-F3EA-4C7D-84FB-05FCEA5C6558";
shapes = (
{
closed = 1;
nodes = (
(450,590,o),
(489,551,o),
(488,500,cs),
(488,120,ls),
(489,69,o),
(450,30,o),
(399,30,cs),
(96,30,l),
(112,16,l),
(112,605,l),
(97,590,l),
(399,590,ls)
);
},
{
closed = 1;
nodes = (
(82,620,l),
(82,0,l),
(399,0,ls),
(467,0,o),
(519,52,o),
(518,120,cs),
(518,500,ls),
(519,568,o),
(467,620,o),
(399,620,cs)
);
}
);
width = 600;
}
);
unicode = 68;
},
{
glyphname = Dcroat;
lastChange = "2025-08-03 15:32:46 +0000";
layers = (
{
layerId = m01;
shapes = (
{
pos = (46,0);
ref = D;
},
{
closed = 1;
nodes = (
(36,335,l),
(36,285,l),
(318,285,l),
(318,335,l)
);
}
);
width = 600;
},
{
layerId = "BDCBA76E-5474-4BD3-A1CC-9641C626CFE7";
shapes = (
{
pos = (46,0);
ref = D;
},
{
closed = 1;
nodes = (
(36,355,l),
(36,265,l),
(318,265,l),
(318,355,l)
);
}
);
width = 600;
},
{
layerId = "D8CC3DFA-F3EA-4C7D-84FB-05FCEA5C6558";
shapes = (
{
pos = (46,0);
ref = D;
},
{
closed = 1;
nodes = (
(36,325,l),
(36,295,l),
(318,295,l),
(318,325,l)
);
}
);
width = 600;
}
);
unicode = 272;
},
{
glyphname = Dhook;
lastChange = "2025-08-03 15:33:52 +0000";
layers = (
{
anchors = (
{
name = bottom;
pos = (300,0);
},
{
name = top;
pos = (300,620);
}
);
layerId = m01;
shapes = (
{
closed = 1;
nodes = (
(110,500,ls),
(110,534,o),
(136,560,o),
(170,560,cs),
(194,560,l),
(174,582,l),
(174,0,l),
(431,0,ls),
(499,0,o),
(551,52,o),
(550,120,cs),
(550,500,ls),
(551,568,o),
(499,620,o),
(431,620,cs),
(170,620,ls),
(102,620,o),
(50,568,o),
(50,500,cs),
(50,466,l),
(110,466,l)
);
},
{
closed = 1;
nodes = (
(234,582,l),
(212,560,l),
(431,560,ls),
(465,560,o),
(491,534,o),
(490,500,cs),
(490,120,ls),
(491,86,o),
(465,60,o),
(431,60,cs),
(208,60,l),
(234,31,l)
);
}
);
width = 600;
},
{
anchors = (
{
name = bottom;
pos = (300,0);
},
{
name = top;
pos = (300,620);
}
);
layerId = "BDCBA76E-5474-4BD3-A1CC-9641C626CFE7";
shapes = (
{
closed = 1;
nodes = (
(135,470,ls),
(135,504,o),
(161,530,o),
(195,530,cs),
(229,530,l),
(199,575,l),
(199,0,l),
(435,0,ls),
(503,-1,o),
(555,51,o),
(555,119,cs),
(555,501,ls),
(555,569,o),
(503,621,o),
(435,620,cs),
(189,620,ls),
(107,620,o),
(45,558,o),
(45,476,cs),
(45,466,l),
(135,466,l)
);
},
{
closed = 1;
nodes = (
(289,575,l),
(265,530,l),
(435,530,ls),
(452,530,o),
(465,517,o),
(465,500,cs),
(465,120,ls),
(465,103,o),
(452,90,o),
(435,90,cs),
(244,90,l),
(289,45,l)
);
}
);
width = 600;
},
{
anchors = (
{
name = bottom;
pos = (300,0);
},
{
name = top;
pos = (300,620);
}
);
layerId = "D8CC3DFA-F3EA-4C7D-84FB-05FCEA5C6558";
shapes = (
{
closed = 1;
nodes = (
(80,500,ls),
(80,551,o),
(119,590,o),
(170,590,cs),
(185,590,l),
(174,603,l),
(174,0,l),
(431,0,ls),
(499,0,o),
(551,52,o),
(550,120,cs),
(550,500,ls),
(551,568,o),
(499,620,o),
(431,620,cs),
(170,620,ls),
(102,620,o),
(50,568,o),
(50,500,cs),
(50,466,l),
(80,466,l)
);
},
{
closed = 1;
nodes = (
(204,603,l),
(192,590,l),
(431,590,ls),
(482,590,o),
(521,551,o),
(520,500,cs),
(520,120,ls),
(521,69,o),
(482,30,o),
(431,30,cs),
(188,30,l),
(204,14,l)
);
}
);
width = 600;
}
);
unicode = 394;
},
{
glyphname = Dtail;
lastChange = "2025-08-03 15:34:40 +0000";
layers = (
{
layerId = m01;
shapes = (
{
pos = (36,0);
ref = D;
},
{
closed = 1;
nodes = (
(46,280,l),
(326,280,l),
(326,340,l),
(46,340,l)
);
}
);
width = 600;
},
{
layerId = "BDCBA76E-5474-4BD3-A1CC-9641C626CFE7";
shapes = (
{
pos = (36,0);
ref = D;
},
{
closed = 1;
nodes = (
(46,260,l),
(326,260,l),
(326,360,l),
(46,360,l)
);
}
);
width = 600;
},
{
layerId = "D8CC3DFA-F3EA-4C7D-84FB-05FCEA5C6558";
shapes = (
{
pos = (36,0);
ref = D;
},
{
closed = 1;
nodes = (
(46,295,l),
(326,295,l),
(326,325,l),
(46,325,l)
);
}
);
width = 600;
}
);
unicode = 393;
},
{
glyphname = Eth;
lastChange = "2025-08-10 18:39:57 +0000";
layers = (
{
layerId = m01;
shapes = (
{
ref = D;
},
{
closed = 1;
nodes = (
(42,335,l),
(42,285,l),
(368,285,l),
(368,335,l)
);
}
);
width = 600;
},
{
layerId = "BDCBA76E-5474-4BD3-A1CC-9641C626CFE7";
shapes = (
{
ref = D;
},
{
closed = 1;
nodes = (
(42,350,l),
(42,270,l),
(368,270,l),
(368,350,l)
);
}
);
width = 600;
},
{
layerId = "D8CC3DFA-F3EA-4C7D-84FB-05FCEA5C6558";
shapes = (
{
ref = D;
},
{
closed = 1;
nodes = (
(42,325,l),
(42,295,l),
(368,295,l),
(368,325,l)
);
}
);
width = 600;
}
);
unicode = 208;
},
{
color = 4;
glyphname = E;
lastChange = "2025-08-10 18:41:47 +0000";
layers = (
{
anchors = (
{
name = bottom;
pos = (300,0);
},
{
name = ogonek;
pos = (481,0);
},
{
name = top;
pos = (300,620);
},
{
name = topleft;
pos = (20,620);
}
);
layerId = m01;
shapes = (
{
closed = 1;
nodes = (
(82,0,l),
(518,0,l),
(518,60,l),
(108,60,l),
(142,28,l),
(142,590,l),
(108,560,l),
(518,560,l),
(518,620,l),
(82,620,l)
);
},
{
closed = 1;
nodes = (
(108,330,l),
(442,330,l),
(442,390,l),
(108,390,l)
);
}
);
width = 600;
},
{
anchors = (
{
name = bottom;
pos = (300,0);
},
{
name = ogonek;
pos = (467,0);
},
{
name = top;
pos = (300,620);
},
{
name = topleft;
pos = (20,620);
}
);
layerId = "BDCBA76E-5474-4BD3-A1CC-9641C626CFE7";
shapes = (
{
closed = 1;
nodes = (
(82,0,l),
(518,0,l),
(518,90,l),
(148,90,l),
(172,28,l),
(172,590,l),
(148,530,l),
(518,530,l),
(518,620,l),
(82,620,l)
);
},
{
closed = 1;
nodes = (
(148,290,l),
(442,290,l),
(442,380,l),
(148,380,l)
);
}
);
width = 600;
},
{
anchors = (
{
name = bottom;
pos = (300,0);
},
{
name = ogonek;
pos = (503,0);
},
{
name = top;
pos = (300,620);
},
{
name = topleft;
pos = (20,620);
}
);
layerId = "D8CC3DFA-F3EA-4C7D-84FB-05FCEA5C6558";
shapes = (
{
closed = 1;
nodes = (
(82,0,l),
(518,0,l),
(518,30,l),
(98,30,l),
(112,12,l),
(112,607,l),
(98,590,l),
(518,590,l),
(518,620,l),
(82,620,l)
);
},
{
closed = 1;
nodes = (
(98,360,l),
(442,360,l),
(442,390,l),
(98,390,l)
);
}
);
width = 600;
}
);
unicode = 69;
},
{
glyphname = Eopen;
lastChange = "2025-08-03 15:35:20 +0000";
layers = (
{
anchors = (
{
name = bottom;
pos = (300,0);
},
{
name = top;
pos = (300,620);
}
);
layerId = m01;
shapes = (
{
closed = 1;
nodes = (
(518,620,l),
(201,620,ls),
(133,620,o),
(81,568,o),
(82,500,cs),
(82,450,ls),
(81,413,o),
(97,381,o),
(120,360,c),
(97,339,o),
(81,307,o),
(82,270,cs),
(82,120,ls),
(81,52,o),
(133,0,o),
(201,0,cs),
(518,0,l),
(518,60,l),
(201,60,ls),
(167,60,o),
(141,86,o),
(142,120,cs),
(142,270,ls),
(141,304,o),
(167,330,o),
(201,330,cs),
(442,330,l),
(442,390,l),
(201,390,ls),
(167,390,o),
(141,416,o),
(142,450,cs),
(142,500,ls),
(141,534,o),
(167,560,o),
(201,560,cs),
(518,560,l)
);
}
);
width = 600;
},
{
anchors = (
{
name = bottom;
pos = (300,0);
},
{
name = top;
pos = (300,620);
}
);
layerId = "BDCBA76E-5474-4BD3-A1CC-9641C626CFE7";
shapes = (
{
closed = 1;
nodes = (
(518,620,l),
(201,620,ls),
(133,620,o),
(81,568,o),
(82,500,cs),
(82,420,ls),
(82,392,o),
(90,366,o),
(106,345,c),
(91,325,o),
(82,298,o),
(82,270,cs),
(82,120,ls),
(81,52,o),
(133,0,o),
(201,0,cs),
(518,0,l),
(518,90,l),
(202,90,ls),
(185,90,o),
(172,103,o),
(172,120,cs),
(172,270,ls),
(172,287,o),
(185,300,o),
(202,300,cs),
(442,300,l),
(442,390,l),
(202,390,ls),
(185,390,o),
(172,403,o),
(172,420,cs),
(172,500,ls),
(172,517,o),
(185,530,o),
(202,530,cs),
(518,530,l)
);
}
);
width = 600;
},
{
anchors = (
{
name = bottom;
pos = (300,0);
},
{
name = top;
pos = (300,620);
}
);
layerId = "D8CC3DFA-F3EA-4C7D-84FB-05FCEA5C6558";
shapes = (
{
closed = 1;
nodes = (
(518,620,l),
(201,620,ls),
(133,620,o),
(81,568,o),
(82,500,cs),
(82,480,ls),
(81,433,o),
(105,395,o),
(141,375,c),
(105,355,o),
(81,317,o),
(82,270,cs),
(82,120,ls),
(81,52,o),
(133,0,o),
(201,0,cs),
(518,0,l),
(518,30,l),
(201,30,ls),
(150,30,o),
(111,69,o),
(112,120,cs),
(112,270,ls),
(111,321,o),
(150,360,o),
(201,360,cs),
(442,360,l),
(442,390,l),
(201,390,ls),
(150,390,o),
(111,429,o),
(112,480,cs),
(112,500,ls),
(111,551,o),
(150,590,o),
(201,590,cs),
(518,590,l)
);
}
);
width = 600;
}
);
unicode = 400;
},
{
glyphname = Esh;
lastChange = "2025-08-10 18:42:20 +0000";
layers = (
{
hints = (
{
name = _corner.round;
origin = (0,1);
scale = (0.5,0.5);
type = Corner;
},
{
name = _corner.round;
origin = (0,2);
scale = (0.5,0.5);
type = Corner;
},
{
name = _corner.round;
origin = (0,3);
scale = (0.5,0.5);
type = Corner;
}
);
layerId = m01;
shapes = (
{
attr = {
strokeWidth = 60;
};
closed = 0;
nodes = (
(521,589,l),
(97,589,l),
(333,353,l),
(97,30,l),
(521,30,l)
);
}
);
width = 600;
},
{
hints = (
{
name = _corner.round;
origin = (0,1);
scale = (0.5,0.5);
type = Corner;
},
{
name = _corner.round;
origin = (0,2);
scale = (0.2,0.2);
type = Corner;
},
{
name = _corner.round;
origin = (0,3);
scale = (0.5,0.5);
type = Corner;
}
);
layerId = "BDCBA76E-5474-4BD3-A1CC-9641C626CFE7";
shapes = (
{
attr = {
strokeWidth = 90;
};
closed = 0;
nodes = (
(528,575,l),
(104,575,l),
(340,353,l),
(104,45,l),
(528,45,l)
);
}
);
width = 600;
},
{
hints = (
{
name = _corner.round;
origin = (0,1);
scale = (0.5,0.5);
type = Corner;
},
{
name = _corner.round;
origin = (0,2);
scale = (0.5,0.5);
type = Corner;
},
{
name = _corner.round;
origin = (0,3);
scale = (0.5,0.5);
type = Corner;
}
);
layerId = "D8CC3DFA-F3EA-4C7D-84FB-05FCEA5C6558";
shapes = (
{
attr = {
strokeWidth = 30;
};
closed = 0;
nodes = (
(514,604,l),
(90,604,l),
(326,353,l),
(90,15,l),
(514,15,l)
);
}
);
width = 600;
}
);
unicode = 425;
},
{
glyphname = Schwa;
lastChange = "2025-08-03 15:36:52 +0000";
layers = (
{
anchors = (
{
name = bottom;
pos = (300,0);
},
{
name = top;
pos = (300,620);
}
);
layerId = m01;
shapes = (
{
closed = 1;
nodes = (
(399,560,ls),
(433,560,o),
(459,534,o),
(458,500,cs),
(458,120,ls),
(459,86,o),
(433,60,o),
(399,60,cs),
(201,60,ls),
(167,60,o),
(141,86,o),
(142,120,cs),
(142,220,ls),
(141,254,o),
(167,280,o),
(201,280,cs),
(486,280,l),
(486,340,l),
(201,340,ls),
(133,340,o),
(81,288,o),
(82,220,cs),
(82,120,ls),
(81,52,o),
(133,0,o),
(201,0,cs),
(399,0,ls),
(467,0,o),
(519,52,o),
(518,120,cs),
(518,500,ls),
(519,568,o),
(467,620,o),
(399,620,cs),
(82,620,l),
(82,560,l)
);
}
);
width = 600;
},
{
anchors = (
{
name = bottom;
pos = (300,0);
},
{
name = top;
pos = (300,620);
}
);
layerId = "BDCBA76E-5474-4BD3-A1CC-9641C626CFE7";
shapes = (
{
closed = 1;
nodes = (
(398,530,ls),
(415,530,o),
(428,517,o),
(428,500,cs),
(428,120,ls),
(428,103,o),
(415,90,o),
(398,90,cs),
(202,90,ls),
(185,90,o),
(172,103,o),
(172,120,cs),
(172,260,ls),
(172,277,o),
(185,290,o),
(202,290,cs),
(474,290,l),
(474,380,l),
(201,380,ls),
(133,380,o),
(81,328,o),
(82,260,cs),
(82,119,ls),
(82,51,o),
(134,-1,o),
(202,0,cs),
(398,0,ls),
(466,-1,o),
(518,51,o),
(518,119,cs),
(518,501,ls),
(518,569,o),
(466,621,o),
(398,620,cs),
(82,620,l),
(82,530,l)
);
}
);
width = 600;
},
{
anchors = (
{
name = bottom;
pos = (300,0);
},
{
name = top;
pos = (300,620);
}
);
layerId = "D8CC3DFA-F3EA-4C7D-84FB-05FCEA5C6558";
shapes = (
{
closed = 1;
nodes = (
(399,590,ls),
(450,590,o),
(489,551,o),
(488,500,cs),
(488,120,ls),
(489,69,o),
(450,30,o),
(399,30,cs),
(201,30,ls),
(150,30,o),
(111,69,o),
(112,120,cs),
(112,220,ls),
(111,271,o),
(150,310,o),
(201,310,cs),
(503,310,l),
(503,340,l),
(201,340,ls),
(133,340,o),
(81,288,o),
(82,220,cs),
(82,120,ls),
(81,52,o),
(133,0,o),
(201,0,cs),
(399,0,ls),
(467,0,o),
(519,52,o),
(518,120,cs),
(518,500,ls),
(519,568,o),
(467,620,o),
(399,620,cs),
(82,620,l),
(82,590,l)
);
}
);
width = 600;
}
);
unicode = 399;
},
{
glyphname = Ezh;
lastChange = "2025-08-03 15:37:35 +0000";
layers = (
{
anchors = (
{
name = bottom;
pos = (300,0);
},
{
name = top;
pos = (300,620);
}
);
layerId = m01;
shapes = (
{
closed = 1;
nodes = (
(87,0,l),
(404,0,ls),
(472,0,o),
(524,52,o),
(523,120,cs),
(523,270,ls),
(524,338,o),
(472,390,o),
(404,390,cs),
(285,390,l),
(297,359,l),
(500,548,ls),
(532,577,o),
(517,620,o),
(472,620,cs),
(78,620,l),
(78,560,l),
(471,560,l),
(459,591,l),
(243,390,l),
(243,330,l),
(404,330,ls),
(438,330,o),
(464,304,o),
(463,270,cs),
(463,120,ls),
(464,86,o),
(438,60,o),
(404,60,cs),
(87,60,l)
);
}
);
width = 600;
},
{
anchors = (
{
name = bottom;
pos = (300,0);
},
{
name = top;
pos = (300,620);
}
);
layerId = "BDCBA76E-5474-4BD3-A1CC-9641C626CFE7";
shapes = (
{
closed = 1;
nodes = (
(87,0,l),
(404,0,ls),
(472,0,o),
(524,52,o),
(523,120,cs),
(523,301,ls),
(523,369,o),
(471,421,o),
(403,420,cs),
(326,420,l),
(337,391,l),
(489,521,ls),
(534,562,o),
(510,620,o),
(452,620,cs),
(78,620,l),
(78,530,l),
(407,530,l),
(396,559,l),
(233,420,l),
(233,330,l),
(403,330,ls),
(420,330,o),
(433,317,o),
(433,300,cs),
(433,120,ls),
(433,103,o),
(420,90,o),
(403,90,cs),
(87,90,l)
);
}
);
width = 600;
},
{
anchors = (
{
name = bottom;
pos = (300,0);
},
{
name = top;
pos = (300,620);
}
);
layerId = "D8CC3DFA-F3EA-4C7D-84FB-05FCEA5C6558";
shapes = (
{
closed = 1;
nodes = (
(87,0,l),
(404,0,ls),
(472,0,o),
(524,52,o),
(523,120,cs),
(523,270,ls),
(524,338,o),
(472,390,o),
(404,390,cs),
(257,390,l),
(266,371,l),
(490,573,ls),
(512,593,o),
(503,619,o),
(472,619,cs),
(78,619,l),
(78,589,l),
(483,589,l),
(483,607,l),
(243,390,l),
(243,360,l),
(404,360,ls),
(455,360,o),
(494,321,o),
(493,270,cs),
(493,120,ls),
(494,69,o),
(455,30,o),
(404,30,cs),
(87,30,l)
);
}
);
width = 600;
}
);
unicode = 439;
},
{
color = 4;
glyphname = F;
lastChange = "2025-08-02 18:24:43 +0000";
layers = (
{
anchors = (
{
name = bottom;
pos = (300,0);
},
{
name = top;
pos = (300,620);
}
);
layerId = m01;
shapes = (
{
closed = 1;
nodes = (
(82,0,l),
(142,0,l),
(142,595,l),
(113,560,l),
(518,560,l),
(518,620,l),
(82,620,l)
);
},
{
closed = 1;
nodes = (
(113,330,l),
(442,330,l),
(442,390,l),
(113,390,l)
);
}
);
width = 600;
},
{
anchors = (
{
name = bottom;
pos = (300,0);
},
{
name = top;
pos = (300,620);
}
);
layerId = "BDCBA76E-5474-4BD3-A1CC-9641C626CFE7";
shapes = (
{
closed = 1;
nodes = (
(82,0,l),
(172,0,l),
(172,571,l),
(133,530,l),
(518,530,l),
(518,620,l),
(82,620,l)
);
},
{
closed = 1;
nodes = (
(133,290,l),
(442,290,l),
(442,380,l),
(133,380,l)
);
}
);
width = 600;
},
{
anchors = (
{
name = bottom;
pos = (300,0);
},
{
name = top;
pos = (300,620);
}
);
layerId = "D8CC3DFA-F3EA-4C7D-84FB-05FCEA5C6558";
shapes = (
{
closed = 1;
nodes = (
(82,0,l),
(112,0,l),
(112,605,l),
(96,590,l),
(518,590,l),
(518,620,l),
(82,620,l)
);
},
{
closed = 1;
nodes = (
(96,360,l),
(442,360,l),
(442,390,l),
(96,390,l)
);
}
);
width = 600;
}
);
unicode = 70;
},
{
glyphname = Fhook;
lastChange = "2025-08-03 15:38:17 +0000";
layers = (
{
layerId = m01;
shapes = (
{
closed = 1;
nodes = (
(115,-34,ls),
(115,-68,o),
(89,-94,o),
(55,-94,cs),
(50,-94,l),
(50,-154,l),
(55,-154,ls),
(123,-154,o),
(175,-102,o),
(175,-34,cs),
(175,596,l),
(146,560,l),
(551,560,l),
(551,620,l),
(115,620,l)
);
},
{
closed = 1;
nodes = (
(146,330,l),
(475,330,l),
(475,390,l),
(146,390,l)
);
}
);
width = 600;
},
{
layerId = "BDCBA76E-5474-4BD3-A1CC-9641C626CFE7";
shapes = (
{
closed = 1;
nodes = (
(115,-4,ls),
(115,-38,o),
(89,-64,o),
(55,-64,cs),
(50,-64,l),
(50,-154,l),
(61,-154,ls),
(143,-154,o),
(205,-92,o),
(205,-10,cs),
(205,575,l),
(160,530,l),
(551,530,l),
(551,620,l),
(115,620,l)
);
},
{
closed = 1;
nodes = (
(166,290,l),
(475,290,l),
(475,380,l),
(166,380,l)
);
}
);
width = 600;
},
{
layerId = "D8CC3DFA-F3EA-4C7D-84FB-05FCEA5C6558";
shapes = (
{
closed = 1;
nodes = (
(145,-34,ls),
(145,-85,o),
(106,-124,o),
(55,-124,cs),
(50,-124,l),
(50,-154,l),
(55,-154,ls),
(123,-154,o),
(175,-102,o),
(175,-34,cs),
(175,604,l),
(158,590,l),
(551,590,l),
(551,620,l),
(145,620,l)
);
},
{
closed = 1;
nodes = (
(159,360,l),
(475,360,l),
(475,390,l),
(159,390,l)
);
}
);
width = 600;
}
);
unicode = 401;
},
{
color = 4;
glyphname = G;
lastChange = "2025-08-02 18:24:48 +0000";
layers = (
{
anchors = (
{
name = bottom;
pos = (300,0);
},
{
name = top;
pos = (300,620);
}
);
layerId = m01;
shapes = (
{
closed = 1;
nodes = (
(133,620,o),
(81,568,o),
(82,500,cs),
(82,120,ls),
(81,52,o),
(133,0,o),
(201,0,cs),
(399,0,ls),
(467,0,o),
(519,52,o),
(518,120,cs),
(518,270,ls),
(519,338,o),
(467,390,o),
(399,390,cs),
(253,390,l),
(253,330,l),
(399,330,ls),
(433,330,o),
(459,304,o),
(458,270,cs),
(458,120,ls),
(459,86,o),
(433,60,o),
(399,60,cs),
(201,60,ls),
(167,60,o),
(141,86,o),
(142,120,cs),
(142,500,ls),
(141,534,o),
(167,560,o),
(201,560,cs),
(478,560,l),
(478,620,l),
(201,620,ls)
);
}
);
width = 600;
},
{
anchors = (
{
name = bottom;
pos = (300,0);
},
{
name = top;
pos = (300,620);
}
);
layerId = "BDCBA76E-5474-4BD3-A1CC-9641C626CFE7";
shapes = (
{
closed = 1;
nodes = (
(133,620,o),
(81,568,o),
(82,500,cs),
(82,120,ls),
(81,52,o),
(133,0,o),
(201,0,cs),
(399,0,ls),
(467,0,o),
(519,52,o),
(518,120,cs),
(518,260,ls),
(519,328,o),
(467,380,o),
(399,380,cs),
(253,380,l),
(253,290,l),
(398,290,ls),
(415,290,o),
(428,277,o),
(428,260,cs),
(428,120,ls),
(428,103,o),
(415,90,o),
(398,90,cs),
(202,90,ls),
(185,90,o),
(172,103,o),
(172,120,cs),
(172,500,ls),
(172,517,o),
(185,530,o),
(202,530,cs),
(478,530,l),
(478,620,l),
(201,620,ls)
);
}
);
width = 600;
},
{
anchors = (
{
name = bottom;
pos = (300,0);
},
{
name = top;
pos = (300,620);
}
);
layerId = "D8CC3DFA-F3EA-4C7D-84FB-05FCEA5C6558";
shapes = (
{
closed = 1;
nodes = (
(133,620,o),
(81,568,o),
(82,500,cs),
(82,120,ls),
(81,52,o),
(133,0,o),
(201,0,cs),
(399,0,ls),
(467,0,o),
(519,52,o),
(518,120,cs),
(518,270,ls),
(519,338,o),
(467,390,o),
(399,390,cs),
(253,390,l),
(253,360,l),
(399,360,ls),
(450,360,o),
(489,321,o),
(488,270,cs),
(488,120,ls),
(489,69,o),
(450,30,o),
(399,30,cs),
(201,30,ls),
(150,30,o),
(111,69,o),
(112,120,cs),
(112,500,ls),
(111,551,o),
(150,590,o),
(201,590,cs),
(478,590,l),
(478,620,l),
(201,620,ls)
);
}
);
width = 600;
}
);
unicode = 71;
},
{
glyphname = Gstroke;
lastChange = "2025-08-03 15:41:06 +0000";
layers = (
{
layerId = m01;
shapes = (
{
pos = (-19,0);
ref = G;
},
{
closed = 1;
nodes = (
(317,153,l),
(537,153,l),
(537,213,l),
(317,213,l)
);
}
);
width = 600;
},
{
layerId = "BDCBA76E-5474-4BD3-A1CC-9641C626CFE7";
shapes = (
{
pos = (-14,0);
ref = G;
},
{
closed = 1;
nodes = (
(312,147,l),
(532,147,l),
(532,237,l),
(312,237,l)
);
}
);
width = 600;
},
{
layerId = "D8CC3DFA-F3EA-4C7D-84FB-05FCEA5C6558";
shapes = (
{
pos = (-14,0);
ref = G;
},
{
closed = 1;
nodes = (
(312,167,l),
(532,167,l),
(532,197,l),
(312,197,l)
);
}
);
width = 600;
}
);
unicode = 484;
},
{
color = 4;
glyphname = H;
lastChange = "2025-08-02 18:24:52 +0000";
layers = (
{
anchors = (
{
name = bottom;
pos = (300,0);
},
{
name = center;
pos = (300,465);
},
{
name = top;
pos = (300,620);
},
{
name = topleft;
pos = (20,620);
}
);
layerId = m01;
shapes = (
{
closed = 1;
nodes = (
(82,0,l),
(142,0,l),
(142,620,l),
(82,620,l)
);
},
{
closed = 1;
nodes = (
(458,0,l),
(518,0,l),
(518,620,l),
(458,620,l)
);
},
{
closed = 1;
nodes = (
(114,330,l),
(489,330,l),
(489,390,l),
(114,390,l)
);
}
);
width = 600;
},
{
anchors = (
{
name = bottom;
pos = (300,0);
},
{
name = center;
pos = (300,465);
},
{
name = top;
pos = (300,620);
},
{
name = topleft;
pos = (20,620);
}
);
layerId = "BDCBA76E-5474-4BD3-A1CC-9641C626CFE7";
shapes = (
{
closed = 1;
nodes = (
(82,0,l),
(172,0,l),
(172,620,l),
(82,620,l)
);
},
{
closed = 1;
nodes = (
(428,0,l),
(518,0,l),
(518,620,l),
(428,620,l)
);
},
{
closed = 1;
nodes = (
(114,300,l),
(489,300,l),
(489,390,l),
(114,390,l)
);
}
);
width = 600;
},
{
anchors = (
{
name = bottom;
pos = (300,0);
},
{
name = center;
pos = (300,465);
},
{
name = top;
pos = (300,620);
},
{
name = topleft;
pos = (20,620);
}
);
layerId = "D8CC3DFA-F3EA-4C7D-84FB-05FCEA5C6558";
shapes = (
{
closed = 1;
nodes = (
(82,0,l),
(112,0,l),
(112,620,l),
(82,620,l)
);
},
{
closed = 1;
nodes = (
(488,0,l),
(518,0,l),
(518,620,l),
(488,620,l)
);
},
{
closed = 1;
nodes = (
(97,360,l),
(502,360,l),
(502,390,l),
(97,390,l)
);
}
);
width = 600;
}
);
unicode = 72;
},
{
glyphname = Hbar;
lastChange = "2025-08-03 15:41:58 +0000";
layers = (
{
layerId = m01;
shapes = (
{
ref = H;
},
{
closed = 1;
nodes = (
(50,461,l),
(550,461,l),
(550,516,l),
(50,516,l)
);
}
);
width = 600;
},
{
layerId = "BDCBA76E-5474-4BD3-A1CC-9641C626CFE7";
shapes = (
{
ref = H;
},
{
closed = 1;
nodes = (
(50,451,l),
(550,451,l),
(550,541,l),
(50,541,l)
);
}
);
width = 600;
},
{
layerId = "D8CC3DFA-F3EA-4C7D-84FB-05FCEA5C6558";
shapes = (
{
ref = H;
},
{
closed = 1;
nodes = (
(50,472,l),
(550,472,l),
(550,502,l),
(50,502,l)
);
}
);
width = 600;
}
);
unicode = 294;
},
{
glyphname = Hhook;
lastChange = "2025-08-03 15:42:41 +0000";
layers = (
{
anchors = (
{
name = bottom;
pos = (295,0);
},
{
name = center;
pos = (295,465);
},
{
name = top;
pos = (295,620);
},
{
name = topleft;
pos = (47,620);
}
);
layerId = m01;
shapes = (
{
closed = 1;
nodes = (
(175,0,l),
(235,0,l),
(235,620,l),
(175,620,l)
);
},
{
closed = 1;
nodes = (
(491,0,l),
(551,0,l),
(551,620,l),
(491,620,l)
);
},
{
closed = 1;
nodes = (
(220,330,l),
(505,330,l),
(505,390,l),
(220,390,l)
);
},
{
alignment = -1;
pos = (-360,0);
ref = _part.hook;
}
);
width = 600;
},
{
anchors = (
{
name = bottom;
pos = (295,0);
},
{
name = center;
pos = (295,465);
},
{
name = top;
pos = (295,620);
},
{
name = topleft;
pos = (47,620);
}
);
layerId = "BDCBA76E-5474-4BD3-A1CC-9641C626CFE7";
shapes = (
{
closed = 1;
nodes = (
(190,0,l),
(280,0,l),
(280,620,l),
(190,620,l)
);
},
{
closed = 1;
nodes = (
(476,0,l),
(566,0,l),
(566,620,l),
(476,620,l)
);
},
{
closed = 1;
nodes = (
(235,300,l),
(520,300,l),
(520,390,l),
(235,390,l)
);
},
{
alignment = -1;
pos = (-345,0);
ref = _part.hook;
}
);
width = 600;
},
{
anchors = (
{
name = bottom;
pos = (295,0);
},
{
name = center;
pos = (295,465);
},
{
name = top;
pos = (295,620);
},
{
name = topleft;
pos = (47,620);
}
);
layerId = "D8CC3DFA-F3EA-4C7D-84FB-05FCEA5C6558";
shapes = (
{
closed = 1;
nodes = (
(175,0,l),
(205,0,l),
(205,620,l),
(175,620,l)
);
},
{
closed = 1;
nodes = (
(521,0,l),
(551,0,l),
(551,620,l),
(521,620,l)
);
},
{
closed = 1;
nodes = (
(190,328,l),
(535,328,l),
(535,358,l),
(190,358,l)
);
},
{
alignment = -1;
pos = (-360,0);
ref = _part.hook;
}
);
width = 600;
}
);
unicode = 42922;
},
{
glyphname = Hturned;
lastChange = "2025-08-10 18:44:22 +0000";
layers = (
{
layerId = m01;
shapes = (
{
closed = 1;
nodes = (
(82,330,l),
(472,330,l),
(472,390,l),
(97,390,l),
(142,345,l),
(142,620,l),
(82,620,l)
);
},
{
closed = 1;
nodes = (
(458,0,l),
(518,0,l),
(518,620,l),
(458,620,l)
);
}
);
width = 600;
},
{
layerId = "BDCBA76E-5474-4BD3-A1CC-9641C626CFE7";
shapes = (
{
closed = 1;
nodes = (
(82,300,l),
(472,300,l),
(472,390,l),
(127,390,l),
(172,345,l),
(172,620,l),
(82,620,l)
);
},
{
closed = 1;
nodes = (
(428,0,l),
(518,0,l),
(518,620,l),
(428,620,l)
);
}
);
width = 600;
},
{
layerId = "D8CC3DFA-F3EA-4C7D-84FB-05FCEA5C6558";
shapes = (
{
closed = 1;
nodes = (
(82,330,l),
(502,330,l),
(502,360,l),
(96,360,l),
(112,340,l),
(112,620,l),
(82,620,l)
);
},
{
closed = 1;
nodes = (
(488,0,l),
(518,0,l),
(518,620,l),
(488,620,l)
);
}
);
width = 600;
}
);
unicode = 42893;
},
{
color = 4;
glyphname = I;
lastChange = "2025-08-02 18:24:57 +0000";
layers = (
{
anchors = (
{
name = bottom;
pos = (300,0);
},
{
name = ogonek;
pos = (540,10);
},
{
name = top;
pos = (300,620);
},
{
name = topleft;
pos = (20,620);
}
);
layerId = m01;
shapes = (
{
closed = 1;
nodes = (
(518,620,l),
(82,620,l),
(82,560,l),
(518,560,l)
);
},
{
closed = 1;
nodes = (
(82,60,l),
(82,0,l),
(518,0,l),
(518,60,l)
);
},
{
closed = 1;
nodes = (
(270,592,l),
(270,27,l),
(330,27,l),
(330,592,l)
);
}
);
width = 600;
},
{
anchors = (
{
name = bottom;
pos = (300,0);
},
{
name = ogonek;
pos = (540,10);
},
{
name = top;
pos = (300,620);
},
{
name = topleft;
pos = (20,620);
}
);
layerId = "BDCBA76E-5474-4BD3-A1CC-9641C626CFE7";
shapes = (
{
closed = 1;
nodes = (
(518,620,l),
(82,620,l),
(82,530,l),
(518,530,l)
);
},
{
closed = 1;
nodes = (
(82,90,l),
(82,0,l),
(518,0,l),
(518,90,l)
);
},
{
closed = 1;
nodes = (
(255,576,l),
(255,48,l),
(345,48,l),
(345,576,l)
);
}
);
width = 600;
},
{
anchors = (
{
name = bottom;
pos = (300,0);
},
{
name = ogonek;
pos = (540,10);
},
{
name = top;
pos = (300,620);
},
{
name = topleft;
pos = (20,620);
}
);
layerId = "D8CC3DFA-F3EA-4C7D-84FB-05FCEA5C6558";
shapes = (
{
closed = 1;
nodes = (
(518,620,l),
(82,620,l),
(82,590,l),
(518,590,l)
);
},
{
closed = 1;
nodes = (
(82,30,l),
(82,0,l),
(518,0,l),
(518,30,l)
);
},
{
closed = 1;
nodes = (
(285,605,l),
(285,13,l),
(315,13,l),
(315,605,l)
);
}
);
width = 600;
}
);
unicode = 73;
},
{
glyphname = IJ;
lastChange = "2025-08-03 15:43:57 +0000";
layers = (
{
layerId = m01;
shapes = (
{
closed = 1;
nodes = (
(278,120,ls),
(277,52,o),
(329,0,o),
(397,0,cs),
(419,0,ls),
(487,0,o),
(539,52,o),
(538,120,cs),
(538,620,l),
(478,620,l),
(478,120,ls),
(479,86,o),
(453,60,o),
(419,60,cs),
(397,60,ls),
(363,60,o),
(337,86,o),
(338,120,cs),
(338,240,l),
(278,240,l)
);
},
{
closed = 1;
nodes = (
(278,560,l),
(278,620,l),
(62,620,l),
(62,560,l)
);
},
{
closed = 1;
nodes = (
(200,30,l),
(200,590,l),
(140,590,l),
(140,30,l)
);
},
{
closed = 1;
nodes = (
(62,60,l),
(62,0,l),
(268,0,l),
(268,60,l)
);
}
);
width = 600;
},
{
layerId = "BDCBA76E-5474-4BD3-A1CC-9641C626CFE7";
shapes = (
{
closed = 1;
nodes = (
(278,120,ls),
(277,52,o),
(329,0,o),
(397,0,cs),
(419,0,ls),
(487,0,o),
(539,52,o),
(538,120,cs),
(538,620,l),
(448,620,l),
(448,120,ls),
(448,103,o),
(435,90,o),
(418,90,cs),
(398,90,ls),
(381,90,o),
(368,103,o),
(368,120,cs),
(368,240,l),
(278,240,l)
);
},
{
closed = 1;
nodes = (
(278,530,l),
(278,620,l),
(62,620,l),
(62,530,l)
);
},
{
closed = 1;
nodes = (
(215,35,l),
(215,575,l),
(125,575,l),
(125,35,l)
);
},
{
closed = 1;
nodes = (
(62,90,l),
(62,0,l),
(258,0,l),
(258,90,l)
);
}
);
width = 600;
},
{
layerId = "D8CC3DFA-F3EA-4C7D-84FB-05FCEA5C6558";
shapes = (
{
closed = 1;
nodes = (
(278,120,ls),
(277,52,o),
(329,0,o),
(397,0,cs),
(419,0,ls),
(487,0,o),
(539,52,o),
(538,120,cs),
(538,620,l),
(508,620,l),
(508,120,ls),
(509,69,o),
(470,30,o),
(419,30,cs),
(397,30,ls),
(346,30,o),
(307,69,o),
(308,120,cs),
(308,240,l),
(278,240,l)
);
},
{
closed = 1;
nodes = (
(278,590,l),
(278,620,l),
(62,620,l),
(62,590,l)
);
},
{
closed = 1;
nodes = (
(185,15,l),
(185,605,l),
(155,605,l),
(155,15,l)
);
},
{
closed = 1;
nodes = (
(62,30,l),
(62,0,l),
(268,0,l),
(268,30,l)
);
}
);
width = 600;
}
);
unicode = 306;
},
{
glyphname = Iogonek;
lastChange = "2025-08-03 15:44:29 +0000";
layers = (
{
layerId = m01;
shapes = (
{
closed = 1;
nodes = (
(518,-161,l),
(470,-161,o),
(452,-147,o),
(452,-120,cs),
(452,-84,o),
(518,-53,o),
(518,0,cs),
(518,60,l),
(82,60,l),
(82,0,l),
(458,0,l),
(458,-11,o),
(392,-63,o),
(392,-120,cs),
(392,-184,o),
(441,-221,o),
(518,-221,c)
);
},
{
closed = 1;
nodes = (
(330,27,l),
(330,592,l),
(270,592,l),
(270,27,l)
);
},
{
closed = 1;
nodes = (
(518,560,l),
(518,620,l),
(82,620,l),
(82,560,l)
);
}
);
width = 600;
},
{
layerId = "BDCBA76E-5474-4BD3-A1CC-9641C626CFE7";
shapes = (
{
closed = 1;
nodes = (
(503,-146,l),
(464,-146,o),
(452,-137,o),
(452,-120,cs),
(452,-93,o),
(518,-59,o),
(518,0,cs),
(518,90,l),
(82,90,l),
(82,0,l),
(428,0,l),
(428,-3,o),
(362,-60,o),
(362,-120,cs),
(362,-185,o),
(408,-236,o),
(503,-236,c)
);
},
{
closed = 1;
nodes = (
(345,48,l),
(345,576,l),
(255,576,l),
(255,48,l)
);
},
{
closed = 1;
nodes = (
(518,530,l),
(518,620,l),
(82,620,l),
(82,530,l)
);
}
);
width = 600;
},
{
layerId = "D8CC3DFA-F3EA-4C7D-84FB-05FCEA5C6558";
shapes = (
{
closed = 1;
nodes = (
(514,-176,l),
(459,-176,o),
(433,-156,o),
(433,-120,cs),
(433,-75,o),
(499,-47,o),
(499,0,cs),
(499,30,l),
(82,30,l),
(82,0,l),
(469,0,l),
(469,-27,o),
(403,-63,o),
(403,-120,cs),
(403,-176,o),
(445,-206,o),
(514,-206,c)
);
},
{
closed = 1;
nodes = (
(315,13,l),
(315,605,l),
(285,605,l),
(285,13,l)
);
},
{
closed = 1;
nodes = (
(518,590,l),
(518,620,l),
(82,620,l),
(82,590,l)
);
}
);
width = 600;
}
);
unicode = 302;
},
{
glyphname = "Iota-latin";
lastChange = "2025-08-03 15:45:06 +0000";
layers = (
{
anchors = (
{
name = bottom;
pos = (300,0);
},
{
name = top;
pos = (300,620);
}
);
layerId = m01;
shapes = (
{
alignment = -1;
angle = 90;
pos = (1011,-535);
ref = _part.hook;
},
{
closed = 1;
nodes = (
(451,560,l),
(451,620,l),
(55,620,l),
(55,560,l)
);
},
{
closed = 1;
nodes = (
(283,30,l),
(283,590,l),
(223,590,l),
(223,30,l)
);
},
{
closed = 1;
nodes = (
(55,60,l),
(55,0,l),
(451,0,l),
(451,60,l)
);
}
);
width = 600;
},
{
anchors = (
{
name = bottom;
pos = (300,0);
},
{
name = top;
pos = (300,620);
}
);
layerId = "BDCBA76E-5474-4BD3-A1CC-9641C626CFE7";
shapes = (
{
alignment = -1;
angle = 90;
pos = (1011,-535);
ref = _part.hook;
},
{
closed = 1;
nodes = (
(481,530,l),
(481,620,l),
(55,620,l),
(55,530,l)
);
},
{
closed = 1;
nodes = (
(313,40,l),
(313,575,l),
(223,575,l),
(223,40,l)
);
},
{
closed = 1;
nodes = (
(55,90,l),
(55,0,l),
(481,0,l),
(481,90,l)
);
}
);
width = 600;
},
{
anchors = (
{
name = bottom;
pos = (300,0);
},
{
name = top;
pos = (300,620);
}
);
layerId = "D8CC3DFA-F3EA-4C7D-84FB-05FCEA5C6558";
shapes = (
{
alignment = -1;
angle = 90;
pos = (1011,-535);
ref = _part.hook;
},
{
closed = 1;
nodes = (
(451,590,l),
(451,620,l),
(55,620,l),
(55,590,l)
);
},
{
closed = 1;
nodes = (
(268,15,l),
(268,605,l),
(238,605,l),
(238,15,l)
);
},
{
closed = 1;
nodes = (
(55,30,l),
(55,0,l),
(421,0,l),
(421,30,l)
);
}
);
width = 600;
}
);
unicode = 406;
},
{
glyphname = Istroke;
lastChange = "2025-08-03 15:45:46 +0000";
layers = (
{
layerId = m01;
shapes = (
{
ref = I;
},
{
closed = 1;
nodes = (
(122,280,l),
(478,280,l),
(478,340,l),
(122,340,l)
);
}
);
width = 600;
},
{
layerId = "BDCBA76E-5474-4BD3-A1CC-9641C626CFE7";
shapes = (
{
ref = I;
},
{
closed = 1;
nodes = (
(122,265,l),
(478,265,l),
(478,355,l),
(122,355,l)
);
}
);
width = 600;
},
{
layerId = "D8CC3DFA-F3EA-4C7D-84FB-05FCEA5C6558";
shapes = (
{
ref = I;
},
{
closed = 1;
nodes = (
(122,295,l),
(478,295,l),
(478,325,l),
(122,325,l)
);
}
);
width = 600;
}
);
unicode = 407;
},
{
color = 4;
glyphname = J;
lastChange = "2025-08-02 18:25:08 +0000";
layers = (
{
anchors = (
{
name = bottom;
pos = (300,0);
},
{
name = top;
pos = (300,620);
}
);
layerId = m01;
shapes = (
{
closed = 1;
nodes = (
(82,240,l),
(82,120,ls),
(81,52,o),
(133,0,o),
(201,0,cs),
(399,0,ls),
(467,0,o),
(519,52,o),
(518,120,cs),
(518,620,l),
(458,620,l),
(458,120,ls),
(459,86,o),
(433,60,o),
(399,60,cs),
(201,60,ls),
(167,60,o),
(141,86,o),
(142,120,cs),
(142,240,l)
);
}
);
width = 600;
},
{
anchors = (
{
name = bottom;
pos = (300,0);
},
{
name = top;
pos = (300,620);
}
);
layerId = "BDCBA76E-5474-4BD3-A1CC-9641C626CFE7";
shapes = (
{
closed = 1;
nodes = (
(62,240,l),
(62,119,ls),
(62,51,o),
(114,-1,o),
(182,0,cs),
(378,0,ls),
(446,-1,o),
(498,51,o),
(498,119,cs),
(498,620,l),
(408,620,l),
(408,120,ls),
(408,103,o),
(395,90,o),
(378,90,cs),
(182,90,ls),
(165,90,o),
(152,103,o),
(152,120,cs),
(152,240,l)
);
}
);
width = 600;
},
{
anchors = (
{
name = bottom;
pos = (300,0);
},
{
name = top;
pos = (300,620);
}
);
layerId = "D8CC3DFA-F3EA-4C7D-84FB-05FCEA5C6558";
shapes = (
{
closed = 1;
nodes = (
(82,240,l),
(82,120,ls),
(81,52,o),
(133,0,o),
(201,0,cs),
(399,0,ls),
(467,0,o),
(519,52,o),
(518,120,cs),
(518,620,l),
(488,620,l),
(488,120,ls),
(489,69,o),
(450,30,o),
(399,30,cs),
(201,30,ls),
(150,30,o),
(111,69,o),
(112,120,cs),
(112,240,l)
);
}
);
width = 600;
}
);
unicode = 74;
},
{
color = 4;
glyphname = K;
lastChange = "2025-08-10 16:15:40 +0000";
layers = (
{
anchors = (
{
name = bottom;
pos = (300,0);
},
{
name = top;
pos = (300,620);
}
);
layerId = m01;
shapes = (
{
closed = 1;
nodes = (
(91,0,l),
(151,0,l),
(151,620,l),
(91,620,l)
);
},
{
closed = 1;
nodes = (
(265,332,l),
(478,0,l),
(550,0,l),
(302,393,l)
);
},
{
closed = 1;
nodes = (
(507,620,l),
(435,620,l),
(120,232,l),
(119,123,l)
);
}
);
width = 600;
},
{
anchors = (
{
name = bottom;
pos = (300,0);
},
{
name = top;
pos = (300,620);
}
);
layerId = "BDCBA76E-5474-4BD3-A1CC-9641C626CFE7";
shapes = (
{
closed = 1;
nodes = (
(90,0,l),
(180,0,l),
(180,620,l),
(90,620,l)
);
},
{
closed = 1;
nodes = (
(231,332,l),
(443,0,l),
(550,0,l),
(299,393,l)
);
},
{
closed = 1;
nodes = (
(516,620,l),
(402,620,l),
(111,236,l),
(138,123,l)
);
}
);
width = 600;
},
{
anchors = (
{
name = bottom;
pos = (300,0);
},
{
name = top;
pos = (300,620);
}
);
layerId = "D8CC3DFA-F3EA-4C7D-84FB-05FCEA5C6558";
shapes = (
{
closed = 1;
nodes = (
(91,0,l),
(121,0,l),
(121,620,l),
(91,620,l)
);
},
{
closed = 1;
nodes = (
(285,363,l),
(515,0,l),
(550,0,l),
(302,393,l)
);
},
{
closed = 1;
nodes = (
(507,620,l),
(469,620,l),
(105,154,l),
(105,105,l)
);
}
);
width = 600;
}
);
unicode = 75;
},
{
glyphname = Khook;
lastChange = "2025-08-03 15:48:10 +0000";
layers = (
{
anchors = (
{
name = bottom;
pos = (300,0);
},
{
name = top;
pos = (300,620);
}
);
layerId = m01;
shapes = (
{
closed = 1;
nodes = (
(60,0,l),
(120,0,l),
(120,620,l),
(60,620,l)
);
},
{
closed = 1;
nodes = (
(234,332,l),
(447,0,l),
(519,0,l),
(271,393,l)
);
},
{
closed = 1;
nodes = (
(476,620,l),
(416,620,l),
(101,232,l),
(88,123,l)
);
},
{
alignment = -1;
pos = (6,154);
ref = _part.hook;
}
);
width = 600;
},
{
anchors = (
{
name = bottom;
pos = (300,0);
},
{
name = top;
pos = (300,620);
}
);
layerId = "BDCBA76E-5474-4BD3-A1CC-9641C626CFE7";
shapes = (
{
closed = 1;
nodes = (
(60,0,l),
(150,0,l),
(150,620,l),
(60,620,l)
);
},
{
closed = 1;
nodes = (
(232,332,l),
(445,0,l),
(549,0,l),
(293,405,l)
);
},
{
closed = 1;
nodes = (
(476,620,l),
(386,620,l),
(76,224,l),
(87,123,l)
);
},
{
alignment = -1;
pos = (6,154);
ref = _part.hook;
}
);
width = 600;
},
{
anchors = (
{
name = bottom;
pos = (268,0);
},
{
name = top;
pos = (268,620);
}
);
layerId = "D8CC3DFA-F3EA-4C7D-84FB-05FCEA5C6558";
shapes = (
{
closed = 1;
nodes = (
(45,0,l),
(75,0,l),
(75,620,l),
(45,620,l)
);
},
{
closed = 1;
nodes = (
(241,356,l),
(469,0,l),
(504,0,l),
(256,393,l)
);
},
{
closed = 1;
nodes = (
(461,620,l),
(431,620,l),
(64,157,l),
(64,118,l)
);
},
{
alignment = -1;
pos = (21,154);
ref = _part.hook;
}
);
width = 600;
}
);
unicode = 408;
},
{
color = 4;
glyphname = L;
lastChange = "2025-08-02 18:25:18 +0000";
layers = (
{
anchors = (
{
name = bottom;
pos = (300,0);
},
{
name = center;
pos = (300,310);
},
{
name = top;
pos = (300,620);
},
{
name = topright;
pos = (580,620);
}
);
layerId = m01;
shapes = (
{
closed = 1;
nodes = (
(82,620,l),
(82,0,l),
(518,0,l),
(518,60,l),
(111,60,l),
(142,31,l),
(142,620,l)
);
}
);
width = 600;
},
{
anchors = (
{
name = bottom;
pos = (300,0);
},
{
name = center;
pos = (300,310);
},
{
name = top;
pos = (300,620);
},
{
name = topright;
pos = (580,620);
}
);
layerId = "BDCBA76E-5474-4BD3-A1CC-9641C626CFE7";
shapes = (
{
closed = 1;
nodes = (
(82,620,l),
(82,0,l),
(518,0,l),
(518,90,l),
(111,90,l),
(172,31,l),
(172,620,l)
);
}
);
width = 600;
},
{
anchors = (
{
name = bottom;
pos = (300,0);
},
{
name = center;
pos = (300,310);
},
{
name = top;
pos = (300,620);
},
{
name = topright;
pos = (580,620);
}
);
layerId = "D8CC3DFA-F3EA-4C7D-84FB-05FCEA5C6558";
shapes = (
{
closed = 1;
nodes = (
(82,620,l),
(82,0,l),
(518,0,l),
(518,30,l),
(96,30,l),
(112,12,l),
(112,620,l)
);
}
);
width = 600;
}
);
unicode = 76;
},
{
glyphname = Lslash;
lastChange = "2025-08-03 15:49:27 +0000";
layers = (
{
layerId = m01;
shapes = (
{
closed = 1;
nodes = (
(142,620,l),
(142,0,l),
(528,0,l),
(528,60,l),
(175,60,l),
(202,31,l),
(202,620,l)
);
},
{
closed = 1;
nodes = (
(102,283,l),
(318,408,l),
(288,460,l),
(72,335,l)
);
}
);
width = 600;
},
{
layerId = "BDCBA76E-5474-4BD3-A1CC-9641C626CFE7";
shapes = (
{
closed = 1;
nodes = (
(146,620,l),
(146,0,l),
(532,0,l),
(532,90,l),
(179,90,l),
(236,31,l),
(236,620,l)
);
},
{
closed = 1;
nodes = (
(113,270,l),
(330,395,l),
(285,473,l),
(68,348,l)
);
}
);
width = 600;
},
{
layerId = "D8CC3DFA-F3EA-4C7D-84FB-05FCEA5C6558";
shapes = (
{
closed = 1;
nodes = (
(139,620,l),
(139,0,l),
(525,0,l),
(525,30,l),
(155,30,l),
(169,11,l),
(169,620,l)
);
},
{
closed = 1;
nodes = (
(90,294,l),
(307,419,l),
(292,445,l),
(76,320,l)
);
}
);
width = 600;
}
);
unicode = 321;
},
{
color = 4;
glyphname = M;
lastChange = "2025-08-02 18:25:23 +0000";
layers = (
{
anchors = (
{
name = bottom;
pos = (300,0);
},
{
name = top;
pos = (300,620);
}
);
guides = (
{
pos = (-199,630);
}
);
layerId = m01;
shapes = (
{
closed = 1;
nodes = (
(122,0,l),
(122,588,l),
(91,588,l),
(266,237,l),
(334,237,l),
(512,594,l),
(478,594,l),
(478,0,l),
(538,0,l),
(538,620,l),
(458,620,l),
(279,261,l),
(321,261,l),
(142,620,l),
(62,620,l),
(62,0,l)
);
}
);
width = 600;
},
{
anchors = (
{
name = bottom;
pos = (300,0);
},
{
name = top;
pos = (300,620);
}
);
guides = (
{
pos = (-199,630);
}
);
layerId = "BDCBA76E-5474-4BD3-A1CC-9641C626CFE7";
shapes = (
{
closed = 1;
nodes = (
(350,270,l),
(511,594,l),
(448,594,l),
(448,0,l),
(538,0,l),
(538,620,l),
(424,620,l),
(264,299,l),
(336,299,l),
(176,620,l),
(62,620,l),
(62,0,l),
(152,0,l),
(152,588,l),
(91,588,l),
(249,270,l)
);
}
);
width = 600;
},
{
anchors = (
{
name = bottom;
pos = (300,0);
},
{
name = top;
pos = (300,620);
}
);
guides = (
{
pos = (-199,630);
}
);
layerId = "D8CC3DFA-F3EA-4C7D-84FB-05FCEA5C6558";
shapes = (
{
closed = 1;
nodes = (
(92,0,l),
(92,611,l),
(83,610,l),
(286,203,l),
(317,203,l),
(521,613,l),
(508,613,l),
(508,0,l),
(538,0,l),
(538,620,l),
(494,620,l),
(292,222,l),
(310,222,l),
(109,620,l),
(62,620,l),
(62,0,l)
);
}
);
width = 600;
}
);
unicode = 77;
},
{
color = 4;
glyphname = N;
lastChange = "2025-08-02 18:25:28 +0000";
layers = (
{
anchors = (
{
name = bottom;
pos = (300,0);
},
{
name = top;
pos = (300,620);
}
);
layerId = m01;
shapes = (
{
closed = 1;
nodes = (
(518,0,l),
(518,620,l),
(458,620,l),
(458,20,l),
(478,20,l),
(177,620,l),
(86,620,l),
(82,0,l),
(142,0,l),
(146,589,l),
(126,589,l),
(421,0,l)
);
}
);
width = 600;
},
{
anchors = (
{
name = bottom;
pos = (300,0);
},
{
name = top;
pos = (300,620);
}
);
layerId = "BDCBA76E-5474-4BD3-A1CC-9641C626CFE7";
shapes = (
{
closed = 1;
nodes = (
(518,0,l),
(518,620,l),
(428,620,l),
(428,56,l),
(485,56,l),
(202,620,l),
(86,620,l),
(82,0,l),
(172,0,l),
(176,562,l),
(131,562,l),
(412,0,l)
);
}
);
width = 600;
},
{
anchors = (
{
name = bottom;
pos = (300,0);
},
{
name = top;
pos = (300,620);
}
);
layerId = "D8CC3DFA-F3EA-4C7D-84FB-05FCEA5C6558";
shapes = (
{
closed = 1;
nodes = (
(518,0,l),
(518,620,l),
(488,620,l),
(488,21,l),
(501,21,l),
(127,620,l),
(86,620,l),
(82,0,l),
(112,0,l),
(115,607,l),
(99,607,l),
(478,0,l)
);
}
);
width = 600;
}
);
unicode = 78;
},
{
glyphname = Nhookleft;
lastChange = "2025-08-03 15:50:27 +0000";
layers = (
{
anchors = (
{
name = bottom;
pos = (300,0);
},
{
name = top;
pos = (300,620);
}
);
layerId = m01;
shapes = (
{
closed = 1;
nodes = (
(258,620,l),
(194,620,l),
(465,0,l),
(529,0,l)
);
},
{
closed = 1;
nodes = (
(167,620,l),
(163,0,l),
(223,0,l),
(223,620,l)
);
},
{
closed = 1;
nodes = (
(559,0,l),
(559,620,l),
(499,620,l),
(499,0,l)
);
},
{
alignment = -1;
pos = (-368,0);
ref = _part.hook;
}
);
width = 600;
},
{
anchors = (
{
name = bottom;
pos = (300,0);
},
{
name = top;
pos = (300,620);
}
);
layerId = "BDCBA76E-5474-4BD3-A1CC-9641C626CFE7";
shapes = (
{
closed = 1;
nodes = (
(287,620,l),
(189,620,l),
(460,0,l),
(558,0,l)
);
},
{
closed = 1;
nodes = (
(182,620,l),
(178,0,l),
(269,0,l),
(269,620,l)
);
},
{
closed = 1;
nodes = (
(574,0,l),
(574,620,l),
(484,620,l),
(484,0,l)
);
},
{
alignment = -1;
pos = (-353,0);
ref = _part.hook;
}
);
width = 600;
},
{
anchors = (
{
name = bottom;
pos = (300,0);
},
{
name = top;
pos = (300,620);
}
);
layerId = "D8CC3DFA-F3EA-4C7D-84FB-05FCEA5C6558";
shapes = (
{
closed = 1;
nodes = (
(209,620,l),
(175,619,l),
(516,0,l),
(550,0,l)
);
},
{
closed = 1;
nodes = (
(167,620,l),
(163,0,l),
(193,0,l),
(197,620,l)
);
},
{
closed = 1;
nodes = (
(559,0,l),
(559,620,l),
(529,620,l),
(529,0,l)
);
},
{
alignment = -1;
pos = (-368,0);
ref = _part.hook;
}
);
width = 600;
}
);
unicode = 413;
},
{
glyphname = Eng;
lastChange = "2025-08-03 15:51:04 +0000";
layers = (
{
anchors = (
{
name = bottom;
pos = (300,-200);
},
{
name = top;
pos = (300,620);
}
);
layerId = m01;
shapes = (
{
closed = 1;
nodes = (
(157,620,l),
(93,620,l),
(384,0,l),
(444,0,l)
);
},
{
closed = 1;
nodes = (
(66,620,l),
(62,0,l),
(122,0,l),
(122,620,l)
);
},
{
closed = 1;
nodes = (
(444,0,l),
(444,620,l),
(384,620,l),
(384,0,l)
);
},
{
alignment = -1;
angle = 90;
pos = (1004,-535);
ref = _part.hook;
}
);
width = 600;
},
{
anchors = (
{
name = bottom;
pos = (300,-200);
},
{
name = top;
pos = (300,620);
}
);
layerId = "BDCBA76E-5474-4BD3-A1CC-9641C626CFE7";
shapes = (
{
closed = 1;
nodes = (
(179,620,l),
(77,620,l),
(378,0,l),
(466,0,l)
);
},
{
closed = 1;
nodes = (
(74,620,l),
(70,0,l),
(161,0,l),
(161,620,l)
);
},
{
closed = 1;
nodes = (
(467,0,l),
(467,620,l),
(377,620,l),
(377,0,l)
);
},
{
alignment = -1;
angle = 90;
pos = (997,-535);
ref = _part.hook;
}
);
width = 600;
},
{
anchors = (
{
name = bottom;
pos = (300,-200);
},
{
name = top;
pos = (300,620);
}
);
layerId = "D8CC3DFA-F3EA-4C7D-84FB-05FCEA5C6558";
shapes = (
{
closed = 1;
nodes = (
(104,620,l),
(70,620,l),
(384,0,l),
(414,0,l)
);
},
{
closed = 1;
nodes = (
(66,620,l),
(62,0,l),
(93,0,l),
(93,620,l)
);
},
{
closed = 1;
nodes = (
(414,0,l),
(414,620,l),
(384,620,l),
(384,0,l)
);
},
{
alignment = -1;
angle = 90;
pos = (1004,-535);
ref = _part.hook;
}
);
width = 600;
}
);
unicode = 330;
},
{
color = 4;
glyphname = O;
lastChange = "2025-08-03 15:55:51 +0000";
layers = (
{
anchors = (
{
name = bottom;
pos = (300,0);
},
{
name = center;
pos = (300,310);
},
{
name = ogonek;
pos = (540,10);
},
{
name = top;
pos = (300,620);
},
{
name = topleft;
pos = (20,620);
},
{
name = topright;
pos = (580,620);
}
);
layerId = m01;
shapes = (
{
closed = 1;
nodes = (
(399,0,ls),
(467,0,o),
(519,52,o),
(518,120,cs),
(518,500,ls),
(519,568,o),
(467,620,o),
(399,620,cs),
(201,620,ls),
(133,620,o),
(81,568,o),
(82,500,cs),
(82,120,ls),
(81,52,o),
(133,0,o),
(201,0,cs)
);
},
{
closed = 1;
nodes = (
(167,60,o),
(141,86,o),
(142,120,cs),
(142,500,ls),
(141,534,o),
(167,560,o),
(201,560,cs),
(399,560,ls),
(433,560,o),
(459,534,o),
(458,500,cs),
(458,120,ls),
(459,86,o),
(433,60,o),
(399,60,cs),
(201,60,ls)
);
}
);
width = 600;
},
{
anchors = (
{
name = bottom;
pos = (300,0);
},
{
name = center;
pos = (300,310);
},
{
name = ogonek;
pos = (540,10);
},
{
name = top;
pos = (300,620);
},
{
name = topleft;
pos = (20,620);
},
{
name = topright;
pos = (580,620);
}
);
layerId = "BDCBA76E-5474-4BD3-A1CC-9641C626CFE7";
shapes = (
{
closed = 1;
nodes = (
(399,0,ls),
(467,0,o),
(519,52,o),
(518,120,cs),
(518,500,ls),
(519,568,o),
(467,620,o),
(399,620,cs),
(201,620,ls),
(133,620,o),
(82,568,o),
(82,500,cs),
(82,120,ls),
(82,52,o),
(133,0,o),
(201,0,cs)
);
},
{
closed = 1;
nodes = (
(185,90,o),
(172,103,o),
(172,120,cs),
(172,500,ls),
(172,517,o),
(185,530,o),
(202,530,cs),
(398,530,ls),
(415,530,o),
(428,517,o),
(428,500,cs),
(428,120,ls),
(428,103,o),
(415,90,o),
(398,90,cs),
(202,90,ls)
);
}
);
width = 600;
},
{
anchors = (
{
name = bottom;
pos = (300,0);
},
{
name = center;
pos = (300,310);
},
{
name = ogonek;
pos = (540,10);
},
{
name = top;
pos = (300,620);
},
{
name = topleft;
pos = (20,620);
},
{
name = topright;
pos = (580,620);
}
);
layerId = "D8CC3DFA-F3EA-4C7D-84FB-05FCEA5C6558";
shapes = (
{
closed = 1;
nodes = (
(399,0,ls),
(467,0,o),
(519,52,o),
(518,120,cs),
(518,500,ls),
(519,568,o),
(467,620,o),
(399,620,cs),
(201,620,ls),
(133,620,o),
(81,568,o),
(82,500,c),
(82,120,ls),
(81,52,o),
(133,0,o),
(201,0,cs)
);
},
{
closed = 1;
nodes = (
(150,30,o),
(111,69,o),
(112,120,cs),
(112,500,ls),
(111,551,o),
(150,590,o),
(201,590,cs),
(399,590,ls),
(450,590,o),
(488,551,o),
(488,500,cs),
(488,120,ls),
(488,69,o),
(450,30,o),
(399,30,cs),
(201,30,ls)
);
}
);
width = 600;
}
);
unicode = 79;
},
{
glyphname = Oopen;
lastChange = "2025-08-03 15:58:20 +0000";
layers = (
{
anchors = (
{
name = bottom;
pos = (300,0);
},
{
name = top;
pos = (300,620);
}
);
layerId = m01;
shapes = (
{
closed = 1;
nodes = (
(82,0,l),
(399,0,ls),
(467,0,o),
(519,52,o),
(518,120,cs),
(518,500,ls),
(519,568,o),
(467,620,o),
(399,620,cs),
(82,620,l),
(82,560,l),
(399,560,ls),
(433,560,o),
(459,534,o),
(458,500,cs),
(458,120,ls),
(459,86,o),
(433,60,o),
(399,60,cs),
(82,60,l)
);
}
);
width = 600;
},
{
anchors = (
{
name = bottom;
pos = (300,0);
},
{
name = top;
pos = (300,620);
}
);
layerId = "BDCBA76E-5474-4BD3-A1CC-9641C626CFE7";
shapes = (
{
closed = 1;
nodes = (
(82,0,l),
(398,0,ls),
(466,-1,o),
(518,51,o),
(518,119,cs),
(518,501,ls),
(518,569,o),
(466,621,o),
(398,620,cs),
(82,620,l),
(82,530,l),
(398,530,ls),
(415,530,o),
(428,517,o),
(428,500,cs),
(428,120,ls),
(428,103,o),
(415,90,o),
(398,90,cs),
(82,90,l)
);
}
);
width = 600;
},
{
anchors = (
{
name = bottom;
pos = (300,0);
},
{
name = top;
pos = (300,620);
}
);
layerId = "D8CC3DFA-F3EA-4C7D-84FB-05FCEA5C6558";
shapes = (
{
closed = 1;
nodes = (
(82,0,l),
(399,0,ls),
(467,0,o),
(519,52,o),
(518,120,cs),
(518,500,ls),
(519,568,o),
(467,620,o),
(399,620,cs),
(82,620,l),
(82,590,l),
(399,590,ls),
(450,590,o),
(489,551,o),
(488,500,cs),
(488,120,ls),
(489,69,o),
(450,30,o),
(399,30,cs),
(82,30,l)
);
}
);
width = 600;
}
);
unicode = 390;
},
{
glyphname = Oslash;
lastChange = "2025-08-03 15:59:08 +0000";
layers = (
{
anchors = (
{
name = bottom;
pos = (300,0);
},
{
name = top;
pos = (300,620);
}
);
layerId = m01;
shapes = (
{
pos = (24,0);
ref = O;
},
{
closed = 1;
nodes = (
(58,0,l),
(118,0,l),
(540,620,l),
(480,620,l)
);
}
);
width = 600;
},
{
anchors = (
{
name = bottom;
pos = (300,0);
},
{
name = top;
pos = (300,620);
}
);
layerId = "BDCBA76E-5474-4BD3-A1CC-9641C626CFE7";
shapes = (
{
pos = (25,0);
ref = O;
},
{
closed = 1;
nodes = (
(39,0,l),
(139,0,l),
(561,620,l),
(461,620,l)
);
}
);
width = 600;
},
{
anchors = (
{
name = bottom;
pos = (300,0);
},
{
name = top;
pos = (300,620);
}
);
layerId = "D8CC3DFA-F3EA-4C7D-84FB-05FCEA5C6558";
shapes = (
{
pos = (18,0);
ref = O;
},
{
closed = 1;
nodes = (
(64,0,l),
(100,0,l),
(522,620,l),
(486,620,l)
);
}
);
width = 600;
}
);
unicode = 216;
},
{
glyphname = OE;
lastChange = "2025-08-03 15:59:42 +0000";
layers = (
{
anchors = (
{
name = bottom;
pos = (300,0);
},
{
name = top;
pos = (300,620);
}
);
layerId = m01;
shapes = (
{
closed = 1;
nodes = (
(533,0,l),
(533,60,l),
(338,60,l),
(348,77,o),
(353,99,o),
(353,120,cs),
(353,500,ls),
(353,521,o),
(348,542,o),
(338,560,c),
(533,560,l),
(533,620,l),
(186,620,ls),
(118,620,o),
(66,568,o),
(67,500,cs),
(67,120,ls),
(66,52,o),
(118,0,o),
(186,0,cs)
);
},
{
closed = 1;
nodes = (
(293,120,ls),
(294,86,o),
(268,60,o),
(234,60,cs),
(186,60,ls),
(152,60,o),
(126,86,o),
(127,120,cs),
(127,500,ls),
(126,534,o),
(152,560,o),
(186,560,cs),
(234,560,ls),
(268,560,o),
(294,534,o),
(293,500,cs)
);
},
{
closed = 1;
nodes = (
(487,330,l),
(487,390,l),
(323,390,l),
(323,330,l)
);
}
);
width = 600;
},
{
anchors = (
{
name = bottom;
pos = (300,0);
},
{
name = top;
pos = (300,620);
}
);
layerId = "BDCBA76E-5474-4BD3-A1CC-9641C626CFE7";
shapes = (
{
closed = 1;
nodes = (
(533,0,l),
(533,90,l),
(380,90,l),
(382,99,o),
(383,110,o),
(383,120,cs),
(383,500,ls),
(383,510,o),
(382,521,o),
(380,530,c),
(533,530,l),
(533,620,l),
(187,620,ls),
(119,621,o),
(67,569,o),
(67,501,cs),
(67,119,ls),
(67,51,o),
(119,0,o),
(187,0,cs)
);
},
{
closed = 1;
nodes = (
(293,120,ls),
(293,103,o),
(280,90,o),
(263,90,cs),
(187,90,ls),
(170,90,o),
(157,103,o),
(157,120,cs),
(157,500,ls),
(157,517,o),
(170,530,o),
(187,530,cs),
(263,530,ls),
(280,530,o),
(293,517,o),
(293,500,cs)
);
},
{
closed = 1;
nodes = (
(487,290,l),
(487,380,l),
(338,380,l),
(338,290,l)
);
}
);
width = 600;
},
{
anchors = (
{
name = bottom;
pos = (300,0);
},
{
name = top;
pos = (300,620);
}
);
layerId = "D8CC3DFA-F3EA-4C7D-84FB-05FCEA5C6558";
shapes = (
{
closed = 1;
nodes = (
(533,0,l),
(533,30,l),
(300,30,l),
(323,51,o),
(339,83,o),
(338,120,cs),
(338,500,ls),
(339,537,o),
(323,569,o),
(300,590,c),
(533,590,l),
(533,620,l),
(186,620,ls),
(118,620,o),
(66,568,o),
(67,500,cs),
(67,120,ls),
(66,52,o),
(118,0,o),
(186,0,cs)
);
},
{
closed = 1;
nodes = (
(308,120,ls),
(309,69,o),
(270,30,o),
(219,30,cs),
(186,30,ls),
(135,30,o),
(96,69,o),
(97,120,cs),
(97,500,ls),
(96,551,o),
(135,590,o),
(186,590,cs),
(219,590,ls),
(270,590,o),
(309,551,o),
(308,500,cs)
);
},
{
closed = 1;
nodes = (
(487,345,l),
(487,375,l),
(323,375,l),
(323,345,l)
);
}
);
width = 600;
}
);
unicode = 338;
},
{
color = 4;
glyphname = P;
lastChange = "2025-08-02 18:25:39 +0000";
layers = (
{
anchors = (
{
name = bottom;
pos = (300,0);
},
{
name = top;
pos = (300,620);
}
);
layerId = m01;
shapes = (
{
closed = 1;
nodes = (
(399,330,ls),
(467,330,o),
(519,382,o),
(518,450,cs),
(518,500,ls),
(519,568,o),
(467,620,o),
(399,620,cs),
(82,620,l),
(82,0,l),
(142,0,l),
(142,590,l),
(112,560,l),
(399,560,ls),
(433,560,o),
(459,534,o),
(458,500,cs),
(458,450,ls),
(459,416,o),
(433,390,o),
(399,390,cs),
(112,390,l),
(112,330,l)
);
}
);
width = 600;
},
{
anchors = (
{
name = bottom;
pos = (300,0);
},
{
name = top;
pos = (300,620);
}
);
layerId = "BDCBA76E-5474-4BD3-A1CC-9641C626CFE7";
shapes = (
{
closed = 1;
nodes = (
(398,290,ls),
(466,290,o),
(518,341,o),
(518,409,cs),
(518,501,ls),
(518,569,o),
(466,621,o),
(398,620,cs),
(82,620,l),
(82,0,l),
(172,0,l),
(172,575,l),
(127,530,l),
(398,530,ls),
(415,530,o),
(428,517,o),
(428,500,cs),
(428,410,ls),
(428,393,o),
(415,380,o),
(398,380,cs),
(127,380,l),
(127,290,l)
);
}
);
width = 600;
},
{
anchors = (
{
name = bottom;
pos = (300,0);
},
{
name = top;
pos = (300,620);
}
);
layerId = "D8CC3DFA-F3EA-4C7D-84FB-05FCEA5C6558";
shapes = (
{
closed = 1;
nodes = (
(399,360,ls),
(467,360,o),
(519,412,o),
(518,480,cs),
(518,500,ls),
(519,568,o),
(467,620,o),
(399,620,cs),
(82,620,l),
(82,0,l),
(112,0,l),
(112,607,l),
(97,590,l),
(399,590,ls),
(450,590,o),
(489,551,o),
(488,500,cs),
(488,480,ls),
(489,429,o),
(450,390,o),
(399,390,cs),
(97,390,l),
(97,360,l)
);
}
);
width = 600;
}
);
unicode = 80;
},
{
glyphname = Phook;
lastChange = "2025-08-03 16:00:22 +0000";
layers = (
{
layerId = m01;
shapes = (
{
closed = 1;
nodes = (
(227,590,l),
(197,560,l),
(439,560,ls),
(473,560,o),
(499,534,o),
(498,500,cs),
(498,450,ls),
(499,416,o),
(473,390,o),
(439,390,cs),
(197,390,l),
(197,330,l),
(439,330,ls),
(507,330,o),
(559,382,o),
(558,450,cs),
(558,500,ls),
(559,568,o),
(507,620,o),
(439,620,cs),
(167,620,l),
(167,0,l),
(227,0,l)
);
},
{
alignment = -1;
pos = (-368,0);
ref = _part.hook;
}
);
width = 600;
},
{
layerId = "BDCBA76E-5474-4BD3-A1CC-9641C626CFE7";
shapes = (
{
closed = 1;
nodes = (
(287,575,l),
(242,530,l),
(438,530,ls),
(455,530,o),
(468,517,o),
(468,500,cs),
(468,410,ls),
(468,393,o),
(455,380,o),
(438,380,cs),
(242,380,l),
(242,290,l),
(438,290,ls),
(506,290,o),
(558,341,o),
(558,409,cs),
(558,501,ls),
(558,569,o),
(506,621,o),
(438,620,cs),
(197,620,l),
(197,0,l),
(287,0,l)
);
},
{
alignment = -1;
pos = (-338,0);
ref = _part.hook;
}
);
width = 600;
},
{
layerId = "D8CC3DFA-F3EA-4C7D-84FB-05FCEA5C6558";
shapes = (
{
closed = 1;
nodes = (
(197,605,l),
(182,590,l),
(439,590,ls),
(490,590,o),
(529,551,o),
(528,500,cs),
(528,449,ls),
(528,399,o),
(490,360,o),
(439,360,cs),
(182,360,l),
(182,330,l),
(439,330,ls),
(507,330,o),
(559,382,o),
(558,450,cs),
(558,500,ls),
(559,568,o),
(507,620,o),
(439,620,cs),
(167,620,l),
(167,0,l),
(197,0,l)
);
},
{
alignment = -1;
pos = (-368,0);
ref = _part.hook;
}
);
width = 600;
}
);
unicode = 420;
},
{
glyphname = Thorn;
lastChange = "2025-08-03 16:01:35 +0000";
layers = (
{
anchors = (
{
name = bottom;
pos = (300,0);
},
{
name = top;
pos = (300,620);
}
);
layerId = m01;
shapes = (
{
closed = 1;
nodes = (
(119,0,l),
(179,0,l),
(179,620,l),
(119,620,l)
);
},
{
closed = 1;
nodes = (
(363,165,ls),
(431,165,o),
(483,217,o),
(482,285,cs),
(482,335,ls),
(483,403,o),
(431,455,o),
(363,455,cs),
(161,455,l),
(161,395,l),
(363,395,ls),
(397,395,o),
(423,369,o),
(422,335,cs),
(422,285,ls),
(423,251,o),
(397,225,o),
(363,225,cs),
(161,225,l),
(161,165,l)
);
}
);
width = 600;
},
{
anchors = (
{
name = bottom;
pos = (300,0);
},
{
name = top;
pos = (300,620);
}
);
layerId = "BDCBA76E-5474-4BD3-A1CC-9641C626CFE7";
shapes = (
{
closed = 1;
nodes = (
(119,0,l),
(209,0,l),
(209,620,l),
(119,620,l)
);
},
{
closed = 1;
nodes = (
(363,155,ls),
(431,155,o),
(483,207,o),
(482,275,cs),
(482,346,ls),
(482,414,o),
(430,466,o),
(362,465,cs),
(161,465,l),
(161,375,l),
(362,375,ls),
(379,375,o),
(392,362,o),
(392,345,cs),
(392,275,ls),
(392,258,o),
(379,245,o),
(362,245,cs),
(161,245,l),
(161,155,l)
);
}
);
width = 600;
},
{
anchors = (
{
name = bottom;
pos = (300,0);
},
{
name = top;
pos = (300,620);
}
);
layerId = "D8CC3DFA-F3EA-4C7D-84FB-05FCEA5C6558";
shapes = (
{
closed = 1;
nodes = (
(119,0,l),
(149,0,l),
(149,620,l),
(119,620,l)
);
},
{
closed = 1;
nodes = (
(362,165,ls),
(430,164,o),
(482,216,o),
(482,284,cs),
(482,336,ls),
(482,404,o),
(430,456,o),
(362,455,cs),
(133,455,l),
(133,425,l),
(362,425,ls),
(413,426,o),
(452,387,o),
(452,336,cs),
(452,284,ls),
(452,233,o),
(413,194,o),
(362,195,cs),
(133,195,l),
(133,165,l)
);
}
);
width = 600;
}
);
unicode = 222;
},
{
color = 4;
glyphname = Q;
lastChange = "2025-08-02 18:31:14 +0000";
layers = (
{
anchors = (
{
name = bottom;
pos = (300,0);
},
{
name = top;
pos = (300,620);
}
);
layerId = m01;
shapes = (
{
closed = 1;
nodes = (
(338,30,l),
(338,-112,l),
(398,-112,l),
(398,30,l)
);
},
{
closed = 1;
nodes = (
(141,534,o),
(167,560,o),
(201,560,cs),
(399,560,ls),
(433,560,o),
(459,534,o),
(458,500,cs),
(458,120,ls),
(459,86,o),
(433,60,o),
(399,60,cs),
(201,60,ls),
(167,60,o),
(141,86,o),
(142,120,cs),
(142,500,ls)
);
},
{
closed = 1;
nodes = (
(82,120,ls),
(81,52,o),
(133,0,o),
(201,0,cs),
(399,0,ls),
(467,0,o),
(519,52,o),
(518,120,cs),
(518,500,ls),
(519,568,o),
(467,620,o),
(399,620,cs),
(201,620,ls),
(133,620,o),
(81,568,o),
(82,500,cs)
);
}
);
width = 600;
},
{
anchors = (
{
name = bottom;
pos = (300,0);
},
{
name = top;
pos = (300,620);
}
);
layerId = "BDCBA76E-5474-4BD3-A1CC-9641C626CFE7";
shapes = (
{
closed = 1;
nodes = (
(318,25,l),
(318,-112,l),
(418,-112,l),
(418,25,l)
);
},
{
closed = 1;
nodes = (
(172,517,o),
(185,530,o),
(202,530,cs),
(398,530,ls),
(415,530,o),
(428,517,o),
(428,500,cs),
(428,120,ls),
(428,103,o),
(415,90,o),
(398,90,cs),
(202,90,ls),
(185,90,o),
(172,103,o),
(172,120,cs),
(172,500,ls)
);
},
{
closed = 1;
nodes = (
(82,120,ls),
(82,52,o),
(133,0,o),
(201,0,cs),
(399,0,ls),
(467,0,o),
(519,52,o),
(518,120,cs),
(518,500,ls),
(519,568,o),
(467,620,o),
(399,620,cs),
(201,620,ls),
(133,620,o),
(82,568,o),
(82,500,cs)
);
}
);
width = 600;
},
{
anchors = (
{
name = bottom;
pos = (300,0);
},
{
name = top;
pos = (300,620);
}
);
layerId = "D8CC3DFA-F3EA-4C7D-84FB-05FCEA5C6558";
shapes = (
{
closed = 1;
nodes = (
(353,15,l),
(353,-112,l),
(383,-112,l),
(383,15,l)
);
},
{
closed = 1;
nodes = (
(111,551,o),
(150,590,o),
(201,590,cs),
(399,590,ls),
(450,590,o),
(488,551,o),
(488,500,cs),
(488,120,ls),
(488,69,o),
(450,30,o),
(399,30,cs),
(201,30,ls),
(150,30,o),
(111,69,o),
(112,120,cs),
(112,500,ls)
);
},
{
closed = 1;
nodes = (
(82,120,ls),
(81,52,o),
(133,0,o),
(201,0,cs),
(399,0,ls),
(467,0,o),
(519,52,o),
(518,120,cs),
(518,500,ls),
(519,568,o),
(467,620,o),
(399,620,cs),
(201,620,ls),
(133,620,o),
(81,568,o),
(82,500,c)
);
}
);
width = 600;
}
);
unicode = 81;
},
{
color = 4;
glyphname = R;
lastChange = "2025-08-02 18:31:19 +0000";
layers = (
{
anchors = (
{
name = bottom;
pos = (300,0);
},
{
name = top;
pos = (300,620);
}
);
layerId = m01;
shapes = (
{
closed = 1;
nodes = (
(399,330,ls),
(433,330,o),
(459,304,o),
(458,270,cs),
(458,0,l),
(518,0,l),
(518,270,ls),
(519,307,o),
(503,339,o),
(480,360,c),
(503,381,o),
(519,413,o),
(518,450,cs),
(518,500,ls),
(519,568,o),
(467,620,o),
(399,620,cs),
(82,620,l),
(82,0,l),
(142,0,l),
(142,590,l),
(112,560,l),
(399,560,ls),
(433,560,o),
(459,534,o),
(458,500,cs),
(458,450,ls),
(459,416,o),
(433,390,o),
(399,390,cs),
(112,390,l),
(112,330,l)
);
}
);
width = 600;
},
{
anchors = (
{
name = bottom;
pos = (300,0);
},
{
name = top;
pos = (300,620);
}
);
layerId = "BDCBA76E-5474-4BD3-A1CC-9641C626CFE7";
shapes = (
{
closed = 1;
nodes = (
(398,290,ls),
(415,290,o),
(428,277,o),
(428,260,cs),
(428,0,l),
(518,0,l),
(518,261,ls),
(518,289,o),
(509,315,o),
(494,335,c),
(509,355,o),
(518,381,o),
(518,409,cs),
(518,501,ls),
(518,569,o),
(466,621,o),
(398,620,cs),
(82,620,l),
(82,0,l),
(172,0,l),
(172,575,l),
(127,530,l),
(398,530,ls),
(415,530,o),
(428,517,o),
(428,500,cs),
(428,410,ls),
(428,393,o),
(415,380,o),
(398,380,cs),
(127,380,l),
(127,290,l)
);
}
);
width = 600;
},
{
anchors = (
{
name = bottom;
pos = (300,0);
},
{
name = top;
pos = (300,620);
}
);
layerId = "D8CC3DFA-F3EA-4C7D-84FB-05FCEA5C6558";
shapes = (
{
closed = 1;
nodes = (
(397,360,ls),
(448,360,o),
(487,321,o),
(486,270,cs),
(486,0,l),
(516,0,l),
(516,270,ls),
(517,317,o),
(493,355,o),
(457,375,c),
(493,395,o),
(517,433,o),
(516,480,cs),
(516,500,ls),
(517,568,o),
(465,620,o),
(397,620,cs),
(80,620,l),
(80,0,l),
(110,0,l),
(110,605,l),
(95,590,l),
(397,590,ls),
(448,590,o),
(487,551,o),
(486,500,cs),
(486,480,ls),
(487,429,o),
(448,390,o),
(397,390,cs),
(95,390,l),
(95,360,l)
);
}
);
width = 600;
}
);
unicode = 82;
},
{
glyphname = Rstroke;
lastChange = "2025-08-03 16:02:26 +0000";
layers = (
{
anchors = (
{
name = bottom;
pos = (300,0);
},
{
name = top;
pos = (300,620);
}
);
layerId = m01;
shapes = (
{
pos = (36,0);
ref = R;
},
{
closed = 1;
nodes = (
(46,330,l),
(326,330,l),
(326,390,l),
(46,390,l)
);
}
);
width = 600;
},
{
anchors = (
{
name = bottom;
pos = (300,0);
},
{
name = top;
pos = (300,620);
}
);
layerId = "BDCBA76E-5474-4BD3-A1CC-9641C626CFE7";
shapes = (
{
pos = (36,0);
ref = R;
},
{
closed = 1;
nodes = (
(46,290,l),
(326,290,l),
(326,380,l),
(46,380,l)
);
}
);
width = 600;
},
{
anchors = (
{
name = bottom;
pos = (300,0);
},
{
name = top;
pos = (300,620);
}
);
layerId = "D8CC3DFA-F3EA-4C7D-84FB-05FCEA5C6558";
shapes = (
{
pos = (37,0);
ref = R;
},
{
closed = 1;
nodes = (
(47,360,l),
(327,360,l),
(327,390,l),
(47,390,l)
);
}
);
width = 600;
}
);
unicode = 588;
},
{
color = 4;
glyphname = S;
lastChange = "2025-08-02 18:31:24 +0000";
layers = (
{
anchors = (
{
name = bottom;
pos = (300,0);
},
{
name = top;
pos = (300,620);
}
);
layerId = m01;
shapes = (
{
closed = 1;
nodes = (
(488,620,l),
(201,620,ls),
(133,620,o),
(81,568,o),
(82,500,cs),
(82,450,ls),
(81,382,o),
(133,330,o),
(201,330,cs),
(399,330,ls),
(433,330,o),
(459,304,o),
(458,270,cs),
(458,120,ls),
(459,86,o),
(433,60,o),
(399,60,cs),
(82,60,l),
(82,0,l),
(399,0,ls),
(467,0,o),
(519,52,o),
(518,120,cs),
(518,270,ls),
(519,338,o),
(467,390,o),
(399,390,cs),
(201,390,ls),
(167,390,o),
(141,416,o),
(142,450,cs),
(142,500,ls),
(141,534,o),
(167,560,o),
(201,560,cs),
(488,560,l)
);
}
);
width = 600;
},
{
anchors = (
{
name = bottom;
pos = (268,0);
},
{
name = top;
pos = (268,620);
}
);
layerId = "BDCBA76E-5474-4BD3-A1CC-9641C626CFE7";
shapes = (
{
closed = 1;
nodes = (
(488,620,l),
(201,620,ls),
(133,620,o),
(81,568,o),
(82,500,cs),
(82,410,ls),
(81,342,o),
(133,290,o),
(201,290,cs),
(398,290,ls),
(415,290,o),
(428,277,o),
(428,260,cs),
(428,120,ls),
(428,103,o),
(415,90,o),
(398,90,cs),
(82,90,l),
(82,0,l),
(399,0,ls),
(467,0,o),
(519,52,o),
(518,120,cs),
(518,261,ls),
(518,329,o),
(466,381,o),
(398,380,cs),
(202,380,ls),
(185,380,o),
(172,393,o),
(172,410,cs),
(172,500,ls),
(172,517,o),
(185,530,o),
(202,530,cs),
(488,530,l)
);
}
);
width = 600;
},
{
anchors = (
{
name = bottom;
pos = (300,0);
},
{
name = top;
pos = (300,620);
}
);
layerId = "D8CC3DFA-F3EA-4C7D-84FB-05FCEA5C6558";
shapes = (
{
closed = 1;
nodes = (
(488,620,l),
(201,620,ls),
(133,620,o),
(81,568,o),
(82,500,cs),
(82,480,ls),
(81,412,o),
(133,360,o),
(201,360,cs),
(399,360,ls),
(450,360,o),
(489,321,o),
(488,270,cs),
(488,120,ls),
(489,69,o),
(450,30,o),
(399,30,cs),
(82,30,l),
(82,0,l),
(399,0,ls),
(467,0,o),
(519,52,o),
(518,120,cs),
(518,270,ls),
(519,338,o),
(467,390,o),
(399,390,cs),
(201,390,ls),
(150,390,o),
(111,429,o),
(112,480,cs),
(112,500,ls),
(111,551,o),
(150,590,o),
(201,590,cs),
(488,590,l)
);
}
);
width = 600;
}
);
unicode = 83;
},
{
glyphname = Germandbls;
lastChange = "2025-08-03 16:04:05 +0000";
layers = (
{
anchors = (
{
name = bottom;
pos = (300,0);
},
{
name = top;
pos = (300,620);
}
);
layerId = m01;
shapes = (
{
closed = 1;
nodes = (
(142,0,l),
(142,588,l),
(112,560,l),
(425,560,l),
(408,596,l),
(237,375,ls),
(213,342,o),
(231,303,o),
(273,303,cs),
(399,303,ls),
(433,303,o),
(459,277,o),
(458,243,cs),
(458,120,ls),
(459,86,o),
(433,60,o),
(399,60,cs),
(192,60,l),
(192,0,l),
(399,0,ls),
(467,0,o),
(519,52,o),
(518,120,cs),
(518,243,ls),
(519,311,o),
(467,363,o),
(399,363,cs),
(304,363,l),
(447,548,ls),
(471,581,o),
(453,620,o),
(411,620,cs),
(82,620,l),
(82,0,l)
);
}
);
width = 600;
},
{
anchors = (
{
name = bottom;
pos = (300,0);
},
{
name = top;
pos = (300,620);
}
);
layerId = "BDCBA76E-5474-4BD3-A1CC-9641C626CFE7";
shapes = (
{
closed = 1;
nodes = (
(172,0,l),
(172,575,l),
(127,530,l),
(419,530,l),
(403,564,l),
(228,370,ls),
(191,329,o),
(218,273,o),
(273,273,cs),
(398,273,ls),
(415,273,o),
(428,260,o),
(428,243,cs),
(428,120,ls),
(428,103,o),
(415,90,o),
(398,90,cs),
(212,90,l),
(212,0,l),
(399,0,ls),
(467,0,o),
(518,52,o),
(518,120,cs),
(518,244,ls),
(518,312,o),
(466,364,o),
(398,363,cs),
(340,363,l),
(486,523,ls),
(523,564,o),
(496,620,o),
(441,620,cs),
(82,620,l),
(82,0,l)
);
}
);
width = 600;
},
{
anchors = (
{
name = bottom;
pos = (300,0);
},
{
name = top;
pos = (300,620);
}
);
layerId = "D8CC3DFA-F3EA-4C7D-84FB-05FCEA5C6558";
shapes = (
{
closed = 1;
nodes = (
(112,0,l),
(112,604,l),
(97,590,l),
(429,590,l),
(421,604,l),
(249,366,ls),
(233,343,o),
(244,318,o),
(273,318,cs),
(398,318,ls),
(449,319,o),
(488,280,o),
(488,229,cs),
(488,119,ls),
(488,68,o),
(449,29,o),
(398,30,cs),
(192,30,l),
(192,0,l),
(398,0,ls),
(466,-1,o),
(518,51,o),
(518,119,cs),
(518,229,ls),
(518,297,o),
(466,349,o),
(398,348,cs),
(273,348,l),
(435,572,ls),
(452,594,o),
(440,620,o),
(411,620,cs),
(82,620,l),
(82,0,l)
);
}
);
width = 600;
}
);
unicode = 7838;
},
{
color = 4;
glyphname = T;
lastChange = "2025-08-02 18:31:33 +0000";
layers = (
{
anchors = (
{
name = bottom;
pos = (300,0);
},
{
name = center;
pos = (300,310);
},
{
name = top;
pos = (300,620);
}
);
layerId = m01;
shapes = (
{
closed = 1;
nodes = (
(548,560,l),
(548,620,l),
(52,620,l),
(52,560,l)
);
},
{
closed = 1;
nodes = (
(270,0,l),
(330,0,l),
(330,585,l),
(270,585,l)
);
}
);
width = 600;
},
{
anchors = (
{
name = bottom;
pos = (300,0);
},
{
name = center;
pos = (300,310);
},
{
name = top;
pos = (300,620);
}
);
layerId = "BDCBA76E-5474-4BD3-A1CC-9641C626CFE7";
shapes = (
{
closed = 1;
nodes = (
(548,530,l),
(548,620,l),
(52,620,l),
(52,530,l)
);
},
{
closed = 1;
nodes = (
(255,0,l),
(345,0,l),
(345,585,l),
(255,585,l)
);
}
);
width = 600;
},
{
anchors = (
{
name = bottom;
pos = (300,0);
},
{
name = center;
pos = (300,310);
},
{
name = top;
pos = (300,620);
}
);
layerId = "D8CC3DFA-F3EA-4C7D-84FB-05FCEA5C6558";
shapes = (
{
closed = 1;
nodes = (
(548,590,l),
(548,620,l),
(52,620,l),
(52,590,l)
);
},
{
closed = 1;
nodes = (
(285,0,l),
(315,0,l),
(315,607,l),
(285,607,l)
);
}
);
width = 600;
}
);
unicode = 84;
},
{
glyphname = Tcedilla;
lastChange = "2025-08-03 16:04:51 +0000";
layers = (
{
layerId = m01;
shapes = (
{
ref = T;
},
{
attr = {
identifier = ID0x136ce20c0;
lineCapEnd = 3;
strokeWidth = 50;
};
closed = 0;
nodes = (
(295,0,l),
(295,-65,l),
(375,-65,o),
(385,-90,o),
(384,-128,cs),
(383,-170,o),
(354,-191,o),
(295,-191,cs)
);
},
{
closed = 1;
nodes = (
(270,-43,l),
(330,-43,l),
(330,0,l),
(270,0,l)
);
}
);
width = 600;
},
{
layerId = "BDCBA76E-5474-4BD3-A1CC-9641C626CFE7";
shapes = (
{
ref = T;
},
{
attr = {
identifier = ID0x136ce20c0;
lineCapEnd = 3;
strokeWidth = 90;
};
closed = 0;
nodes = (
(300,0,l),
(300,-65,l),
(380,-65,o),
(390,-100,o),
(389,-131,cs),
(388,-180,o),
(359,-201,o),
(300,-201,cs)
);
},
{
closed = 1;
nodes = (
(270,-43,l),
(330,-43,l),
(330,0,l),
(270,0,l)
);
}
);
width = 600;
},
{
layerId = "D8CC3DFA-F3EA-4C7D-84FB-05FCEA5C6558";
shapes = (
{
ref = T;
},
{
attr = {
identifier = ID0x136ce20c0;
lineCapEnd = 3;
strokeWidth = 30;
};
closed = 0;
nodes = (
(300,0,l),
(300,-65,l),
(380,-65,o),
(390,-90,o),
(389,-128,cs),
(388,-170,o),
(359,-191,o),
(300,-191,cs)
);
},
{
closed = 1;
nodes = (
(286,-43,l),
(315,-43,l),
(315,0,l),
(286,0,l)
);
}
);
width = 600;
}
);
unicode = 354;
},
{
glyphname = Thook;
lastChange = "2025-08-03 16:05:25 +0000";
layers = (
{
anchors = (
{
name = bottom;
pos = (300,0);
},
{
name = top;
pos = (300,620);
}
);
layerId = m01;
shapes = (
{
alignment = -1;
pos = (-358,0);
ref = _part.hook;
},
{
closed = 1;
nodes = (
(548,560,l),
(548,620,l),
(176,620,l),
(176,560,l)
);
},
{
closed = 1;
nodes = (
(270,595,l),
(270,0,l),
(330,0,l),
(330,595,l)
);
}
);
width = 600;
},
{
anchors = (
{
name = bottom;
pos = (300,0);
},
{
name = top;
pos = (300,620);
}
);
layerId = "BDCBA76E-5474-4BD3-A1CC-9641C626CFE7";
shapes = (
{
alignment = -1;
pos = (-343,0);
ref = _part.hook;
},
{
closed = 1;
nodes = (
(563,530,l),
(563,620,l),
(191,620,l),
(191,530,l)
);
},
{
closed = 1;
nodes = (
(270,575,l),
(270,0,l),
(360,0,l),
(360,575,l)
);
}
);
width = 600;
},
{
anchors = (
{
name = bottom;
pos = (300,0);
},
{
name = top;
pos = (300,620);
}
);
layerId = "D8CC3DFA-F3EA-4C7D-84FB-05FCEA5C6558";
shapes = (
{
alignment = -1;
pos = (-358,0);
ref = _part.hook;
},
{
closed = 1;
nodes = (
(548,590,l),
(548,620,l),
(176,620,l),
(176,590,l)
);
},
{
closed = 1;
nodes = (
(285,605,l),
(285,0,l),
(315,0,l),
(315,605,l)
);
}
);
width = 600;
}
);
unicode = 428;
},
{
color = 4;
glyphname = U;
lastChange = "2025-08-02 18:31:43 +0000";
layers = (
{
anchors = (
{
name = bottom;
pos = (300,0);
},
{
name = ogonek;
pos = (540,10);
},
{
name = top;
pos = (300,620);
},
{
name = topright;
pos = (580,620);
}
);
layerId = m01;
shapes = (
{
closed = 1;
nodes = (
(518,620,l),
(458,620,l),
(458,120,ls),
(459,86,o),
(433,60,o),
(399,60,cs),
(201,60,ls),
(167,60,o),
(141,86,o),
(142,120,cs),
(142,620,l),
(82,620,l),
(82,120,ls),
(81,52,o),
(133,0,o),
(201,0,cs),
(399,0,ls),
(467,0,o),
(519,52,o),
(518,120,cs)
);
}
);
width = 600;
},
{
anchors = (
{
name = bottom;
pos = (300,0);
},
{
name = ogonek;
pos = (540,10);
},
{
name = top;
pos = (300,620);
},
{
name = topright;
pos = (580,620);
}
);
layerId = "BDCBA76E-5474-4BD3-A1CC-9641C626CFE7";
shapes = (
{
closed = 1;
nodes = (
(518,620,l),
(428,620,l),
(428,120,ls),
(428,103,o),
(415,90,o),
(398,90,cs),
(202,90,ls),
(185,90,o),
(172,103,o),
(172,120,cs),
(172,620,l),
(82,620,l),
(82,120,ls),
(81,52,o),
(133,0,o),
(201,0,cs),
(399,0,ls),
(467,0,o),
(519,52,o),
(518,120,cs)
);
}
);
width = 600;
},
{
anchors = (
{
name = bottom;
pos = (300,0);
},
{
name = ogonek;
pos = (540,10);
},
{
name = top;
pos = (300,620);
},
{
name = topright;
pos = (580,620);
}
);
layerId = "D8CC3DFA-F3EA-4C7D-84FB-05FCEA5C6558";
shapes = (
{
closed = 1;
nodes = (
(518,620,l),
(488,620,l),
(488,120,ls),
(489,69,o),
(450,30,o),
(399,30,cs),
(201,30,ls),
(150,30,o),
(111,69,o),
(112,120,cs),
(112,620,l),
(82,620,l),
(82,120,ls),
(81,52,o),
(133,0,o),
(201,0,cs),
(399,0,ls),
(467,0,o),
(519,52,o),
(518,120,cs)
);
}
);
width = 600;
}
);
unicode = 85;
},
{
glyphname = Ubar;
lastChange = "2025-08-03 16:06:46 +0000";
layers = (
{
anchors = (
{
name = bottom;
pos = (300,0);
},
{
name = top;
pos = (300,620);
}
);
layerId = m01;
shapes = (
{
ref = U;
},
{
closed = 1;
nodes = (
(42,280,l),
(558,280,l),
(558,340,l),
(42,340,l)
);
}
);
width = 600;
},
{
anchors = (
{
name = bottom;
pos = (300,0);
},
{
name = top;
pos = (300,620);
}
);
layerId = "BDCBA76E-5474-4BD3-A1CC-9641C626CFE7";
shapes = (
{
ref = U;
},
{
closed = 1;
nodes = (
(42,265,l),
(558,265,l),
(558,355,l),
(42,355,l)
);
}
);
width = 600;
},
{
anchors = (
{
name = bottom;
pos = (300,0);
},
{
name = top;
pos = (300,620);
}
);
layerId = "D8CC3DFA-F3EA-4C7D-84FB-05FCEA5C6558";
shapes = (
{
ref = U;
},
{
closed = 1;
nodes = (
(42,295,l),
(558,295,l),
(558,325,l),
(42,325,l)
);
}
);
width = 600;
}
);
unicode = 580;
},
{
glyphname = Uhorn;
lastChange = "2025-08-03 16:07:33 +0000";
layers = (
{
anchors = (
{
name = bottom;
pos = (300,0);
},
{
name = top;
pos = (300,620);
}
);
layerId = m01;
shapes = (
{
closed = 1;
nodes = (
(107,120,l),
(107,620,l),
(47,620,l),
(47,120,l)
);
},
{
alignment = -1;
pos = (-63,0);
ref = "_part.horn-sm";
},
{
closed = 1;
nodes = (
(294,60,l),
(166,60,l),
(166,0,l),
(294,0,l)
);
},
{
closed = 1;
nodes = (
(413,120,l),
(413,620,l),
(353,620,l),
(353,120,l)
);
},
{
angle = 180;
pos = (463,620);
ref = "_part-rounded-corner";
},
{
pos = (-3,620);
ref = "_part-rounded-corner";
scale = (1,-1);
}
);
width = 600;
},
{
anchors = (
{
name = bottom;
pos = (300,0);
},
{
name = top;
pos = (300,620);
}
);
layerId = "BDCBA76E-5474-4BD3-A1CC-9641C626CFE7";
shapes = (
{
closed = 1;
nodes = (
(122,120,l),
(122,620,l),
(32,620,l),
(32,120,l)
);
},
{
alignment = -1;
pos = (-78,0);
ref = "_part.horn-sm";
},
{
closed = 1;
nodes = (
(278,90,l),
(152,90,l),
(152,0,l),
(278,0,l)
);
},
{
closed = 1;
nodes = (
(398,120,l),
(398,620,l),
(308,620,l),
(308,120,l)
);
},
{
angle = 180;
pos = (398,620);
ref = "_part-rounded-corner";
},
{
angle = 90;
pos = (652,0);
ref = "_part-rounded-corner";
}
);
width = 600;
},
{
anchors = (
{
name = bottom;
pos = (300,0);
},
{
name = top;
pos = (300,620);
}
);
layerId = "D8CC3DFA-F3EA-4C7D-84FB-05FCEA5C6558";
shapes = (
{
closed = 1;
nodes = (
(92,120,l),
(92,620,l),
(62,620,l),
(62,120,l)
);
},
{
alignment = -1;
pos = (-48,0);
ref = "_part.horn-sm";
},
{
closed = 1;
nodes = (
(428,120,l),
(428,620,l),
(398,620,l),
(398,120,l)
);
},
{
closed = 1;
nodes = (
(309,30,l),
(181,30,l),
(181,0,l),
(309,0,l)
);
},
{
angle = 180;
pos = (428,570);
ref = "_part-rounded-corner";
},
{
pos = (62,570);
ref = "_part-rounded-corner";
scale = (1,-1);
}
);
width = 600;
}
);
unicode = 431;
},
{
glyphname = Uhornacute;
lastChange = "2025-07-27 19:42:29 +0000";
layers = (
{
layerId = m01;
shapes = (
{
closed = 1;
nodes = (
(80,120,l),
(80,620,l),
(20,620,l),
(20,120,l)
);
},
{
alignment = -1;
pos = (-90,0);
ref = "_part.horn-sm";
},
{
pos = (-20,140);
ref = acutecomb;
},
{
closed = 1;
nodes = (
(267,60,l),
(139,60,l),
(139,0,l),
(267,0,l)
);
},
{
closed = 1;
nodes = (
(386,120,l),
(386,620,l),
(326,620,l),
(326,120,l)
);
},
{
angle = 180;
pos = (436,620);
ref = "_part-rounded-corner";
},
{
pos = (-30,620);
ref = "_part-rounded-corner";
scale = (1,-1);
}
);
width = 600;
},
{
layerId = "BDCBA76E-5474-4BD3-A1CC-9641C626CFE7";
shapes = (
{
closed = 1;
nodes = (
(110,120,l),
(110,620,l),
(20,620,l),
(20,120,l)
);
},
{
alignment = -1;
pos = (-70,0);
ref = "_part.horn-sm";
},
{
pos = (-20,140);
ref = acutecomb;
},
{
closed = 1;
nodes = (
(286,90,l),
(140,90,l),
(140,0,l),
(286,0,l)
);
},
{
closed = 1;
nodes = (
(406,120,l),
(406,620,l),
(316,620,l),
(316,120,l)
);
},
{
angle = 180;
pos = (406,620);
ref = "_part-rounded-corner";
},
{
pos = (20,620);
ref = "_part-rounded-corner";
scale = (1,-1);
}
);
width = 600;
},
{
layerId = "D8CC3DFA-F3EA-4C7D-84FB-05FCEA5C6558";
shapes = (
{
closed = 1;
nodes = (
(50,120,l),
(50,620,l),
(20,620,l),
(20,120,l)
);
},
{
alignment = -1;
pos = (-90,0);
ref = "_part.horn-sm";
},
{
pos = (-20,140);
ref = acutecomb;
},
{
closed = 1;
nodes = (
(267,30,l),
(139,30,l),
(139,0,l),
(267,0,l)
);
},
{
closed = 1;
nodes = (
(386,120,l),
(386,620,l),
(356,620,l),
(356,120,l)
);
},
{
angle = 180;
pos = (386,570);
ref = "_part-rounded-corner";
},
{
pos = (20,570);
ref = "_part-rounded-corner";
scale = (1,-1);
}
);
width = 600;
}
);
unicode = 7912;
},
{
glyphname = Uhorndotbelow;
lastChange = "2025-08-03 16:08:24 +0000";
layers = (
{
layerId = m01;
shapes = (
{
ref = dotbelowcomb;
},
{
alignment = -1;
pos = (-63,0);
ref = "_part.horn-sm";
},
{
closed = 1;
nodes = (
(107,120,l),
(107,620,l),
(47,620,l),
(47,120,l)
);
},
{
closed = 1;
nodes = (
(294,60,l),
(166,60,l),
(166,0,l),
(294,0,l)
);
},
{
closed = 1;
nodes = (
(413,120,l),
(413,620,l),
(353,620,l),
(353,120,l)
);
},
{
angle = 180;
pos = (463,620);
ref = "_part-rounded-corner";
},
{
pos = (-3,620);
ref = "_part-rounded-corner";
scale = (1,-1);
}
);
width = 600;
},
{
layerId = "BDCBA76E-5474-4BD3-A1CC-9641C626CFE7";
shapes = (
{
ref = dotbelowcomb;
},
{
alignment = -1;
pos = (-88,0);
ref = "_part.horn-sm";
},
{
closed = 1;
nodes = (
(132,120,l),
(132,620,l),
(42,620,l),
(42,120,l)
);
},
{
closed = 1;
nodes = (
(268,90,l),
(162,90,l),
(162,0,l),
(268,0,l)
);
},
{
closed = 1;
nodes = (
(388,120,l),
(388,620,l),
(298,620,l),
(298,120,l)
);
},
{
angle = 180;
pos = (388,620);
ref = "_part-rounded-corner";
},
{
pos = (42,620);
ref = "_part-rounded-corner";
scale = (1,-1);
}
);
width = 600;
},
{
layerId = "D8CC3DFA-F3EA-4C7D-84FB-05FCEA5C6558";
shapes = (
{
ref = dotbelowcomb;
},
{
alignment = -1;
pos = (-48,0);
ref = "_part.horn-sm";
},
{
closed = 1;
nodes = (
(92,120,l),
(92,620,l),
(62,620,l),
(62,120,l)
);
},
{
closed = 1;
nodes = (
(309,30,l),
(181,30,l),
(181,0,l),
(309,0,l)
);
},
{
closed = 1;
nodes = (
(428,114,l),
(428,620,l),
(398,620,l),
(398,114,l)
);
},
{
angle = 180;
pos = (428,570);
ref = "_part-rounded-corner";
},
{
pos = (62,570);
ref = "_part-rounded-corner";
scale = (1,-1);
}
);
width = 600;
}
);
unicode = 7920;
},
{
glyphname = Uhorngrave;
lastChange = "2025-07-27 19:46:16 +0000";
layers = (
{
layerId = m01;
shapes = (
{
closed = 1;
nodes = (
(267,0,ls),
(335,0,o),
(387,52,o),
(386,120,cs),
(386,620,l),
(326,620,l),
(326,120,ls),
(327,86,o),
(301,60,o),
(267,60,cs),
(139,60,ls),
(105,60,o),
(79,86,o),
(80,120,cs),
(80,620,l),
(20,620,l),
(20,120,ls),
(19,52,o),
(71,0,o),
(139,0,cs)
);
},
{
pos = (-101,141);
ref = gravecomb;
},
{
alignment = -1;
pos = (-90,0);
ref = "_part.horn-sm";
}
);
width = 600;
},
{
layerId = "BDCBA76E-5474-4BD3-A1CC-9641C626CFE7";
shapes = (
{
closed = 1;
nodes = (
(287,0,ls),
(355,0,o),
(407,52,o),
(406,120,cs),
(406,620,l),
(316,620,l),
(316,120,ls),
(316,103,o),
(303,90,o),
(286,90,cs),
(140,90,ls),
(123,90,o),
(110,103,o),
(110,120,cs),
(110,620,l),
(20,620,l),
(20,120,ls),
(19,52,o),
(71,0,o),
(139,0,cs)
);
},
{
pos = (-101,141);
ref = gravecomb;
},
{
alignment = -1;
pos = (-70,0);
ref = "_part.horn-sm";
}
);
width = 600;
},
{
layerId = "D8CC3DFA-F3EA-4C7D-84FB-05FCEA5C6558";
shapes = (
{
closed = 1;
nodes = (
(267,0,ls),
(335,0,o),
(387,52,o),
(386,120,cs),
(386,620,l),
(356,620,l),
(356,120,ls),
(357,69,o),
(318,30,o),
(267,30,cs),
(139,30,ls),
(88,30,o),
(49,69,o),
(50,120,cs),
(50,620,l),
(20,620,l),
(20,120,ls),
(19,52,o),
(71,0,o),
(139,0,cs)
);
},
{
pos = (-101,141);
ref = gravecomb;
},
{
alignment = -1;
pos = (-79,0);
ref = "_part.horn-sm";
}
);
width = 600;
}
);
unicode = 7914;
},
{
glyphname = Uhornhookabove;
lastChange = "2025-07-27 19:48:20 +0000";
layers = (
{
layerId = m01;
shapes = (
{
closed = 1;
nodes = (
(267,0,ls),
(335,0,o),
(387,52,o),
(386,120,cs),
(386,620,l),
(326,620,l),
(326,120,ls),
(327,86,o),
(301,60,o),
(267,60,cs),
(139,60,ls),
(105,60,o),
(79,86,o),
(80,120,cs),
(80,620,l),
(20,620,l),
(20,120,ls),
(19,52,o),
(71,0,o),
(139,0,cs)
);
},
{
pos = (-51,141);
ref = hookabovecomb;
},
{
alignment = -1;
pos = (-90,0);
ref = "_part.horn-sm";
}
);
width = 600;
},
{
layerId = "BDCBA76E-5474-4BD3-A1CC-9641C626CFE7";
shapes = (
{
closed = 1;
nodes = (
(287,0,ls),
(355,0,o),
(407,52,o),
(406,120,cs),
(406,620,l),
(316,620,l),
(316,120,ls),
(316,103,o),
(303,90,o),
(286,90,cs),
(140,90,ls),
(123,90,o),
(110,103,o),
(110,120,cs),
(110,620,l),
(20,620,l),
(20,120,ls),
(19,52,o),
(71,0,o),
(139,0,cs)
);
},
{
pos = (-51,141);
ref = hookabovecomb;
},
{
alignment = -1;
pos = (-70,0);
ref = "_part.horn-sm";
}
);
width = 600;
},
{
layerId = "D8CC3DFA-F3EA-4C7D-84FB-05FCEA5C6558";
shapes = (
{
closed = 1;
nodes = (
(267,0,ls),
(335,0,o),
(387,52,o),
(386,120,cs),
(386,620,l),
(356,620,l),
(356,120,ls),
(357,69,o),
(318,30,o),
(267,30,cs),
(139,30,ls),
(88,30,o),
(49,69,o),
(50,120,cs),
(50,620,l),
(20,620,l),
(20,120,ls),
(19,52,o),
(71,0,o),
(139,0,cs)
);
},
{
pos = (-51,141);
ref = hookabovecomb;
},
{
alignment = -1;
pos = (-80,0);
ref = "_part.horn-sm";
}
);
width = 600;
}
);
unicode = 7916;
},
{
glyphname = Uhorntilde;
lastChange = "2025-07-27 19:50:24 +0000";
layers = (
{
layerId = m01;
shapes = (
{
closed = 1;
nodes = (
(267,0,ls),
(335,0,o),
(387,52,o),
(386,120,cs),
(386,620,l),
(326,620,l),
(326,120,ls),
(327,86,o),
(301,60,o),
(267,60,cs),
(139,60,ls),
(105,60,o),
(79,86,o),
(80,120,cs),
(80,620,l),
(20,620,l),
(20,120,ls),
(19,52,o),
(71,0,o),
(139,0,cs)
);
},
{
pos = (-56,139);
ref = tildecomb;
},
{
alignment = -1;
pos = (-90,0);
ref = "_part.horn-sm";
}
);
width = 600;
},
{
layerId = "BDCBA76E-5474-4BD3-A1CC-9641C626CFE7";
shapes = (
{
closed = 1;
nodes = (
(287,0,ls),
(355,0,o),
(407,52,o),
(406,120,cs),
(406,620,l),
(316,620,l),
(316,120,ls),
(316,103,o),
(303,90,o),
(286,90,cs),
(140,90,ls),
(123,90,o),
(110,103,o),
(110,120,cs),
(110,620,l),
(20,620,l),
(20,120,ls),
(19,52,o),
(71,0,o),
(139,0,cs)
);
},
{
pos = (-56,157);
ref = tildecomb;
},
{
alignment = -1;
pos = (-70,0);
ref = "_part.horn-sm";
}
);
width = 600;
},
{
layerId = "D8CC3DFA-F3EA-4C7D-84FB-05FCEA5C6558";
shapes = (
{
closed = 1;
nodes = (
(267,0,ls),
(335,0,o),
(387,52,o),
(386,120,cs),
(386,620,l),
(356,620,l),
(356,120,ls),
(357,69,o),
(318,30,o),
(267,30,cs),
(139,30,ls),
(88,30,o),
(49,69,o),
(50,120,cs),
(50,620,l),
(20,620,l),
(20,120,ls),
(19,52,o),
(71,0,o),
(139,0,cs)
);
},
{
pos = (-56,139);
ref = tildecomb;
},
{
alignment = -1;
pos = (-80,0);
ref = "_part.horn-sm";
}
);
width = 600;
}
);
unicode = 7918;
},
{
glyphname = "Upsilon-latin";
lastChange = "2025-08-03 16:11:48 +0000";
layers = (
{
anchors = (
{
name = bottom;
pos = (300,0);
},
{
name = top;
pos = (300,620);
}
);
layerId = m01;
shapes = (
{
closed = 1;
nodes = (
(201,560,l),
(133,560,o),
(81,508,o),
(82,440,cs),
(82,120,ls),
(81,52,o),
(133,0,o),
(201,0,cs),
(399,0,ls),
(467,0,o),
(519,52,o),
(518,120,cs),
(518,440,ls),
(519,508,o),
(467,560,o),
(399,560,cs),
(543,560,l),
(543,620,l),
(394,620,ls),
(360,620,o),
(334,594,o),
(334,560,cs),
(334,526,o),
(360,500,o),
(394,500,cs),
(399,500,ls),
(433,500,o),
(459,474,o),
(458,440,cs),
(458,120,ls),
(459,86,o),
(433,60,o),
(399,60,cs),
(201,60,ls),
(167,60,o),
(141,86,o),
(142,120,cs),
(142,440,ls),
(141,474,o),
(167,500,o),
(201,500,cs),
(206,500,ls),
(240,500,o),
(266,526,o),
(266,560,cs),
(266,594,o),
(240,620,o),
(206,620,cs),
(57,620,l),
(57,560,l)
);
}
);
width = 600;
},
{
anchors = (
{
name = bottom;
pos = (300,0);
},
{
name = top;
pos = (300,620);
}
);
layerId = "BDCBA76E-5474-4BD3-A1CC-9641C626CFE7";
shapes = (
{
closed = 1;
nodes = (
(181,530,l),
(113,530,o),
(61,478,o),
(62,410,cs),
(62,120,ls),
(61,52,o),
(113,0,o),
(181,0,cs),
(419,0,ls),
(487,0,o),
(539,52,o),
(538,120,cs),
(538,410,ls),
(539,478,o),
(487,530,o),
(419,530,c),
(553,530,l),
(553,620,l),
(414,620,ls),
(363,620,o),
(324,581,o),
(324,530,cs),
(324,479,o),
(363,440,o),
(414,440,cs),
(418,440,ls),
(435,440,o),
(448,427,o),
(448,410,cs),
(448,120,ls),
(448,103,o),
(435,90,o),
(418,90,cs),
(182,90,ls),
(165,90,o),
(152,103,o),
(152,120,cs),
(152,410,ls),
(152,427,o),
(165,440,o),
(182,440,cs),
(186,440,ls),
(237,440,o),
(276,479,o),
(276,530,cs),
(276,581,o),
(237,620,o),
(186,620,cs),
(47,620,l),
(47,530,l)
);
}
);
width = 600;
},
{
anchors = (
{
name = bottom;
pos = (300,0);
},
{
name = top;
pos = (300,620);
}
);
layerId = "D8CC3DFA-F3EA-4C7D-84FB-05FCEA5C6558";
shapes = (
{
closed = 1;
nodes = (
(201,590,l),
(133,590,o),
(81,538,o),
(82,470,cs),
(82,120,ls),
(81,52,o),
(133,0,o),
(201,0,cs),
(399,0,ls),
(467,0,o),
(519,52,o),
(518,120,cs),
(518,470,ls),
(519,538,o),
(467,590,o),
(399,590,cs),
(543,590,l),
(543,620,l),
(364,620,ls),
(347,620,o),
(334,607,o),
(334,590,cs),
(334,573,o),
(347,560,o),
(364,560,cs),
(399,560,ls),
(450,560,o),
(489,521,o),
(488,470,cs),
(488,120,ls),
(489,69,o),
(450,30,o),
(399,30,cs),
(201,30,ls),
(150,30,o),
(111,69,o),
(112,120,cs),
(112,470,ls),
(111,521,o),
(150,560,o),
(201,560,cs),
(236,560,ls),
(253,560,o),
(266,573,o),
(266,590,cs),
(266,607,o),
(253,620,o),
(236,620,cs),
(57,620,l),
(57,590,l)
);
}
);
width = 600;
}
);
unicode = 433;
},
{
color = 4;
glyphname = V;
lastChange = "2025-08-02 18:31:48 +0000";
layers = (
{
anchors = (
{
name = bottom;
pos = (268,0);
},
{
name = top;
pos = (268,620);
}
);
layerId = m01;
shapes = (
{
closed = 1;
nodes = (
(347,0,l),
(518,620,l),
(456,620,l),
(289,17,l),
(311,17,l),
(144,620,l),
(82,620,l),
(253,0,l)
);
}
);
width = 600;
},
{
anchors = (
{
name = bottom;
pos = (300,0);
},
{
name = top;
pos = (300,620);
}
);
layerId = "BDCBA76E-5474-4BD3-A1CC-9641C626CFE7";
shapes = (
{
closed = 1;
nodes = (
(367,0,l),
(538,620,l),
(445,620,l),
(278,17,l),
(322,17,l),
(155,620,l),
(62,620,l),
(233,0,l)
);
}
);
width = 600;
},
{
anchors = (
{
name = bottom;
pos = (300,0);
},
{
name = top;
pos = (300,620);
}
);
layerId = "D8CC3DFA-F3EA-4C7D-84FB-05FCEA5C6558";
shapes = (
{
closed = 1;
nodes = (
(321,0,l),
(534,620,l),
(503,620,l),
(296,19,l),
(304,19,l),
(97,620,l),
(66,620,l),
(279,0,l)
);
}
);
width = 600;
}
);
unicode = 86;
},
{
glyphname = "Gamma-latin";
lastChange = "2025-07-15 01:32:06 +0000";
layers = (
{
layerId = m01;
shapes = (
{
attr = {
lineCapEnd = 4;
lineCapStart = 4;
strokeWidth = 60;
};
closed = 0;
nodes = (
(113,620,l),
(279,326,ls),
(298,293,o),
(374,159,o),
(374,112,cs),
(374,64,o),
(343,30,o),
(300,30,cs),
(257,30,o),
(226,64,o),
(226,112,cs),
(226,159,o),
(302,293,o),
(321,326,cs),
(487,620,l)
);
}
);
width = 600;
},
{
layerId = "BDCBA76E-5474-4BD3-A1CC-9641C626CFE7";
shapes = (
{
attr = {
lineCapEnd = 4;
lineCapStart = 4;
strokeWidth = 90;
};
closed = 0;
nodes = (
(113,620,l),
(279,326,ls),
(299,290,o),
(384,199,o),
(384,132,cs),
(384,69,o),
(352,30,o),
(300,30,cs),
(248,30,o),
(216,69,o),
(216,132,cs),
(216,199,o),
(301,290,o),
(321,326,cs),
(487,620,l)
);
}
);
width = 600;
},
{
layerId = "D8CC3DFA-F3EA-4C7D-84FB-05FCEA5C6558";
shapes = (
{
attr = {
lineCapEnd = 4;
lineCapStart = 4;
strokeWidth = 30;
};
closed = 0;
nodes = (
(113,620,l),
(279,326,ls),
(298,293,o),
(374,159,o),
(374,112,cs),
(374,64,o),
(343,30,o),
(300,30,cs),
(257,30,o),
(226,64,o),
(226,112,cs),
(226,159,o),
(302,293,o),
(321,326,cs),
(487,620,l)
);
}
);
width = 600;
}
);
unicode = 404;
},
{
glyphname = Vhook;
lastChange = "2025-08-03 16:12:27 +0000";
layers = (
{
anchors = (
{
name = bottom;
pos = (300,0);
},
{
name = top;
pos = (300,620);
}
);
layerId = m01;
shapes = (
{
closed = 1;
nodes = (
(347,0,l),
(518,620,l),
(458,620,l),
(291,17,l),
(311,17,l),
(144,620,l),
(82,620,l),
(253,0,l)
);
},
{
alignment = -1;
angle = -90;
pos = (-102,1155);
ref = _part.hook;
}
);
width = 600;
},
{
anchors = (
{
name = bottom;
pos = (300,0);
},
{
name = top;
pos = (300,620);
}
);
layerId = "BDCBA76E-5474-4BD3-A1CC-9641C626CFE7";
shapes = (
{
closed = 1;
nodes = (
(368,0,l),
(539,620,l),
(449,620,l),
(279,17,l),
(322,17,l),
(155,620,l),
(62,620,l),
(233,0,l)
);
},
{
alignment = -1;
angle = -90;
pos = (-81,1155);
ref = _part.hook;
}
);
width = 600;
},
{
anchors = (
{
name = bottom;
pos = (300,0);
},
{
name = top;
pos = (300,620);
}
);
layerId = "D8CC3DFA-F3EA-4C7D-84FB-05FCEA5C6558";
shapes = (
{
closed = 1;
nodes = (
(317,0,l),
(518,620,l),
(488,620,l),
(291,17,l),
(311,17,l),
(114,620,l),
(82,620,l),
(283,0,l)
);
},
{
alignment = -1;
angle = -90;
pos = (-102,1155);
ref = _part.hook;
}
);
width = 600;
}
);
unicode = 434;
},
{
color = 4;
glyphname = W;
lastChange = "2025-08-02 18:31:53 +0000";
layers = (
{
anchors = (
{
name = bottom;
pos = (300,0);
},
{
name = top;
pos = (300,620);
}
);
guides = (
{
pos = (404,132);
}
);
layerId = m01;
shapes = (
{
closed = 1;
nodes = (
(62,0,l),
(142,0,l),
(321,339,l),
(279,339,l),
(458,0,l),
(538,0,l),
(538,620,l),
(478,620,l),
(478,27,l),
(501,46,l),
(334,363,l),
(266,363,l),
(97,44,l),
(122,29,l),
(122,620,l),
(62,620,l)
);
}
);
width = 600;
},
{
anchors = (
{
name = bottom;
pos = (300,0);
},
{
name = top;
pos = (300,620);
}
);
guides = (
{
pos = (404,132);
}
);
layerId = "BDCBA76E-5474-4BD3-A1CC-9641C626CFE7";
shapes = (
{
closed = 1;
nodes = (
(62,0,l),
(167,0,l),
(346,339,l),
(253,339,l),
(432,0,l),
(538,0,l),
(538,620,l),
(448,620,l),
(448,27,l),
(509,46,l),
(342,363,l),
(257,363,l),
(88,44,l),
(152,29,l),
(152,620,l),
(62,620,l)
);
}
);
width = 600;
},
{
anchors = (
{
name = bottom;
pos = (300,0);
},
{
name = top;
pos = (300,620);
}
);
guides = (
{
pos = (404,132);
}
);
layerId = "D8CC3DFA-F3EA-4C7D-84FB-05FCEA5C6558";
shapes = (
{
closed = 1;
nodes = (
(282,340,l),
(83,17,l),
(92,8,l),
(92,620,l),
(62,620,l),
(62,0,l),
(108,0,l),
(308,323,l),
(292,323,l),
(492,0,l),
(538,0,l),
(538,620,l),
(508,620,l),
(508,17,l),
(520,11,l),
(318,340,l)
);
}
);
width = 600;
}
);
unicode = 87;
},
{
glyphname = Whook;
lastChange = "2025-08-03 16:13:04 +0000";
layers = (
{
anchors = (
{
name = bottom;
pos = (300,0);
},
{
name = top;
pos = (300,620);
}
);
layerId = m01;
shapes = (
{
closed = 1;
nodes = (
(130,0,l),
(289,339,l),
(247,339,l),
(405,0,l),
(486,0,l),
(486,620,l),
(426,620,l),
(426,27,l),
(458,27,l),
(302,363,l),
(234,363,l),
(78,29,l),
(110,29,l),
(110,620,l),
(50,620,l),
(50,0,l)
);
},
{
alignment = -1;
pos = (16,154);
ref = _part.hook;
}
);
width = 600;
},
{
anchors = (
{
name = bottom;
pos = (300,0);
},
{
name = top;
pos = (300,620);
}
);
layerId = "BDCBA76E-5474-4BD3-A1CC-9641C626CFE7";
shapes = (
{
closed = 1;
nodes = (
(155,0,l),
(301,312,l),
(234,312,l),
(380,0,l),
(486,0,l),
(486,620,l),
(396,620,l),
(396,27,l),
(466,27,l),
(310,363,l),
(225,363,l),
(69,29,l),
(140,29,l),
(140,620,l),
(50,620,l),
(50,0,l)
);
},
{
alignment = -1;
pos = (16,154);
ref = _part.hook;
}
);
width = 600;
},
{
anchors = (
{
name = bottom;
pos = (300,0);
},
{
name = top;
pos = (300,620);
}
);
layerId = "D8CC3DFA-F3EA-4C7D-84FB-05FCEA5C6558";
shapes = (
{
closed = 1;
nodes = (
(115,0,l),
(265,319,l),
(241,319,l),
(391,0,l),
(441,0,l),
(441,620,l),
(411,620,l),
(411,11,l),
(419,11,l),
(269,330,l),
(237,330,l),
(87,11,l),
(95,11,l),
(95,620,l),
(65,620,l),
(65,0,l)
);
},
{
alignment = -1;
pos = (1,154);
ref = _part.hook;
}
);
width = 600;
}
);
unicode = 11378;
},
{
color = 4;
glyphname = X;
lastChange = "2025-08-02 18:32:02 +0000";
layers = (
{
anchors = (
{
name = bottom;
pos = (268,0);
},
{
name = top;
pos = (268,620);
}
);
layerId = m01;
shapes = (
{
closed = 1;
nodes = (
(77,620,l),
(475,0,l),
(546,0,l),
(148,620,l)
);
},
{
closed = 1;
nodes = (
(337,311,l),
(525,620,l),
(457,620,l),
(269,311,l)
);
},
{
closed = 1;
nodes = (
(276,332,l),
(54,0,l),
(122,0,l),
(331,310,l)
);
}
);
width = 600;
},
{
anchors = (
{
name = bottom;
pos = (300,0);
},
{
name = top;
pos = (300,620);
}
);
layerId = "BDCBA76E-5474-4BD3-A1CC-9641C626CFE7";
shapes = (
{
closed = 1;
nodes = (
(104,620,l),
(438,0,l),
(540,0,l),
(206,620,l)
);
},
{
closed = 1;
nodes = (
(335,267,l),
(526,620,l),
(423,620,l),
(270,337,l)
);
},
{
closed = 1;
nodes = (
(272,367,l),
(60,0,l),
(164,0,l),
(324,276,l)
);
}
);
width = 600;
},
{
anchors = (
{
name = bottom;
pos = (300,0);
},
{
name = top;
pos = (300,620);
}
);
layerId = "D8CC3DFA-F3EA-4C7D-84FB-05FCEA5C6558";
shapes = (
{
closed = 1;
nodes = (
(75,620,l),
(505,0,l),
(541,0,l),
(111,620,l)
);
},
{
closed = 1;
nodes = (
(315,308,l),
(531,620,l),
(495,620,l),
(288,321,l)
);
},
{
closed = 1;
nodes = (
(283,321,l),
(60,0,l),
(96,0,l),
(319,321,l)
);
}
);
width = 600;
}
);
unicode = 88;
},
{
color = 4;
glyphname = Y;
lastChange = "2025-08-10 18:47:12 +0000";
layers = (
{
anchors = (
{
name = bottom;
pos = (300,0);
},
{
name = top;
pos = (300,620);
},
{
name = topleft;
pos = (20,620);
}
);
layerId = m01;
shapes = (
{
closed = 1;
nodes = (
(272,0,l),
(332,0,l),
(332,256,l),
(518,620,l),
(450,620,l),
(281,288,l),
(322,288,l),
(151,620,l),
(82,620,l),
(272,255,l)
);
}
);
width = 600;
},
{
anchors = (
{
name = bottom;
pos = (300,0);
},
{
name = top;
pos = (300,620);
},
{
name = topleft;
pos = (20,620);
}
);
layerId = "BDCBA76E-5474-4BD3-A1CC-9641C626CFE7";
shapes = (
{
closed = 1;
nodes = (
(257,265,l),
(257,0,l),
(347,0,l),
(347,266,l),
(526,620,l),
(425,620,l),
(282,335,l),
(322,335,l),
(177,620,l),
(74,620,l)
);
}
);
width = 600;
},
{
anchors = (
{
name = bottom;
pos = (300,0);
},
{
name = top;
pos = (300,620);
},
{
name = topleft;
pos = (20,620);
}
);
layerId = "D8CC3DFA-F3EA-4C7D-84FB-05FCEA5C6558";
shapes = (
{
closed = 1;
nodes = (
(287,269,l),
(287,0,l),
(317,0,l),
(317,269,l),
(516,620,l),
(481,620,l),
(291,284,l),
(313,284,l),
(120,620,l),
(84,620,l)
);
}
);
width = 600;
}
);
unicode = 89;
},
{
glyphname = Yhook;
lastChange = "2025-08-03 16:13:41 +0000";
layers = (
{
anchors = (
{
name = bottom;
pos = (300,0);
},
{
name = top;
pos = (300,620);
}
);
layerId = m01;
shapes = (
{
closed = 1;
nodes = (
(300,0,l),
(300,256,l),
(484,620,l),
(424,620,l),
(249,273,l),
(289,273,l),
(113,620,l),
(52,620,l),
(240,255,l),
(240,0,l)
);
},
{
alignment = -1;
pos = (14,154);
ref = _part.hook;
}
);
width = 600;
},
{
anchors = (
{
name = bottom;
pos = (300,0);
},
{
name = top;
pos = (300,620);
}
);
layerId = "BDCBA76E-5474-4BD3-A1CC-9641C626CFE7";
shapes = (
{
closed = 1;
nodes = (
(315,0,l),
(315,266,l),
(494,620,l),
(404,620,l),
(250,314,l),
(290,314,l),
(135,620,l),
(42,620,l),
(225,265,l),
(225,0,l)
);
},
{
alignment = -1;
pos = (24,154);
ref = _part.hook;
}
);
width = 600;
},
{
anchors = (
{
name = bottom;
pos = (300,0);
},
{
name = top;
pos = (300,620);
}
);
layerId = "D8CC3DFA-F3EA-4C7D-84FB-05FCEA5C6558";
shapes = (
{
closed = 1;
nodes = (
(271,0,l),
(271,283,l),
(440,620,l),
(410,620,l),
(244,291,l),
(266,291,l),
(100,620,l),
(65,620,l),
(241,284,l),
(241,0,l)
);
},
{
alignment = -1;
pos = (0,154);
ref = _part.hook;
}
);
width = 600;
}
);
unicode = 435;
},
{
color = 4;
glyphname = Z;
lastChange = "2025-08-02 18:32:13 +0000";
layers = (
{
anchors = (
{
name = bottom;
pos = (268,0);
},
{
name = center;
pos = (268,310);
},
{
name = top;
pos = (268,620);
}
);
layerId = m01;
shapes = (
{
closed = 1;
nodes = (
(107,560,l),
(446,560,l),
(445,600,l),
(82,60,l),
(82,0,l),
(518,0,l),
(518,60,l),
(129,60,l),
(128,20,l),
(492,560,l),
(492,620,l),
(107,620,l)
);
}
);
width = 600;
},
{
anchors = (
{
name = bottom;
pos = (300,0);
},
{
name = center;
pos = (300,310);
},
{
name = top;
pos = (300,620);
}
);
layerId = "BDCBA76E-5474-4BD3-A1CC-9641C626CFE7";
shapes = (
{
closed = 1;
nodes = (
(83,0,l),
(517,0,l),
(517,90,l),
(157,90,l),
(140,20,l),
(501,532,l),
(501,620,l),
(106,620,l),
(106,530,l),
(437,530,l),
(439,600,l),
(83,95,l)
);
}
);
width = 600;
},
{
anchors = (
{
name = bottom;
pos = (300,0);
},
{
name = center;
pos = (300,310);
},
{
name = top;
pos = (300,620);
}
);
layerId = "D8CC3DFA-F3EA-4C7D-84FB-05FCEA5C6558";
shapes = (
{
closed = 1;
nodes = (
(492,620,l),
(107,620,l),
(107,590,l),
(474,590,l),
(465,606,l),
(82,31,l),
(82,0,l),
(518,0,l),
(518,30,l),
(100,30,l),
(110,20,l),
(492,591,l)
);
}
);
width = 600;
}
);
unicode = 90;
},
{
glyphname = Saltillo;
lastChange = "2025-07-22 00:52:11 +0000";
layers = (
{
layerId = m01;
shapes = (
{
closed = 1;
nodes = (
(277,415,l),
(327,415,l),
(332,705,l),
(272,705,l)
);
}
);
width = 600;
},
{
layerId = "BDCBA76E-5474-4BD3-A1CC-9641C626CFE7";
shapes = (
{
closed = 1;
nodes = (
(264,415,l),
(344,415,l),
(349,705,l),
(259,705,l)
);
}
);
width = 600;
},
{
layerId = "D8CC3DFA-F3EA-4C7D-84FB-05FCEA5C6558";
shapes = (
{
closed = 1;
nodes = (
(288,415,l),
(315,415,l),
(320,705,l),
(283,705,l)
);
}
);
width = 600;
}
);
unicode = 42891;
},
{
glyphname = Bsmall;
lastChange = "2025-08-03 16:14:13 +0000";
layers = (
{
anchors = (
{
name = bottom;
pos = (300,0);
},
{
name = top;
pos = (300,452);
}
);
layerId = m01;
shapes = (
{
closed = 1;
nodes = (
(82,452,l),
(82,0,l),
(399,0,ls),
(467,0,o),
(519,52,o),
(518,120,cs),
(518,145,ls),
(519,182,o),
(503,214,o),
(480,235,c),
(503,256,o),
(519,288,o),
(518,325,cs),
(518,332,ls),
(519,400,o),
(467,452,o),
(399,452,cs)
);
},
{
closed = 1;
nodes = (
(112,205,l),
(399,205,ls),
(433,205,o),
(459,179,o),
(458,145,cs),
(458,120,ls),
(459,86,o),
(433,60,o),
(399,60,cs),
(112,60,l),
(142,32,l),
(142,420,l),
(112,392,l),
(399,392,ls),
(433,392,o),
(459,366,o),
(458,332,cs),
(458,325,ls),
(459,291,o),
(433,265,o),
(399,265,cs),
(112,265,l)
);
}
);
width = 600;
},
{
anchors = (
{
name = bottom;
pos = (300,0);
},
{
name = top;
pos = (300,452);
}
);
layerId = "BDCBA76E-5474-4BD3-A1CC-9641C626CFE7";
shapes = (
{
closed = 1;
nodes = (
(82,452,l),
(82,0,l),
(399,0,ls),
(467,0,o),
(519,52,o),
(518,120,cs),
(518,165,ls),
(518,193,o),
(510,219,o),
(494,240,c),
(509,260,o),
(518,287,o),
(518,315,cs),
(518,332,ls),
(518,400,o),
(467,452,o),
(399,452,cs)
);
},
{
closed = 1;
nodes = (
(127,195,l),
(398,195,ls),
(415,195,o),
(428,182,o),
(428,165,cs),
(428,120,ls),
(428,103,o),
(415,90,o),
(398,90,cs),
(127,90,l),
(172,45,l),
(172,407,l),
(127,362,l),
(398,362,ls),
(415,362,o),
(428,349,o),
(428,332,cs),
(428,315,ls),
(428,298,o),
(415,285,o),
(398,285,cs),
(127,285,l)
);
}
);
width = 600;
},
{
anchors = (
{
name = bottom;
pos = (300,0);
},
{
name = top;
pos = (300,452);
}
);
layerId = "D8CC3DFA-F3EA-4C7D-84FB-05FCEA5C6558";
shapes = (
{
closed = 1;
nodes = (
(82,452,l),
(82,0,l),
(399,0,ls),
(467,0,o),
(519,52,o),
(518,120,cs),
(518,121,ls),
(519,168,o),
(495,206,o),
(459,226,c),
(495,246,o),
(519,284,o),
(518,331,cs),
(518,332,ls),
(519,400,o),
(467,452,o),
(399,452,cs)
);
},
{
closed = 1;
nodes = (
(97,211,l),
(399,211,ls),
(450,211,o),
(489,172,o),
(488,121,cs),
(488,120,ls),
(489,69,o),
(450,30,o),
(399,30,cs),
(97,30,l),
(112,15,l),
(112,437,l),
(97,422,l),
(399,422,ls),
(450,422,o),
(489,383,o),
(488,332,cs),
(488,331,ls),
(489,280,o),
(450,241,o),
(399,241,cs),
(97,241,l)
);
}
);
width = 600;
}
);
unicode = 665;
},
{
glyphname = Gsmall;
lastChange = "2025-08-03 16:14:38 +0000";
layers = (
{
anchors = (
{
name = bottom;
pos = (300,0);
},
{
name = top;
pos = (300,452);
}
);
layerId = m01;
shapes = (
{
closed = 1;
nodes = (
(478,452,l),
(201,452,ls),
(133,452,o),
(81,400,o),
(82,332,cs),
(82,120,ls),
(81,52,o),
(133,0,o),
(201,0,cs),
(399,0,ls),
(467,0,o),
(519,52,o),
(518,120,cs),
(518,145,ls),
(519,213,o),
(467,265,o),
(399,265,cs),
(253,265,l),
(253,205,l),
(399,205,ls),
(433,205,o),
(459,179,o),
(458,145,cs),
(458,120,ls),
(459,86,o),
(433,60,o),
(399,60,cs),
(201,60,ls),
(167,60,o),
(141,86,o),
(142,120,cs),
(142,332,ls),
(141,366,o),
(167,392,o),
(201,392,cs),
(478,392,l)
);
}
);
width = 600;
},
{
anchors = (
{
name = bottom;
pos = (300,0);
},
{
name = top;
pos = (300,452);
}
);
layerId = "BDCBA76E-5474-4BD3-A1CC-9641C626CFE7";
shapes = (
{
closed = 1;
nodes = (
(478,452,l),
(201,452,ls),
(133,452,o),
(81,400,o),
(82,332,cs),
(82,120,ls),
(81,52,o),
(133,0,o),
(201,0,cs),
(399,0,ls),
(467,0,o),
(519,52,o),
(518,120,cs),
(518,165,ls),
(519,233,o),
(467,285,o),
(399,285,cs),
(253,285,l),
(253,195,l),
(398,195,ls),
(415,195,o),
(428,182,o),
(428,165,cs),
(428,120,ls),
(428,103,o),
(415,90,o),
(398,90,cs),
(202,90,ls),
(185,90,o),
(172,103,o),
(172,120,cs),
(172,332,ls),
(172,349,o),
(185,362,o),
(202,362,cs),
(478,362,l)
);
}
);
width = 600;
},
{
anchors = (
{
name = bottom;
pos = (300,0);
},
{
name = top;
pos = (300,452);
}
);
layerId = "D8CC3DFA-F3EA-4C7D-84FB-05FCEA5C6558";
shapes = (
{
closed = 1;
nodes = (
(478,452,l),
(201,452,ls),
(133,452,o),
(81,400,o),
(82,332,cs),
(82,120,ls),
(81,52,o),
(133,0,o),
(201,0,cs),
(399,0,ls),
(467,0,o),
(519,52,o),
(518,120,cs),
(518,150,ls),
(519,218,o),
(467,270,o),
(399,270,cs),
(253,270,l),
(253,240,l),
(399,240,ls),
(450,240,o),
(489,201,o),
(488,150,cs),
(488,120,ls),
(489,69,o),
(450,30,o),
(399,30,cs),
(201,30,ls),
(150,30,o),
(111,69,o),
(112,120,cs),
(112,332,ls),
(111,383,o),
(150,422,o),
(201,422,cs),
(478,422,l)
);
}
);
width = 600;
}
);
unicode = 610;
},
{
glyphname = Gsmallhook;
lastChange = "2025-08-03 16:15:11 +0000";
layers = (
{
layerId = m01;
shapes = (
{
closed = 1;
nodes = (
(387,0,ls),
(455,0,o),
(507,52,o),
(506,120,cs),
(506,145,ls),
(507,213,o),
(455,265,o),
(387,265,cs),
(241,265,l),
(241,205,l),
(387,205,ls),
(421,205,o),
(447,179,o),
(446,145,cs),
(446,120,ls),
(447,86,o),
(421,60,o),
(387,60,cs),
(189,60,ls),
(155,60,o),
(129,86,o),
(130,120,cs),
(130,332,ls),
(129,366,o),
(155,392,o),
(189,392,cs),
(466,392,l),
(466,452,l),
(189,452,ls),
(121,452,o),
(69,400,o),
(70,332,cs),
(70,120,ls),
(69,52,o),
(121,0,o),
(189,0,cs)
);
},
{
alignment = -1;
pos = (-4,-14);
ref = _part.hook;
}
);
width = 600;
},
{
layerId = "BDCBA76E-5474-4BD3-A1CC-9641C626CFE7";
shapes = (
{
closed = 1;
nodes = (
(387,0,ls),
(455,0,o),
(507,52,o),
(506,120,cs),
(506,165,ls),
(507,233,o),
(455,285,o),
(387,285,cs),
(241,285,l),
(241,195,l),
(386,195,ls),
(403,195,o),
(416,182,o),
(416,165,cs),
(416,120,ls),
(416,103,o),
(403,90,o),
(386,90,cs),
(190,90,ls),
(173,90,o),
(160,103,o),
(160,120,cs),
(160,332,ls),
(160,349,o),
(173,362,o),
(190,362,cs),
(466,362,l),
(466,452,l),
(189,452,ls),
(121,452,o),
(69,400,o),
(70,332,cs),
(70,120,ls),
(69,52,o),
(121,0,o),
(189,0,cs)
);
},
{
alignment = -1;
pos = (-4,-14);
ref = _part.hook;
}
);
width = 600;
},
{
layerId = "D8CC3DFA-F3EA-4C7D-84FB-05FCEA5C6558";
shapes = (
{
closed = 1;
nodes = (
(387,0,ls),
(455,0,o),
(507,52,o),
(506,120,cs),
(506,150,ls),
(507,218,o),
(455,270,o),
(387,270,cs),
(241,270,l),
(241,240,l),
(387,240,ls),
(438,240,o),
(477,201,o),
(476,150,cs),
(476,120,ls),
(477,69,o),
(438,30,o),
(387,30,cs),
(189,30,ls),
(138,30,o),
(99,69,o),
(100,120,cs),
(100,332,ls),
(99,383,o),
(138,422,o),
(189,422,cs),
(436,422,l),
(436,452,l),
(189,452,ls),
(121,452,o),
(69,400,o),
(70,332,cs),
(70,120,ls),
(69,52,o),
(121,0,o),
(189,0,cs)
);
},
{
alignment = -1;
pos = (-4,-14);
ref = _part.hook;
}
);
width = 600;
}
);
unicode = 667;
},
{
glyphname = Hsmall;
lastChange = "2025-08-03 16:15:56 +0000";
layers = (
{
anchors = (
{
name = bottom;
pos = (300,0);
},
{
name = top;
pos = (300,452);
}
);
layerId = m01;
shapes = (
{
closed = 1;
nodes = (
(82,0,l),
(142,0,l),
(142,452,l),
(82,452,l)
);
},
{
closed = 1;
nodes = (
(458,0,l),
(518,0,l),
(518,452,l),
(458,452,l)
);
},
{
closed = 1;
nodes = (
(127,205,l),
(472,205,l),
(472,265,l),
(127,265,l)
);
}
);
width = 600;
},
{
anchors = (
{
name = bottom;
pos = (300,0);
},
{
name = top;
pos = (300,452);
}
);
layerId = "BDCBA76E-5474-4BD3-A1CC-9641C626CFE7";
shapes = (
{
closed = 1;
nodes = (
(82,0,l),
(172,0,l),
(172,452,l),
(82,452,l)
);
},
{
closed = 1;
nodes = (
(428,0,l),
(518,0,l),
(518,452,l),
(428,452,l)
);
},
{
closed = 1;
nodes = (
(127,197,l),
(472,197,l),
(472,287,l),
(127,287,l)
);
}
);
width = 600;
},
{
anchors = (
{
name = bottom;
pos = (300,0);
},
{
name = top;
pos = (300,452);
}
);
layerId = "D8CC3DFA-F3EA-4C7D-84FB-05FCEA5C6558";
shapes = (
{
closed = 1;
nodes = (
(82,0,l),
(112,0,l),
(112,452,l),
(82,452,l)
);
},
{
closed = 1;
nodes = (
(488,0,l),
(518,0,l),
(518,452,l),
(488,452,l)
);
},
{
closed = 1;
nodes = (
(97,220,l),
(502,220,l),
(502,250,l),
(97,250,l)
);
}
);
width = 600;
}
);
unicode = 668;
},
{
glyphname = Ismall;
lastChange = "2025-08-03 16:16:35 +0000";
layers = (
{
anchors = (
{
name = bottom;
pos = (300,0);
},
{
name = top;
pos = (300,452);
}
);
layerId = m01;
shapes = (
{
closed = 1;
nodes = (
(518,392,l),
(518,452,l),
(82,452,l),
(82,392,l)
);
},
{
closed = 1;
nodes = (
(330,30,l),
(330,420,l),
(270,420,l),
(270,30,l)
);
},
{
closed = 1;
nodes = (
(82,60,l),
(82,0,l),
(518,0,l),
(518,60,l)
);
}
);
width = 600;
},
{
anchors = (
{
name = bottom;
pos = (300,0);
},
{
name = top;
pos = (300,452);
}
);
layerId = "BDCBA76E-5474-4BD3-A1CC-9641C626CFE7";
shapes = (
{
closed = 1;
nodes = (
(518,362,l),
(518,452,l),
(82,452,l),
(82,362,l)
);
},
{
closed = 1;
nodes = (
(345,44,l),
(345,405,l),
(255,405,l),
(255,44,l)
);
},
{
closed = 1;
nodes = (
(82,90,l),
(82,0,l),
(518,0,l),
(518,90,l)
);
}
);
width = 600;
},
{
anchors = (
{
name = bottom;
pos = (300,0);
},
{
name = top;
pos = (300,452);
}
);
layerId = "D8CC3DFA-F3EA-4C7D-84FB-05FCEA5C6558";
shapes = (
{
closed = 1;
nodes = (
(518,422,l),
(518,452,l),
(82,452,l),
(82,422,l)
);
},
{
closed = 1;
nodes = (
(315,15,l),
(315,435,l),
(285,435,l),
(285,15,l)
);
},
{
closed = 1;
nodes = (
(82,30,l),
(82,0,l),
(518,0,l),
(518,30,l)
);
}
);
width = 600;
}
);
unicode = 618;
},
{
glyphname = Lsmall;
lastChange = "2025-08-03 16:17:16 +0000";
layers = (
{
anchors = (
{
name = bottom;
pos = (300,0);
},
{
name = top;
pos = (300,452);
}
);
layerId = m01;
shapes = (
{
closed = 1;
nodes = (
(82,452,l),
(82,0,l),
(518,0,l),
(518,60,l),
(115,60,l),
(142,31,l),
(142,452,l)
);
}
);
width = 600;
},
{
anchors = (
{
name = bottom;
pos = (300,0);
},
{
name = top;
pos = (300,452);
}
);
layerId = "BDCBA76E-5474-4BD3-A1CC-9641C626CFE7";
shapes = (
{
closed = 1;
nodes = (
(82,452,l),
(82,0,l),
(518,0,l),
(518,90,l),
(115,90,l),
(172,31,l),
(172,452,l)
);
}
);
width = 600;
},
{
anchors = (
{
name = bottom;
pos = (300,0);
},
{
name = top;
pos = (300,452);
}
);
layerId = "D8CC3DFA-F3EA-4C7D-84FB-05FCEA5C6558";
shapes = (
{
closed = 1;
nodes = (
(82,452,l),
(82,0,l),
(518,0,l),
(518,30,l),
(101,30,l),
(112,11,l),
(112,452,l)
);
}
);
width = 600;
}
);
unicode = 671;
},
{
glyphname = Nsmall;
lastChange = "2025-08-03 16:18:05 +0000";
layers = (
{
anchors = (
{
name = bottom;
pos = (300,0);
},
{
name = top;
pos = (300,452);
}
);
layerId = m01;
shapes = (
{
closed = 1;
nodes = (
(157,452,l),
(93,452,l),
(444,0,l),
(508,0,l)
);
},
{
closed = 1;
nodes = (
(86,452,l),
(82,0,l),
(142,0,l),
(142,452,l)
);
},
{
closed = 1;
nodes = (
(518,0,l),
(518,452,l),
(458,452,l),
(458,0,l)
);
}
);
width = 600;
},
{
anchors = (
{
name = bottom;
pos = (300,0);
},
{
name = top;
pos = (300,452);
}
);
layerId = "BDCBA76E-5474-4BD3-A1CC-9641C626CFE7";
shapes = (
{
closed = 1;
nodes = (
(202,450,l),
(93,450,l),
(404,0,l),
(513,0,l)
);
},
{
closed = 1;
nodes = (
(86,450,l),
(82,0,l),
(173,0,l),
(173,450,l)
);
},
{
closed = 1;
nodes = (
(518,0,l),
(518,450,l),
(428,450,l),
(428,0,l)
);
}
);
width = 600;
},
{
anchors = (
{
name = bottom;
pos = (300,0);
},
{
name = top;
pos = (300,452);
}
);
layerId = "D8CC3DFA-F3EA-4C7D-84FB-05FCEA5C6558";
shapes = (
{
closed = 1;
nodes = (
(128,450,l),
(90,450,l),
(479,0,l),
(517,0,l)
);
},
{
closed = 1;
nodes = (
(86,450,l),
(82,0,l),
(112,0,l),
(116,450,l)
);
},
{
closed = 1;
nodes = (
(518,0,l),
(518,450,l),
(488,450,l),
(488,0,l)
);
}
);
width = 600;
}
);
unicode = 628;
},
{
glyphname = OEsmall;
lastChange = "2025-08-03 16:18:38 +0000";
layers = (
{
anchors = (
{
name = bottom;
pos = (300,0);
},
{
name = top;
pos = (300,452);
}
);
layerId = m01;
shapes = (
{
closed = 1;
nodes = (
(523,0,l),
(523,60,l),
(348,60,l),
(358,77,o),
(363,99,o),
(363,120,cs),
(363,332,ls),
(363,353,o),
(358,374,o),
(348,392,c),
(523,392,l),
(523,452,l),
(196,452,ls),
(128,452,o),
(76,400,o),
(77,332,cs),
(77,120,ls),
(76,52,o),
(128,0,o),
(196,0,cs)
);
},
{
closed = 1;
nodes = (
(162,60,o),
(136,86,o),
(137,120,cs),
(137,332,ls),
(136,366,o),
(162,392,o),
(196,392,cs),
(244,392,ls),
(278,392,o),
(304,366,o),
(303,332,cs),
(303,120,ls),
(304,86,o),
(278,60,o),
(244,60,cs),
(196,60,ls)
);
},
{
closed = 1;
nodes = (
(477,210,l),
(477,270,l),
(323,270,l),
(323,210,l)
);
}
);
width = 600;
},
{
anchors = (
{
name = bottom;
pos = (300,0);
},
{
name = top;
pos = (300,452);
}
);
layerId = "BDCBA76E-5474-4BD3-A1CC-9641C626CFE7";
shapes = (
{
closed = 1;
nodes = (
(523,0,l),
(523,90,l),
(375,90,l),
(377,99,o),
(378,110,o),
(378,120,cs),
(378,332,ls),
(378,342,o),
(377,353,o),
(375,362,c),
(523,362,l),
(523,452,l),
(196,452,ls),
(128,452,o),
(76,400,o),
(77,332,cs),
(77,120,ls),
(76,52,o),
(128,0,o),
(196,0,cs)
);
},
{
closed = 1;
nodes = (
(180,90,o),
(167,103,o),
(167,120,cs),
(167,332,ls),
(167,349,o),
(180,362,o),
(197,362,cs),
(258,362,ls),
(275,362,o),
(288,349,o),
(288,332,cs),
(288,120,ls),
(288,103,o),
(275,90,o),
(258,90,cs),
(197,90,ls)
);
},
{
closed = 1;
nodes = (
(477,195,l),
(477,285,l),
(331,285,l),
(331,195,l)
);
}
);
width = 600;
},
{
anchors = (
{
name = bottom;
pos = (300,0);
},
{
name = top;
pos = (300,452);
}
);
layerId = "D8CC3DFA-F3EA-4C7D-84FB-05FCEA5C6558";
shapes = (
{
closed = 1;
nodes = (
(523,0,l),
(523,30,l),
(310,30,l),
(333,51,o),
(349,83,o),
(348,120,cs),
(348,332,ls),
(349,369,o),
(333,401,o),
(310,422,c),
(523,422,l),
(523,452,l),
(196,452,ls),
(128,452,o),
(76,400,o),
(77,332,cs),
(77,120,ls),
(76,52,o),
(128,0,o),
(196,0,cs)
);
},
{
closed = 1;
nodes = (
(145,30,o),
(106,69,o),
(107,120,cs),
(107,332,ls),
(106,383,o),
(145,422,o),
(196,422,cs),
(229,422,ls),
(280,422,o),
(319,383,o),
(318,332,cs),
(318,120,ls),
(319,69,o),
(280,30,o),
(229,30,cs),
(196,30,ls)
);
},
{
closed = 1;
nodes = (
(477,225,l),
(477,255,l),
(333,255,l),
(333,225,l)
);
}
);
width = 600;
}
);
unicode = 630;
},
{
glyphname = Rsmall;
lastChange = "2025-08-03 16:19:13 +0000";
layers = (
{
anchors = (
{
name = bottom;
pos = (300,0);
},
{
name = top;
pos = (300,452);
}
);
layerId = m01;
shapes = (
{
closed = 1;
nodes = (
(142,422,l),
(112,392,l),
(399,392,ls),
(433,392,o),
(459,366,o),
(458,332,cs),
(458,315,ls),
(459,281,o),
(433,255,o),
(399,255,cs),
(112,255,l),
(112,195,l),
(399,195,ls),
(433,195,o),
(459,169,o),
(458,135,cs),
(458,0,l),
(518,0,l),
(518,135,ls),
(519,172,o),
(503,204,o),
(480,225,c),
(503,246,o),
(519,278,o),
(518,315,cs),
(518,332,ls),
(519,400,o),
(467,452,o),
(399,452,cs),
(82,452,l),
(82,0,l),
(142,0,l)
);
}
);
width = 600;
},
{
anchors = (
{
name = bottom;
pos = (300,0);
},
{
name = top;
pos = (300,452);
}
);
layerId = "BDCBA76E-5474-4BD3-A1CC-9641C626CFE7";
shapes = (
{
closed = 1;
nodes = (
(172,407,l),
(127,362,l),
(398,362,ls),
(415,362,o),
(428,349,o),
(428,332,cs),
(428,315,ls),
(428,298,o),
(415,285,o),
(398,285,cs),
(127,285,l),
(127,195,l),
(398,195,ls),
(415,195,o),
(428,182,o),
(428,165,cs),
(428,0,l),
(518,0,l),
(518,165,ls),
(518,193,o),
(510,219,o),
(494,240,c),
(509,260,o),
(518,287,o),
(518,315,cs),
(518,332,ls),
(519,400,o),
(467,452,o),
(399,452,cs),
(82,452,l),
(82,0,l),
(172,0,l)
);
}
);
width = 600;
},
{
anchors = (
{
name = bottom;
pos = (300,0);
},
{
name = top;
pos = (300,452);
}
);
layerId = "D8CC3DFA-F3EA-4C7D-84FB-05FCEA5C6558";
shapes = (
{
closed = 1;
nodes = (
(112,436,l),
(97,422,l),
(398,422,ls),
(449,422,o),
(488,384,o),
(488,333,cs),
(488,331,ls),
(488,281,o),
(452,242,o),
(402,242,cs),
(97,242,l),
(97,212,l),
(402,212,ls),
(452,212,o),
(488,173,o),
(488,123,cs),
(488,0,l),
(518,0,l),
(518,123,ls),
(518,169,o),
(495,207,o),
(459,227,c),
(495,247,o),
(518,285,o),
(518,331,cs),
(518,333,ls),
(518,401,o),
(466,453,o),
(398,452,cs),
(82,452,l),
(82,0,l),
(112,0,l)
);
}
);
width = 600;
}
);
unicode = 640;
},
{
glyphname = Ysmall;
lastChange = "2025-08-03 16:20:39 +0000";
layers = (
{
anchors = (
{
name = bottom;
pos = (300,0);
},
{
name = top;
pos = (300,452);
}
);
layerId = m01;
shapes = (
{
closed = 1;
nodes = (
(272,0,l),
(332,0,l),
(332,204,l),
(272,204,l)
);
},
{
closed = 1;
nodes = (
(327,188,l),
(153,452,l),
(84,452,l),
(272,165,l)
);
},
{
closed = 1;
nodes = (
(332,166,l),
(516,452,l),
(448,452,l),
(277,190,l)
);
}
);
width = 600;
},
{
anchors = (
{
name = bottom;
pos = (300,0);
},
{
name = top;
pos = (300,452);
}
);
layerId = "BDCBA76E-5474-4BD3-A1CC-9641C626CFE7";
shapes = (
{
closed = 1;
nodes = (
(258,0,l),
(348,0,l),
(348,204,l),
(258,204,l)
);
},
{
closed = 1;
nodes = (
(343,188,l),
(169,452,l),
(69,452,l),
(266,151,l)
);
},
{
closed = 1;
nodes = (
(339,152,l),
(532,452,l),
(432,452,l),
(263,190,l)
);
}
);
width = 600;
},
{
anchors = (
{
name = bottom;
pos = (300,0);
},
{
name = top;
pos = (300,452);
}
);
layerId = "D8CC3DFA-F3EA-4C7D-84FB-05FCEA5C6558";
shapes = (
{
closed = 1;
nodes = (
(287,0,l),
(317,0,l),
(317,204,l),
(287,204,l)
);
},
{
closed = 1;
nodes = (
(313,188,l),
(139,452,l),
(104,452,l),
(292,165,l)
);
},
{
closed = 1;
nodes = (
(312,166,l),
(496,452,l),
(462,452,l),
(291,190,l)
);
}
);
width = 600;
}
);
unicode = 655;
},
{
color = 4;
glyphname = a;
lastChange = "2025-08-10 18:48:17 +0000";
layers = (
{
anchors = (
{
name = bottom;
pos = (300,0);
},
{
name = ogonek;
pos = (481,0);
},
{
name = top;
pos = (300,452);
}
);
layerId = m01;
shapes = (
{
closed = 1;
nodes = (
(488,270,l),
(201,270,ls),
(133,270,o),
(81,218,o),
(82,150,cs),
(82,120,ls),
(81,52,o),
(133,0,o),
(201,0,cs),
(518,0,l),
(518,332,ls),
(518,400,o),
(467,452,o),
(399,452,cs),
(112,452,l),
(112,392,l),
(399,392,ls),
(433,392,o),
(458,366,o),
(458,332,cs),
(458,30,l),
(488,60,l),
(201,60,ls),
(167,60,o),
(141,86,o),
(142,120,cs),
(142,150,ls),
(141,184,o),
(167,210,o),
(201,210,cs),
(488,210,l)
);
}
);
width = 600;
},
{
associatedMasterId = "D8CC3DFA-F3EA-4C7D-84FB-05FCEA5C6558";
layerId = "50B656A0-B421-4AE1-84BE-0758F485499E";
width = 600;
},
{
anchors = (
{
name = bottom;
pos = (300,0);
},
{
name = ogonek;
pos = (466,0);
},
{
name = top;
pos = (300,452);
}
);
layerId = "BDCBA76E-5474-4BD3-A1CC-9641C626CFE7";
shapes = (
{
closed = 1;
nodes = (
(472,285,l),
(201,285,ls),
(133,285,o),
(81,233,o),
(82,165,cs),
(82,119,ls),
(82,51,o),
(134,-1,o),
(202,0,cs),
(518,0,l),
(518,333,ls),
(518,401,o),
(466,453,o),
(398,452,cs),
(112,452,l),
(112,362,l),
(398,362,ls),
(415,362,o),
(428,349,o),
(428,332,cs),
(428,45,l),
(473,90,l),
(202,90,ls),
(185,90,o),
(172,103,o),
(172,120,cs),
(172,165,ls),
(172,182,o),
(185,195,o),
(202,195,cs),
(472,195,l)
);
}
);
width = 600;
},
{
anchors = (
{
name = bottom;
pos = (300,0);
},
{
name = ogonek;
pos = (503,0);
},
{
name = top;
pos = (300,452);
}
);
layerId = "D8CC3DFA-F3EA-4C7D-84FB-05FCEA5C6558";
shapes = (
{
closed = 1;
nodes = (
(502,270,l),
(201,270,ls),
(133,270,o),
(81,218,o),
(82,150,cs),
(82,120,ls),
(81,52,o),
(133,0,o),
(201,0,cs),
(518,0,l),
(518,333,ls),
(518,401,o),
(466,453,o),
(398,452,cs),
(112,452,l),
(112,422,l),
(398,422,ls),
(449,423,o),
(488,384,o),
(488,333,cs),
(488,15,l),
(502,30,l),
(201,30,ls),
(150,30,o),
(111,69,o),
(112,120,cs),
(112,150,ls),
(111,201,o),
(150,240,o),
(201,240,cs),
(502,240,l)
);
}
);
width = 600;
}
);
unicode = 97;
},
{
glyphname = "alpha-latin";
lastChange = "2025-08-03 16:21:54 +0000";
layers = (
{
anchors = (
{
name = bottom;
pos = (300,0);
},
{
name = top;
pos = (300,452);
}
);
layerId = m01;
shapes = (
{
closed = 1;
nodes = (
(313,0,ls),
(349,0,o),
(381,15,o),
(402,38,c),
(424,14,o),
(455,0,o),
(491,0,cs),
(555,0,l),
(555,60,l),
(491,60,ls),
(458,60,o),
(432,83,o),
(432,116,cs),
(432,336,ls),
(432,369,o),
(458,392,o),
(491,392,cs),
(555,392,l),
(555,452,l),
(491,452,ls),
(455,452,o),
(423,437,o),
(402,414,c),
(380,438,o),
(349,452,o),
(313,452,cs),
(165,452,ls),
(97,452,o),
(45,400,o),
(46,332,cs),
(46,120,ls),
(45,52,o),
(97,0,o),
(165,0,cs)
);
},
{
closed = 1;
nodes = (
(131,60,o),
(105,86,o),
(106,120,cs),
(106,332,ls),
(105,366,o),
(131,392,o),
(165,392,cs),
(313,392,ls),
(346,392,o),
(372,369,o),
(372,336,cs),
(372,116,ls),
(372,83,o),
(346,60,o),
(313,60,cs),
(165,60,ls)
);
}
);
width = 600;
},
{
anchors = (
{
name = bottom;
pos = (300,0);
},
{
name = top;
pos = (300,452);
}
);
layerId = "BDCBA76E-5474-4BD3-A1CC-9641C626CFE7";
shapes = (
{
closed = 1;
nodes = (
(313,0,ls),
(341,0,o),
(367,9,o),
(387,24,c),
(407,9,o),
(433,0,o),
(461,0,cs),
(555,0,l),
(555,90,l),
(462,90,ls),
(445,90,o),
(432,103,o),
(432,120,cs),
(432,332,ls),
(432,349,o),
(445,362,o),
(462,362,cs),
(555,362,l),
(555,452,l),
(461,452,ls),
(433,452,o),
(407,443,o),
(387,428,c),
(367,443,o),
(341,452,o),
(313,452,cs),
(165,452,ls),
(97,452,o),
(45,400,o),
(46,332,cs),
(46,120,ls),
(45,52,o),
(97,0,o),
(165,0,cs)
);
},
{
closed = 1;
nodes = (
(149,90,o),
(136,103,o),
(136,120,cs),
(136,332,ls),
(136,349,o),
(149,362,o),
(166,362,cs),
(312,362,ls),
(329,362,o),
(342,349,o),
(342,332,cs),
(342,120,ls),
(342,103,o),
(329,90,o),
(312,90,cs),
(166,90,ls)
);
}
);
width = 600;
},
{
anchors = (
{
name = bottom;
pos = (300,0);
},
{
name = top;
pos = (300,452);
}
);
layerId = "D8CC3DFA-F3EA-4C7D-84FB-05FCEA5C6558";
shapes = (
{
closed = 1;
nodes = (
(298,0,ls),
(344,0,o),
(382,23,o),
(402,59,c),
(422,23,o),
(460,0,o),
(506,0,cs),
(555,0,l),
(555,30,l),
(506,30,ls),
(456,30,o),
(417,66,o),
(417,116,cs),
(417,336,l),
(417,386,o),
(456,422,o),
(506,422,cs),
(555,422,l),
(555,452,l),
(506,452,ls),
(460,452,o),
(422,429,o),
(402,393,c),
(382,429,o),
(344,452,o),
(298,452,cs),
(165,452,ls),
(97,452,o),
(45,400,o),
(46,332,cs),
(46,120,ls),
(45,52,o),
(97,0,o),
(165,0,cs)
);
},
{
closed = 1;
nodes = (
(114,30,o),
(75,69,o),
(76,120,cs),
(76,332,ls),
(75,383,o),
(114,422,o),
(165,422,cs),
(298,422,ls),
(348,422,o),
(387,386,o),
(387,336,c),
(387,116,ls),
(387,66,o),
(348,30,o),
(298,30,cs),
(165,30,ls)
);
}
);
width = 600;
}
);
unicode = 593;
},
{
glyphname = ae;
lastChange = "2025-08-03 16:22:41 +0000";
layers = (
{
anchors = (
{
name = bottom;
pos = (300,0);
},
{
name = top;
pos = (300,452);
}
);
layerId = m01;
shapes = (
{
closed = 1;
nodes = (
(83,392,l),
(210,392,ls),
(243,392,o),
(269,369,o),
(269,336,c),
(269,116,ls),
(269,83,o),
(243,60,o),
(210,60,cs),
(172,60,ls),
(138,60,o),
(112,86,o),
(113,120,cs),
(113,140,ls),
(112,174,o),
(138,200,o),
(172,200,cs),
(289,200,l),
(289,260,l),
(172,260,ls),
(104,260,o),
(52,208,o),
(53,140,cs),
(53,120,ls),
(52,52,o),
(104,0,o),
(172,0,cs),
(210,0,ls),
(246,0,o),
(278,15,o),
(299,38,c),
(321,14,o),
(352,0,o),
(388,0,cs),
(548,0,l),
(548,60,l),
(388,60,ls),
(355,60,o),
(329,83,o),
(329,116,cs),
(329,336,l),
(329,369,o),
(355,392,o),
(388,392,cs),
(426,392,ls),
(460,392,o),
(486,366,o),
(485,332,cs),
(485,320,ls),
(486,286,o),
(460,260,o),
(426,260,cs),
(309,260,l),
(309,200,l),
(426,200,ls),
(494,200,o),
(546,252,o),
(545,320,cs),
(545,332,ls),
(546,400,o),
(494,452,o),
(426,452,cs),
(388,452,ls),
(352,452,o),
(320,437,o),
(299,414,c),
(277,438,o),
(246,452,o),
(210,452,cs),
(83,452,l)
);
}
);
width = 600;
},
{
anchors = (
{
name = bottom;
pos = (300,0);
},
{
name = top;
pos = (300,452);
}
);
layerId = "BDCBA76E-5474-4BD3-A1CC-9641C626CFE7";
shapes = (
{
closed = 1;
nodes = (
(92,362,l),
(225,362,ls),
(242,362,o),
(255,349,o),
(255,332,cs),
(255,120,ls),
(255,103,o),
(242,90,o),
(225,90,cs),
(172,90,ls),
(155,90,o),
(142,103,o),
(142,120,cs),
(142,165,ls),
(142,182,o),
(155,195,o),
(172,195,cs),
(291,195,l),
(291,285,l),
(171,285,ls),
(103,285,o),
(51,233,o),
(52,165,cs),
(52,120,ls),
(51,52,o),
(103,0,o),
(171,0,cs),
(226,0,ls),
(254,0,o),
(280,9,o),
(300,24,c),
(320,9,o),
(346,0,o),
(374,0,cs),
(548,0,l),
(548,90,l),
(375,90,ls),
(358,90,o),
(345,103,o),
(345,120,cs),
(345,332,ls),
(345,349,o),
(358,362,o),
(375,362,cs),
(428,362,ls),
(445,362,o),
(458,349,o),
(458,332,cs),
(458,315,ls),
(458,298,o),
(445,285,o),
(428,285,cs),
(309,285,l),
(309,195,l),
(429,195,ls),
(497,195,o),
(549,247,o),
(548,315,cs),
(548,332,ls),
(549,400,o),
(497,452,o),
(429,452,cs),
(374,452,ls),
(346,452,o),
(320,443,o),
(300,428,c),
(280,443,o),
(254,452,o),
(226,452,cs),
(92,452,l)
);
}
);
width = 600;
},
{
anchors = (
{
name = bottom;
pos = (300,0);
},
{
name = top;
pos = (300,452);
}
);
layerId = "D8CC3DFA-F3EA-4C7D-84FB-05FCEA5C6558";
shapes = (
{
closed = 1;
nodes = (
(92,422,l),
(201,422,ls),
(251,422,o),
(290,386,o),
(290,336,c),
(290,116,ls),
(290,66,o),
(251,30,o),
(201,30,cs),
(171,30,ls),
(120,30,o),
(81,69,o),
(82,120,cs),
(82,121,ls),
(81,172,o),
(120,211,o),
(171,211,cs),
(300,211,l),
(300,241,l),
(171,241,ls),
(103,241,o),
(51,189,o),
(52,121,cs),
(52,120,ls),
(51,52,o),
(103,0,o),
(171,0,cs),
(201,0,ls),
(247,0,o),
(285,23,o),
(305,59,c),
(325,23,o),
(363,0,o),
(409,0,cs),
(548,0,l),
(548,30,l),
(409,30,ls),
(359,30,o),
(320,66,o),
(320,116,cs),
(320,336,l),
(320,386,o),
(359,422,o),
(409,422,cs),
(429,422,ls),
(480,422,o),
(519,383,o),
(518,332,cs),
(518,331,ls),
(519,280,o),
(480,241,o),
(429,241,cs),
(310,241,l),
(310,211,l),
(429,211,ls),
(497,211,o),
(549,263,o),
(548,331,cs),
(548,332,ls),
(549,400,o),
(497,452,o),
(429,452,cs),
(409,452,ls),
(363,452,o),
(325,429,o),
(305,393,c),
(285,429,o),
(247,452,o),
(201,452,cs),
(92,452,l)
);
}
);
width = 600;
}
);
unicode = 230;
},
{
color = 4;
glyphname = b;
lastChange = "2025-08-02 18:32:24 +0000";
layers = (
{
anchors = (
{
name = bottom;
pos = (268,0);
},
{
name = center;
pos = (268,225);
},
{
name = top;
pos = (268,450);
}
);
layerId = m01;
shapes = (
{
closed = 1;
nodes = (
(399,392,ls),
(433,392,o),
(458,366,o),
(458,332,cs),
(458,120,ls),
(458,86,o),
(433,60,o),
(399,60,cs),
(112,60,l),
(142,30,l),
(142,620,l),
(82,620,l),
(82,0,l),
(399,0,ls),
(467,0,o),
(518,52,o),
(518,120,cs),
(518,332,ls),
(518,400,o),
(467,452,o),
(399,452,cs),
(112,452,l),
(112,392,l)
);
}
);
width = 600;
},
{
anchors = (
{
name = bottom;
pos = (300,0);
},
{
name = center;
pos = (150,640);
},
{
name = top;
pos = (300,452);
}
);
layerId = "BDCBA76E-5474-4BD3-A1CC-9641C626CFE7";
shapes = (
{
closed = 1;
nodes = (
(398,362,ls),
(415,362,o),
(428,349,o),
(428,332,cs),
(428,120,ls),
(428,103,o),
(415,90,o),
(398,90,cs),
(127,90,l),
(172,45,l),
(172,620,l),
(82,620,l),
(82,0,l),
(399,0,ls),
(467,0,o),
(518,52,o),
(518,120,cs),
(518,333,ls),
(518,401,o),
(466,452,o),
(398,452,cs),
(127,452,l),
(127,362,l)
);
}
);
width = 600;
},
{
anchors = (
{
name = bottom;
pos = (300,0);
},
{
name = center;
pos = (150,640);
},
{
name = top;
pos = (300,452);
}
);
layerId = "D8CC3DFA-F3EA-4C7D-84FB-05FCEA5C6558";
shapes = (
{
closed = 1;
nodes = (
(398,422,ls),
(449,422,o),
(488,384,o),
(488,333,cs),
(488,120,ls),
(488,69,o),
(450,30,o),
(399,30,cs),
(97,30,l),
(112,15,l),
(112,620,l),
(82,620,l),
(82,0,l),
(399,0,ls),
(467,0,o),
(518,52,o),
(518,120,cs),
(518,333,ls),
(518,401,o),
(466,452,o),
(398,452,cs),
(97,452,l),
(97,422,l)
);
}
);
width = 600;
}
);
unicode = 98;
},
{
glyphname = bilabialpercussive;
lastChange = "2025-08-03 16:25:00 +0000";
layers = (
{
hints = (
{
name = _corner.round;
origin = (0,1);
scale = (0.5,0.5);
type = Corner;
},
{
name = _corner.round;
origin = (0,2);
scale = (0.5,0.5);
type = Corner;
},
{
name = _corner.round;
origin = (0,3);
scale = (0.5,0.5);
type = Corner;
},
{
name = _corner.round;
origin = (1,1);
scale = (0.5,0.5);
type = Corner;
},
{
name = _corner.round;
origin = (1,2);
scale = (0.5,0.5);
type = Corner;
},
{
name = _corner.round;
origin = (1,3);
scale = (0.5,0.5);
type = Corner;
}
);
layerId = m01;
shapes = (
{
attr = {
lineCapEnd = "4";
lineCapStart = "4";
strokeWidth = 50;
};
closed = 0;
nodes = (
(95,269,l),
(210,15,l),
(300,232,l),
(390,15,l),
(505,269,l)
);
},
{
attr = {
lineCapEnd = "4";
lineCapStart = "4";
strokeWidth = 50;
};
closed = 0;
nodes = (
(95,620,l),
(210,366,l),
(300,583,l),
(390,366,l),
(505,620,l)
);
}
);
width = 600;
},
{
hints = (
{
name = _corner.round;
origin = (0,1);
scale = (0.5,0.5);
type = Corner;
},
{
name = _corner.round;
origin = (0,2);
scale = (0.5,0.5);
type = Corner;
},
{
name = _corner.round;
origin = (0,3);
scale = (0.5,0.5);
type = Corner;
},
{
name = _corner.round;
origin = (1,1);
scale = (0.5,0.5);
type = Corner;
},
{
name = _corner.round;
origin = (1,2);
scale = (0.5,0.5);
type = Corner;
},
{
name = _corner.round;
origin = (1,3);
scale = (0.5,0.5);
type = Corner;
}
);
layerId = "BDCBA76E-5474-4BD3-A1CC-9641C626CFE7";
shapes = (
{
attr = {
lineCapEnd = "4";
lineCapStart = "4";
strokeWidth = 80;
};
closed = 0;
nodes = (
(95,279,l),
(210,25,l),
(300,242,l),
(390,25,l),
(505,279,l)
);
},
{
attr = {
lineCapEnd = "4";
lineCapStart = "4";
strokeWidth = 80;
};
closed = 0;
nodes = (
(95,620,l),
(210,366,l),
(300,583,l),
(390,366,l),
(505,620,l)
);
}
);
width = 600;
},
{
hints = (
{
name = _corner.round;
origin = (0,1);
scale = (0.5,0.5);
type = Corner;
},
{
name = _corner.round;
origin = (0,2);
scale = (0.5,0.5);
type = Corner;
},
{
name = _corner.round;
origin = (0,3);
scale = (0.5,0.5);
type = Corner;
},
{
name = _corner.round;
origin = (1,1);
scale = (0.5,0.5);
type = Corner;
},
{
name = _corner.round;
origin = (1,2);
scale = (0.5,0.5);
type = Corner;
},
{
name = _corner.round;
origin = (1,3);
scale = (0.5,0.5);
type = Corner;
}
);
layerId = "D8CC3DFA-F3EA-4C7D-84FB-05FCEA5C6558";
shapes = (
{
attr = {
lineCapEnd = "4";
lineCapStart = "4";
strokeWidth = 30;
};
closed = 0;
nodes = (
(95,269,l),
(210,15,l),
(300,232,l),
(390,15,l),
(505,269,l)
);
},
{
attr = {
lineCapEnd = "4";
lineCapStart = "4";
strokeWidth = 30;
};
closed = 0;
nodes = (
(95,620,l),
(210,366,l),
(300,583,l),
(390,366,l),
(505,620,l)
);
}
);
width = 600;
}
);
unicode = 684;
},
{
glyphname = bmiddletilde;
lastChange = "2025-08-03 16:25:32 +0000";
layers = (
{
layerId = m01;
shapes = (
{
closed = 1;
nodes = (
(193,392,l),
(438,392,ls),
(472,392,o),
(498,366,o),
(497,332,cs),
(497,120,ls),
(498,86,o),
(472,60,o),
(438,60,cs),
(193,60,l),
(221,33,l),
(221,620,l),
(161,620,l),
(161,0,l),
(438,0,ls),
(506,0,o),
(558,52,o),
(557,120,cs),
(557,332,ls),
(558,400,o),
(506,452,o),
(438,452,cs),
(193,452,l)
);
},
{
attr = {
identifier = ID0x330147af0;
};
closed = 1;
nodes = (
(291,538,o),
(285,529,o),
(259,529,cs),
(214,529,o),
(209,600,o),
(136,600,cs),
(96,600,o),
(43,576,o),
(43,479,c),
(103,479,l),
(103,530,o),
(119,540,o),
(136,540,cs),
(173,540,o),
(186,469,o),
(259,469,cs),
(305,469,o),
(351,486,o),
(351,590,c),
(291,590,l)
);
}
);
width = 600;
},
{
layerId = "BDCBA76E-5474-4BD3-A1CC-9641C626CFE7";
shapes = (
{
closed = 1;
nodes = (
(207,362,l),
(438,362,ls),
(455,362,o),
(468,349,o),
(468,332,cs),
(468,120,ls),
(468,103,o),
(455,90,o),
(438,90,cs),
(207,90,l),
(252,45,l),
(252,620,l),
(162,620,l),
(162,0,l),
(439,0,ls),
(507,0,o),
(559,52,o),
(558,120,cs),
(558,332,ls),
(559,400,o),
(507,452,o),
(439,452,cs),
(207,452,l)
);
},
{
attr = {
identifier = ID0x330147af0;
};
closed = 1;
nodes = (
(345,575,o),
(330,556,o),
(302,556,c),
(254,556,o),
(251,620,o),
(170,620,c),
(93,620,o),
(42,567,o),
(42,489,c),
(122,489,l),
(122,523,o),
(139,540,o),
(170,540,c),
(205,540,o),
(219,476,o),
(302,476,c),
(377,476,o),
(425,534,o),
(425,614,c),
(345,614,l)
);
}
);
width = 600;
},
{
layerId = "D8CC3DFA-F3EA-4C7D-84FB-05FCEA5C6558";
shapes = (
{
closed = 1;
nodes = (
(177,422,l),
(439,422,ls),
(490,422,o),
(529,383,o),
(528,332,cs),
(528,120,ls),
(529,69,o),
(490,30,o),
(439,30,cs),
(174,30,l),
(192,15,l),
(192,620,l),
(162,620,l),
(162,0,l),
(439,0,ls),
(507,0,o),
(559,52,o),
(558,120,cs),
(558,332,ls),
(559,400,o),
(507,452,o),
(439,452,cs),
(177,452,l)
);
},
{
attr = {
identifier = ID0x330147af0;
};
closed = 1;
nodes = (
(290,526,o),
(274,518,o),
(243,518,cs),
(187,518,o),
(188,589,o),
(120,589,cs),
(85,589,o),
(42,568,o),
(42,483,c),
(72,483,l),
(72,546,o),
(97,559,o),
(120,559,cs),
(169,559,o),
(170,488,o),
(243,488,cs),
(284,488,o),
(320,502,o),
(320,594,c),
(290,594,l)
);
}
);
width = 600;
}
);
unicode = 7532;
},
{
color = 4;
glyphname = c;
lastChange = "2025-08-02 18:37:19 +0000";
layers = (
{
anchors = (
{
name = bottom;
pos = (300,0);
},
{
name = top;
pos = (300,452);
}
);
layerId = m01;
shapes = (
{
closed = 1;
nodes = (
(518,452,l),
(201,452,ls),
(133,452,o),
(82,400,o),
(82,332,cs),
(82,120,ls),
(82,52,o),
(133,0,o),
(201,0,cs),
(518,0,l),
(518,60,l),
(201,60,ls),
(167,60,o),
(142,86,o),
(142,120,cs),
(142,332,ls),
(142,366,o),
(167,392,o),
(201,392,cs),
(518,392,l)
);
}
);
width = 600;
},
{
anchors = (
{
name = bottom;
pos = (300,0);
},
{
name = top;
pos = (300,452);
}
);
layerId = "BDCBA76E-5474-4BD3-A1CC-9641C626CFE7";
shapes = (
{
closed = 1;
nodes = (
(516,452,l),
(199,452,ls),
(131,452,o),
(80,400,o),
(80,332,cs),
(80,119,ls),
(80,51,o),
(132,-1,o),
(200,0,cs),
(516,0,l),
(516,90,l),
(200,90,ls),
(183,90,o),
(170,103,o),
(170,120,cs),
(170,332,ls),
(170,349,o),
(183,362,o),
(200,362,cs),
(516,362,l)
);
}
);
width = 600;
},
{
anchors = (
{
name = bottom;
pos = (300,0);
},
{
name = top;
pos = (300,452);
}
);
layerId = "D8CC3DFA-F3EA-4C7D-84FB-05FCEA5C6558";
shapes = (
{
closed = 1;
nodes = (
(518,452,l),
(201,452,ls),
(133,452,o),
(82,400,o),
(82,332,cs),
(82,120,ls),
(82,52,o),
(133,0,o),
(201,0,cs),
(518,0,l),
(518,30,l),
(201,30,ls),
(150,30,o),
(112,69,o),
(112,120,cs),
(112,332,ls),
(112,383,o),
(150,422,o),
(201,422,cs),
(518,422,l)
);
}
);
width = 600;
}
);
unicode = 99;
},
{
glyphname = ccurl;
lastChange = "2025-08-03 16:26:08 +0000";
layers = (
{
anchors = (
{
name = bottom;
pos = (300,0);
},
{
name = top;
pos = (300,452);
}
);
layerId = m01;
shapes = (
{
closed = 1;
nodes = (
(439,0,l),
(439,60,l),
(186,60,ls),
(152,60,o),
(127,86,o),
(127,119,cs),
(127,332,ls),
(126,366,o),
(152,392,o),
(186,392,cs),
(503,392,l),
(503,452,l),
(186,452,ls),
(118,452,o),
(66,400,o),
(67,332,cs),
(67,120,ls),
(66,52,o),
(118,0,o),
(186,0,cs)
);
},
{
pos = (32,0);
ref = _part.curl;
}
);
width = 600;
},
{
anchors = (
{
name = bottom;
pos = (300,0);
},
{
name = top;
pos = (300,452);
}
);
layerId = "BDCBA76E-5474-4BD3-A1CC-9641C626CFE7";
shapes = (
{
closed = 1;
nodes = (
(424,0,l),
(424,90,l),
(187,90,ls),
(170,90,o),
(157,103,o),
(157,120,cs),
(157,332,ls),
(157,349,o),
(170,362,o),
(187,362,cs),
(503,362,l),
(503,452,l),
(186,452,ls),
(118,452,o),
(66,400,o),
(67,332,cs),
(67,120,ls),
(66,52,o),
(118,0,o),
(186,0,cs)
);
},
{
pos = (17,15);
ref = _part.curl;
}
);
width = 600;
},
{
anchors = (
{
name = bottom;
pos = (300,0);
},
{
name = top;
pos = (300,452);
}
);
layerId = "D8CC3DFA-F3EA-4C7D-84FB-05FCEA5C6558";
shapes = (
{
closed = 1;
nodes = (
(439,0,l),
(439,30,l),
(201,30,ls),
(150,30,o),
(111,69,o),
(112,120,cs),
(112,332,ls),
(111,383,o),
(150,422,o),
(201,422,cs),
(518,422,l),
(518,452,l),
(201,452,ls),
(133,452,o),
(81,400,o),
(82,332,cs),
(82,120,ls),
(81,52,o),
(133,0,o),
(201,0,cs)
);
},
{
pos = (32,-15);
ref = _part.curl;
}
);
width = 600;
}
);
unicode = 597;
},
{
glyphname = "chi-latin";
lastChange = "2025-08-10 18:49:09 +0000";
layers = (
{
layerId = m01;
shapes = (
{
attr = {
lineCapEnd = 4;
lineCapStart = 4;
strokeWidth = 60;
};
closed = 0;
nodes = (
(556,-157,l),
(491,-181,o),
(447,-170,o),
(422,-136,cs),
(388,-89,o),
(194,293,o),
(160,355,cs),
(126,417,o),
(82,426,o),
(36,421,cs)
);
},
{
closed = 1;
nodes = (
(68,-200,l),
(128,-200,l),
(525,452,l),
(465,452,l)
);
}
);
width = 600;
},
{
layerId = "BDCBA76E-5474-4BD3-A1CC-9641C626CFE7";
shapes = (
{
attr = {
lineCapEnd = 4;
lineCapStart = 4;
strokeWidth = 80;
};
closed = 0;
nodes = (
(556,-147,l),
(491,-171,o),
(447,-160,o),
(422,-128,cs),
(388,-82,o),
(195,289,o),
(160,349,cs),
(126,406,o),
(82,415,o),
(36,410,cs)
);
},
{
closed = 1;
nodes = (
(48,-200,l),
(148,-200,l),
(545,452,l),
(445,452,l)
);
}
);
width = 600;
},
{
layerId = "D8CC3DFA-F3EA-4C7D-84FB-05FCEA5C6558";
shapes = (
{
attr = {
lineCapEnd = 4;
lineCapStart = 4;
strokeWidth = 30;
};
closed = 0;
nodes = (
(556,-157,l),
(491,-181,o),
(447,-170,o),
(422,-136,cs),
(388,-89,o),
(195,295,o),
(160,357,cs),
(126,417,o),
(82,426,o),
(36,421,cs)
);
},
{
closed = 1;
nodes = (
(83,-200,l),
(118,-200,l),
(515,452,l),
(480,452,l)
);
}
);
width = 600;
}
);
unicode = 43859;
},
{
glyphname = chook;
lastChange = "2025-08-03 16:26:52 +0000";
layers = (
{
anchors = (
{
name = bottom;
pos = (300,0);
},
{
name = top;
pos = (300,800);
}
);
layerId = m01;
shapes = (
{
closed = 1;
nodes = (
(486,0,l),
(486,60,l),
(169,60,ls),
(135,60,o),
(110,86,o),
(110,120,cs),
(110,332,ls),
(110,366,o),
(135,392,o),
(169,392,cs),
(486,392,l),
(486,452,l),
(169,452,ls),
(101,452,o),
(50,400,o),
(50,332,cs),
(50,120,ls),
(50,52,o),
(101,0,o),
(169,0,cs)
);
},
{
alignment = -1;
pos = (16,-14);
ref = _part.hook;
}
);
width = 600;
},
{
anchors = (
{
name = bottom;
pos = (300,0);
},
{
name = top;
pos = (300,800);
}
);
layerId = "BDCBA76E-5474-4BD3-A1CC-9641C626CFE7";
shapes = (
{
closed = 1;
nodes = (
(486,0,l),
(486,90,l),
(170,90,ls),
(153,90,o),
(140,103,o),
(140,120,cs),
(140,332,ls),
(140,349,o),
(153,362,o),
(170,362,cs),
(486,362,l),
(486,452,l),
(169,452,ls),
(101,452,o),
(50,400,o),
(50,332,cs),
(50,119,ls),
(50,51,o),
(102,-1,o),
(170,0,cs)
);
},
{
alignment = -1;
pos = (16,-14);
ref = _part.hook;
}
);
width = 600;
},
{
anchors = (
{
name = bottom;
pos = (300,0);
},
{
name = top;
pos = (300,800);
}
);
layerId = "D8CC3DFA-F3EA-4C7D-84FB-05FCEA5C6558";
shapes = (
{
closed = 1;
nodes = (
(486,0,l),
(486,30,l),
(169,30,ls),
(118,30,o),
(79,69,o),
(80,120,cs),
(80,332,ls),
(79,383,o),
(118,422,o),
(169,422,cs),
(456,422,l),
(456,452,l),
(169,452,ls),
(101,452,o),
(49,400,o),
(50,332,cs),
(50,120,ls),
(49,52,o),
(101,0,o),
(169,0,cs)
);
},
{
alignment = -1;
pos = (16,-14);
ref = _part.hook;
}
);
width = 600;
}
);
unicode = 392;
},
{
color = 4;
glyphname = d;
lastChange = "2025-08-02 18:32:52 +0000";
layers = (
{
anchors = (
{
name = bottom;
pos = (268,0);
},
{
name = center;
pos = (268,225);
},
{
name = top;
pos = (268,450);
},
{
name = topright;
pos = (516,800);
}
);
layerId = m01;
shapes = (
{
closed = 1;
nodes = (
(487,452,l),
(201,452,ls),
(133,452,o),
(82,400,o),
(82,332,cs),
(82,120,ls),
(82,52,o),
(133,0,o),
(201,0,cs),
(518,0,l),
(518,620,l),
(458,620,l),
(458,30,l),
(487,60,l),
(201,60,ls),
(167,60,o),
(142,86,o),
(142,120,cs),
(142,332,ls),
(142,366,o),
(167,392,o),
(201,392,cs),
(487,392,l)
);
}
);
width = 600;
},
{
anchors = (
{
name = bottom;
pos = (300,0);
},
{
name = center;
pos = (450,640);
},
{
name = top;
pos = (300,452);
},
{
name = topright;
pos = (580,800);
}
);
layerId = "BDCBA76E-5474-4BD3-A1CC-9641C626CFE7";
shapes = (
{
closed = 1;
nodes = (
(477,452,l),
(201,452,ls),
(133,452,o),
(82,400,o),
(82,332,cs),
(82,119,ls),
(82,51,o),
(134,-1,o),
(202,0,cs),
(518,0,l),
(518,620,l),
(428,620,l),
(428,45,l),
(473,90,l),
(202,90,ls),
(185,90,o),
(172,103,o),
(172,120,cs),
(172,332,ls),
(172,349,o),
(185,362,o),
(202,362,cs),
(477,362,l)
);
}
);
width = 600;
},
{
anchors = (
{
name = bottom;
pos = (300,0);
},
{
name = center;
pos = (450,640);
},
{
name = top;
pos = (300,452);
},
{
name = topright;
pos = (580,800);
}
);
layerId = "D8CC3DFA-F3EA-4C7D-84FB-05FCEA5C6558";
shapes = (
{
closed = 1;
nodes = (
(502,452,l),
(201,452,ls),
(133,452,o),
(82,400,o),
(82,332,cs),
(82,120,ls),
(82,52,o),
(133,0,o),
(201,0,cs),
(518,0,l),
(518,620,l),
(488,620,l),
(488,15,l),
(502,30,l),
(201,30,ls),
(150,30,o),
(112,69,o),
(112,120,cs),
(112,332,ls),
(112,383,o),
(150,422,o),
(201,422,cs),
(502,422,l)
);
}
);
width = 600;
}
);
unicode = 100;
},
{
glyphname = dcaron;
lastChange = "2025-08-03 16:27:29 +0000";
layers = (
{
layerId = m01;
shapes = (
{
closed = 1;
nodes = (
(423,0,l),
(423,620,l),
(363,620,l),
(363,15,l),
(408,60,l),
(176,60,ls),
(142,60,o),
(116,86,o),
(117,120,cs),
(117,332,ls),
(116,366,o),
(142,392,o),
(176,392,cs),
(393,392,l),
(393,452,l),
(176,452,ls),
(108,452,o),
(56,400,o),
(57,332,cs),
(57,120,ls),
(56,52,o),
(108,0,o),
(176,0,cs)
);
},
{
closed = 1;
nodes = (
(543,617,l),
(494,627,l),
(466,472,l),
(515,462,l)
);
},
{
closed = 1;
nodes = (
(525,581,o),
(543,599,o),
(543,621,cs),
(543,643,o),
(525,661,o),
(503,661,cs),
(481,661,o),
(463,643,o),
(463,621,cs),
(463,599,o),
(481,581,o),
(503,581,cs)
);
}
);
width = 600;
},
{
layerId = "BDCBA76E-5474-4BD3-A1CC-9641C626CFE7";
shapes = (
{
closed = 1;
nodes = (
(410,0,l),
(410,620,l),
(320,620,l),
(320,45,l),
(365,90,l),
(170,90,ls),
(153,90,o),
(140,103,o),
(140,120,cs),
(140,332,ls),
(140,349,o),
(153,362,o),
(170,362,cs),
(367,362,l),
(367,452,l),
(169,452,ls),
(101,452,o),
(49,400,o),
(50,332,cs),
(50,120,ls),
(49,52,o),
(101,0,o),
(169,0,cs)
);
},
{
closed = 1;
nodes = (
(549,589,l),
(477,598,l),
(449,443,l),
(521,434,l)
);
},
{
closed = 1;
nodes = (
(526,549,o),
(551,574,o),
(551,605,cs),
(551,633,o),
(526,661,o),
(495,661,cs),
(464,661,o),
(439,636,o),
(439,605,cs),
(439,574,o),
(464,549,o),
(495,549,cs)
);
}
);
width = 600;
},
{
layerId = "D8CC3DFA-F3EA-4C7D-84FB-05FCEA5C6558";
shapes = (
{
closed = 1;
nodes = (
(423,0,l),
(423,620,l),
(393,620,l),
(393,14,l),
(408,30,l),
(186,30,ls),
(135,30,o),
(96,69,o),
(97,120,cs),
(97,332,ls),
(96,383,o),
(135,422,o),
(186,422,cs),
(408,422,l),
(408,452,l),
(186,452,ls),
(118,452,o),
(66,400,o),
(67,332,cs),
(67,120,ls),
(66,52,o),
(118,0,o),
(186,0,cs)
);
},
{
closed = 1;
nodes = (
(534,616,l),
(505,623,l),
(482,498,l),
(511,491,l)
);
},
{
closed = 1;
nodes = (
(521,591,o),
(534,605,o),
(534,621,cs),
(534,638,o),
(521,651,o),
(504,651,cs),
(488,651,o),
(474,638,o),
(474,621,cs),
(474,605,o),
(488,591,o),
(504,591,cs)
);
}
);
width = 600;
}
);
unicode = 271;
},
{
glyphname = dcroat;
lastChange = "2025-08-03 16:29:36 +0000";
layers = (
{
layerId = m01;
shapes = (
{
pos = (-19,0);
ref = d;
},
{
closed = 1;
nodes = (
(275,592,l),
(275,542,l),
(537,542,l),
(537,592,l)
);
}
);
width = 600;
},
{
layerId = "BDCBA76E-5474-4BD3-A1CC-9641C626CFE7";
shapes = (
{
pos = (-9,0);
ref = d;
},
{
closed = 1;
nodes = (
(267,584,l),
(267,494,l),
(528,494,l),
(528,584,l)
);
}
);
width = 600;
},
{
layerId = "D8CC3DFA-F3EA-4C7D-84FB-05FCEA5C6558";
shapes = (
{
pos = (-27,0);
ref = d;
},
{
closed = 1;
nodes = (
(284,572,l),
(284,542,l),
(546,542,l),
(546,572,l)
);
}
);
width = 600;
}
);
unicode = 273;
},
{
glyphname = dezh;
lastChange = "2025-08-08 01:55:05 +0000";
layers = (
{
layerId = m01;
shapes = (
{
closed = 1;
nodes = (
(430,-110,ls),
(498,-110,o),
(550,-58,o),
(549,10,cs),
(549,60,ls),
(550,128,o),
(498,180,o),
(430,180,cs),
(408,180,l),
(543,380,ls),
(567,414,o),
(546,452,o),
(505,452,cs),
(166,452,ls),
(98,452,o),
(46,400,o),
(47,332,cs),
(47,120,ls),
(46,52,o),
(98,0,o),
(166,0,cs),
(305,0,l),
(305,620,l),
(245,620,l),
(245,29,l),
(275,60,l),
(166,60,ls),
(132,60,o),
(106,86,o),
(107,120,cs),
(107,332,ls),
(106,366,o),
(132,392,o),
(166,392,cs),
(478,392,l),
(335,180,l),
(335,120,l),
(430,120,ls),
(464,120,o),
(490,94,o),
(489,60,cs),
(489,10,ls),
(490,-24,o),
(464,-50,o),
(430,-50,cs),
(313,-50,l),
(313,-110,l)
);
}
);
width = 600;
},
{
layerId = "BDCBA76E-5474-4BD3-A1CC-9641C626CFE7";
shapes = (
{
closed = 1;
nodes = (
(437,-110,ls),
(505,-110,o),
(557,-58,o),
(556,10,cs),
(556,65,ls),
(557,119,o),
(527,168,o),
(478,178,cs),
(445,185,l),
(544,358,ls),
(571,402,o),
(544,452,o),
(492,452,cs),
(163,452,ls),
(95,452,o),
(43,400,o),
(44,332,cs),
(44,120,ls),
(43,52,o),
(95,0,o),
(163,0,cs),
(310,0,l),
(310,620,l),
(220,620,l),
(220,45,l),
(265,90,l),
(164,90,ls),
(147,90,o),
(134,103,o),
(134,120,cs),
(134,332,ls),
(134,349,o),
(147,362,o),
(164,362,cs),
(444,362,l),
(342,185,l),
(342,95,l),
(436,95,ls),
(453,95,o),
(466,82,o),
(466,65,cs),
(466,10,ls),
(466,-7,o),
(453,-20,o),
(436,-20,cs),
(320,-20,l),
(320,-110,l)
);
}
);
width = 600;
},
{
layerId = "D8CC3DFA-F3EA-4C7D-84FB-05FCEA5C6558";
shapes = (
{
closed = 1;
nodes = (
(432,-110,ls),
(500,-110,o),
(552,-58,o),
(551,10,cs),
(551,60,ls),
(552,128,o),
(500,180,o),
(432,180,cs),
(374,180,l),
(532,404,ls),
(548,427,o),
(536,452,o),
(507,452,cs),
(168,452,ls),
(100,452,o),
(48,400,o),
(49,332,cs),
(49,120,ls),
(48,52,o),
(100,0,o),
(168,0,cs),
(292,0,l),
(292,620,l),
(262,620,l),
(262,15,l),
(277,30,l),
(168,30,ls),
(117,30,o),
(78,69,o),
(79,120,cs),
(79,332,ls),
(78,383,o),
(117,422,o),
(168,422,cs),
(508,422,l),
(337,180,l),
(337,150,l),
(432,150,ls),
(483,150,o),
(522,111,o),
(521,60,cs),
(521,10,ls),
(522,-41,o),
(483,-80,o),
(432,-80,cs),
(315,-80,l),
(315,-110,l)
);
}
);
width = 600;
}
);
unicode = 676;
},
{
glyphname = dhook;
lastChange = "2025-08-03 16:30:56 +0000";
layers = (
{
anchors = (
{
name = bottom;
pos = (300,0);
},
{
name = top;
pos = (300,800);
}
);
layerId = m01;
shapes = (
{
closed = 1;
nodes = (
(486,0,l),
(486,620,l),
(426,620,l),
(426,30,l),
(455,60,l),
(169,60,ls),
(135,60,o),
(110,86,o),
(110,120,cs),
(110,332,ls),
(110,366,o),
(135,392,o),
(169,392,cs),
(455,392,l),
(455,452,l),
(169,452,ls),
(101,452,o),
(50,400,o),
(50,332,cs),
(50,120,ls),
(50,52,o),
(101,0,o),
(169,0,cs)
);
},
{
alignment = -1;
pos = (16,154);
ref = _part.hook;
}
);
width = 600;
},
{
anchors = (
{
name = bottom;
pos = (300,0);
},
{
name = top;
pos = (300,800);
}
);
layerId = "BDCBA76E-5474-4BD3-A1CC-9641C626CFE7";
shapes = (
{
closed = 1;
nodes = (
(486,0,l),
(486,620,l),
(396,620,l),
(396,45,l),
(441,90,l),
(170,90,ls),
(153,90,o),
(140,103,o),
(140,120,cs),
(140,332,ls),
(140,349,o),
(153,362,o),
(170,362,cs),
(445,362,l),
(445,452,l),
(169,452,ls),
(101,452,o),
(50,400,o),
(50,332,cs),
(50,119,ls),
(50,51,o),
(102,-1,o),
(170,0,cs)
);
},
{
alignment = -1;
pos = (16,154);
ref = _part.hook;
}
);
width = 600;
},
{
anchors = (
{
name = bottom;
pos = (300,0);
},
{
name = top;
pos = (300,800);
}
);
layerId = "D8CC3DFA-F3EA-4C7D-84FB-05FCEA5C6558";
shapes = (
{
closed = 1;
nodes = (
(456,0,l),
(456,620,l),
(426,620,l),
(426,13,l),
(441,30,l),
(169,30,ls),
(118,30,o),
(79,69,o),
(80,120,cs),
(80,332,ls),
(79,383,o),
(118,422,o),
(169,422,cs),
(441,422,l),
(441,452,l),
(169,452,ls),
(101,452,o),
(49,400,o),
(50,332,cs),
(50,120,ls),
(49,52,o),
(101,0,o),
(169,0,cs)
);
},
{
alignment = -1;
pos = (16,154);
ref = _part.hook;
}
);
width = 600;
}
);
unicode = 599;
},
{
glyphname = dmiddletilde;
lastChange = "2025-08-03 16:31:24 +0000";
layers = (
{
layerId = m01;
shapes = (
{
closed = 1;
nodes = (
(439,0,l),
(439,620,l),
(379,620,l),
(379,28,l),
(409,60,l),
(162,60,ls),
(128,60,o),
(102,86,o),
(103,120,cs),
(103,332,ls),
(102,366,o),
(128,392,o),
(162,392,cs),
(409,392,l),
(409,452,l),
(162,452,ls),
(94,452,o),
(42,400,o),
(43,332,cs),
(43,120,ls),
(42,52,o),
(94,0,o),
(162,0,cs)
);
},
{
attr = {
identifier = ID0x330147af0;
};
closed = 1;
nodes = (
(557,479,l),
(557,576,o),
(504,600,o),
(464,600,c),
(391,600,o),
(386,529,o),
(341,529,c),
(315,529,o),
(309,538,o),
(309,590,c),
(249,590,l),
(249,486,o),
(295,469,o),
(341,469,c),
(414,469,o),
(427,540,o),
(464,540,c),
(481,540,o),
(497,530,o),
(497,479,c)
);
}
);
width = 600;
},
{
layerId = "BDCBA76E-5474-4BD3-A1CC-9641C626CFE7";
shapes = (
{
closed = 1;
nodes = (
(444,0,l),
(444,620,l),
(354,620,l),
(354,45,l),
(399,90,l),
(168,90,ls),
(151,90,o),
(138,103,o),
(138,120,cs),
(138,332,ls),
(138,349,o),
(151,362,o),
(168,362,cs),
(399,362,l),
(399,452,l),
(167,452,ls),
(99,452,o),
(47,400,o),
(48,332,cs),
(48,120,ls),
(47,52,o),
(99,0,o),
(167,0,cs)
);
},
{
attr = {
identifier = ID0x330147af0;
};
closed = 1;
nodes = (
(552,489,l),
(552,593,o),
(493,620,o),
(449,620,cs),
(375,620,o),
(366,559,o),
(326,559,cs),
(302,559,o),
(304,569,o),
(304,610,c),
(224,610,l),
(224,497,o),
(278,479,o),
(326,479,cs),
(401,479,o),
(419,540,o),
(449,540,cs),
(462,540,o),
(472,532,o),
(472,489,c)
);
}
);
width = 600;
},
{
layerId = "D8CC3DFA-F3EA-4C7D-84FB-05FCEA5C6558";
shapes = (
{
closed = 1;
nodes = (
(443,0,l),
(443,620,l),
(413,620,l),
(413,14,l),
(428,30,l),
(166,30,ls),
(115,30,o),
(76,69,o),
(77,120,cs),
(77,332,ls),
(76,383,o),
(115,422,o),
(166,422,cs),
(428,422,l),
(428,452,l),
(166,452,ls),
(98,452,o),
(46,400,o),
(47,332,cs),
(47,120,ls),
(46,52,o),
(98,0,o),
(166,0,cs)
);
},
{
attr = {
identifier = ID0x330147af0;
};
closed = 1;
nodes = (
(553,489,l),
(553,574,o),
(510,595,o),
(475,595,c),
(407,595,o),
(408,524,o),
(352,524,c),
(321,524,o),
(305,532,o),
(305,600,c),
(275,600,l),
(275,508,o),
(311,494,o),
(352,494,c),
(425,494,o),
(426,565,o),
(475,565,c),
(498,565,o),
(523,552,o),
(523,489,c)
);
}
);
width = 600;
}
);
unicode = 7533;
},
{
glyphname = dtail;
lastChange = "2025-08-03 16:31:52 +0000";
layers = (
{
anchors = (
{
name = bottom;
pos = (300,0);
},
{
name = top;
pos = (300,452);
}
);
layerId = m01;
shapes = (
{
closed = 1;
nodes = (
(486,0,l),
(486,620,l),
(426,620,l),
(426,30,l),
(455,60,l),
(169,60,ls),
(135,60,o),
(110,86,o),
(110,120,cs),
(110,332,ls),
(110,366,o),
(135,392,o),
(169,392,cs),
(456,392,l),
(456,452,l),
(169,452,ls),
(101,452,o),
(50,400,o),
(50,332,cs),
(50,120,ls),
(50,52,o),
(101,0,o),
(169,0,cs)
);
},
{
alignment = -1;
pos = (16,466);
ref = _part.hook;
scale = (1,-1);
}
);
width = 600;
},
{
anchors = (
{
name = bottom;
pos = (268,0);
},
{
name = top;
pos = (268,452);
}
);
layerId = "BDCBA76E-5474-4BD3-A1CC-9641C626CFE7";
shapes = (
{
closed = 1;
nodes = (
(486,0,l),
(486,620,l),
(396,620,l),
(396,45,l),
(441,90,l),
(170,90,ls),
(153,90,o),
(140,103,o),
(140,120,cs),
(140,332,ls),
(140,349,o),
(153,362,o),
(170,362,cs),
(441,362,l),
(441,452,l),
(169,452,ls),
(101,452,o),
(50,400,o),
(50,332,cs),
(50,119,ls),
(50,51,o),
(102,-1,o),
(170,0,cs)
);
},
{
alignment = -1;
pos = (16,466);
ref = _part.hook;
scale = (1,-1);
}
);
width = 600;
},
{
anchors = (
{
name = bottom;
pos = (300,0);
},
{
name = top;
pos = (300,452);
}
);
layerId = "D8CC3DFA-F3EA-4C7D-84FB-05FCEA5C6558";
shapes = (
{
closed = 1;
nodes = (
(456,0,l),
(456,620,l),
(426,620,l),
(426,13,l),
(441,30,l),
(169,30,ls),
(118,30,o),
(79,69,o),
(80,120,cs),
(80,332,ls),
(79,383,o),
(118,422,o),
(169,422,cs),
(441,422,l),
(441,452,l),
(169,452,ls),
(101,452,o),
(49,400,o),
(50,332,cs),
(50,120,ls),
(49,52,o),
(101,0,o),
(169,0,cs)
);
},
{
alignment = -1;
pos = (16,466);
ref = _part.hook;
scale = (1,-1);
}
);
width = 600;
}
);
unicode = 598;
},
{
glyphname = dzaltone;
lastChange = "2025-08-03 16:32:19 +0000";
layers = (
{
layerId = m01;
shapes = (
{
closed = 1;
nodes = (
(296,0,l),
(296,620,l),
(236,620,l),
(236,30,l),
(265,60,l),
(169,60,ls),
(135,60,o),
(109,86,o),
(110,120,cs),
(110,332,ls),
(109,366,o),
(135,392,o),
(169,392,cs),
(530,392,l),
(504,433,l),
(326,60,l),
(326,0,l),
(550,0,l),
(550,60,l),
(365,60,l),
(373,19,l),
(550,390,l),
(550,452,l),
(169,452,ls),
(101,452,o),
(49,400,o),
(50,332,cs),
(50,120,ls),
(49,52,o),
(101,0,o),
(169,0,cs)
);
}
);
width = 600;
},
{
layerId = "BDCBA76E-5474-4BD3-A1CC-9641C626CFE7";
shapes = (
{
closed = 1;
nodes = (
(296,0,l),
(296,620,l),
(206,620,l),
(206,45,l),
(251,90,l),
(170,90,ls),
(153,90,o),
(140,103,o),
(140,120,cs),
(140,332,ls),
(140,349,o),
(153,362,o),
(170,362,cs),
(487,362,l),
(460,403,l),
(319,88,l),
(319,0,l),
(550,0,l),
(550,90,l),
(369,90,l),
(395,49,l),
(537,362,l),
(537,452,l),
(169,452,ls),
(101,452,o),
(50,400,o),
(50,332,cs),
(50,120,ls),
(50,52,o),
(101,0,o),
(169,0,cs)
);
}
);
width = 600;
},
{
layerId = "D8CC3DFA-F3EA-4C7D-84FB-05FCEA5C6558";
shapes = (
{
closed = 1;
nodes = (
(291,0,l),
(291,620,l),
(261,620,l),
(261,13,l),
(278,30,l),
(169,30,ls),
(118,30,o),
(79,69,o),
(80,120,cs),
(80,330,ls),
(79,381,o),
(118,420,o),
(169,420,cs),
(536,420,l),
(529,442,l),
(321,30,l),
(321,0,l),
(550,0,l),
(550,30,l),
(344,30,l),
(344,10,l),
(551,420,l),
(551,450,l),
(169,450,ls),
(101,450,o),
(49,398,o),
(50,330,cs),
(50,120,ls),
(49,52,o),
(101,0,o),
(169,0,cs)
);
}
);
width = 600;
}
);
unicode = 675;
},
{
glyphname = eth;
lastChange = "2025-08-03 16:33:00 +0000";
layers = (
{
anchors = (
{
name = bottom;
pos = (300,0);
},
{
name = top;
pos = (300,800);
}
);
layerId = m01;
shapes = (
{
attr = {
strokeWidth = 60;
};
closed = 0;
nodes = (
(275,703,l),
(401,601,o),
(484,430,o),
(484,258,cs),
(484,132,o),
(407,43,o),
(299,44,cs),
(191,44,o),
(115,131,o),
(116,259,cs),
(117,373,o),
(195,455,o),
(307,455,cs),
(409,455,o),
(482,373,o),
(484,258,cs)
);
},
{
closed = 1;
nodes = (
(248,534,l),
(483,619,l),
(466,666,l),
(231,581,l)
);
}
);
width = 600;
},
{
anchors = (
{
name = bottom;
pos = (300,0);
},
{
name = top;
pos = (300,800);
}
);
layerId = "BDCBA76E-5474-4BD3-A1CC-9641C626CFE7";
shapes = (
{
attr = {
strokeWidth = 90;
};
closed = 0;
nodes = (
(275,703,l),
(401,601,o),
(484,430,o),
(484,258,cs),
(484,132,o),
(407,43,o),
(299,44,cs),
(191,44,o),
(115,131,o),
(116,259,cs),
(117,373,o),
(195,455,o),
(307,455,cs),
(409,455,o),
(482,373,o),
(484,258,cs)
);
},
{
closed = 1;
nodes = (
(266,525,l),
(501,610,l),
(470,695,l),
(235,610,l)
);
}
);
width = 600;
},
{
anchors = (
{
name = bottom;
pos = (300,0);
},
{
name = top;
pos = (300,800);
}
);
layerId = "D8CC3DFA-F3EA-4C7D-84FB-05FCEA5C6558";
shapes = (
{
attr = {
strokeWidth = 30;
};
closed = 0;
nodes = (
(275,703,l),
(401,601,o),
(484,430,o),
(484,258,cs),
(484,132,o),
(407,43,o),
(299,44,cs),
(191,44,o),
(115,131,o),
(116,259,cs),
(117,373,o),
(195,455,o),
(307,455,cs),
(409,455,o),
(482,373,o),
(484,258,cs)
);
},
{
closed = 1;
nodes = (
(241,553,l),
(476,638,l),
(466,666,l),
(231,581,l)
);
}
);
width = 600;
}
);
unicode = 240;
},
{
color = 4;
glyphname = e;
lastChange = "2025-08-10 18:49:48 +0000";
layers = (
{
anchors = (
{
name = bottom;
pos = (300,0);
},
{
name = ogonek;
pos = (540,10);
},
{
name = top;
pos = (300,452);
}
);
layerId = m01;
shapes = (
{
closed = 1;
nodes = (
(397,211,ls),
(465,211,o),
(517,263,o),
(516,331,cs),
(516,332,ls),
(517,400,o),
(465,452,o),
(397,452,cs),
(199,452,ls),
(131,452,o),
(80,400,o),
(80,332,cs),
(80,120,ls),
(80,52,o),
(131,0,o),
(199,0,cs),
(516,0,l),
(516,60,l),
(199,60,ls),
(165,60,o),
(140,86,o),
(140,120,cs),
(140,332,ls),
(140,366,o),
(165,392,o),
(199,392,cs),
(397,392,ls),
(431,392,o),
(457,366,o),
(456,332,cs),
(456,331,ls),
(457,297,o),
(431,271,o),
(397,271,cs),
(110,271,l),
(110,211,l)
);
}
);
width = 600;
},
{
anchors = (
{
name = bottom;
pos = (300,0);
},
{
name = ogonek;
pos = (540,10);
},
{
name = top;
pos = (300,452);
}
);
layerId = "BDCBA76E-5474-4BD3-A1CC-9641C626CFE7";
shapes = (
{
closed = 1;
nodes = (
(399,195,ls),
(467,195,o),
(518,247,o),
(518,315,cs),
(518,332,ls),
(518,400,o),
(467,452,o),
(399,452,cs),
(201,452,ls),
(133,452,o),
(82,400,o),
(82,332,cs),
(82,119,ls),
(82,51,o),
(134,-1,o),
(202,0,cs),
(518,0,l),
(518,90,l),
(202,90,ls),
(185,90,o),
(172,103,o),
(172,120,cs),
(172,332,ls),
(172,349,o),
(185,362,o),
(202,362,cs),
(398,362,ls),
(415,362,o),
(428,349,o),
(428,332,cs),
(428,315,ls),
(428,298,o),
(415,285,o),
(398,285,cs),
(132,285,l),
(132,195,l)
);
}
);
width = 600;
},
{
anchors = (
{
name = bottom;
pos = (300,0);
},
{
name = ogonek;
pos = (540,10);
},
{
name = top;
pos = (300,452);
}
);
layerId = "D8CC3DFA-F3EA-4C7D-84FB-05FCEA5C6558";
shapes = (
{
closed = 1;
nodes = (
(399,211,ls),
(467,211,o),
(518,263,o),
(518,331,cs),
(518,333,ls),
(518,401,o),
(466,453,o),
(398,453,cs),
(201,452,ls),
(133,452,o),
(82,400,o),
(82,332,cs),
(82,120,ls),
(82,52,o),
(133,0,o),
(201,0,cs),
(518,0,l),
(518,30,l),
(201,30,ls),
(150,30,o),
(112,69,o),
(112,120,cs),
(112,332,ls),
(112,383,o),
(150,422,o),
(201,422,cs),
(398,423,ls),
(449,423,o),
(488,384,o),
(488,333,cs),
(488,331,ls),
(488,280,o),
(450,241,o),
(399,241,cs),
(97,241,l),
(97,211,l)
);
}
);
width = 600;
}
);
unicode = 101;
},
{
glyphname = eopen;
lastChange = "2025-08-03 16:33:39 +0000";
layers = (
{
anchors = (
{
name = bottom;
pos = (300,0);
},
{
name = top;
pos = (300,452);
}
);
layerId = m01;
shapes = (
{
closed = 1;
nodes = (
(518,452,l),
(201,452,ls),
(133,452,o),
(81,400,o),
(82,332,cs),
(82,325,ls),
(81,288,o),
(97,256,o),
(120,235,c),
(97,214,o),
(81,182,o),
(82,145,cs),
(82,120,ls),
(81,52,o),
(133,0,o),
(201,0,cs),
(518,0,l),
(518,60,l),
(201,60,ls),
(167,60,o),
(141,86,o),
(142,120,cs),
(142,145,ls),
(141,179,o),
(167,205,o),
(201,205,cs),
(442,205,l),
(442,265,l),
(201,265,ls),
(167,265,o),
(141,291,o),
(142,325,cs),
(142,332,ls),
(141,366,o),
(167,392,o),
(201,392,cs),
(518,392,l)
);
}
);
width = 600;
},
{
anchors = (
{
name = bottom;
pos = (300,0);
},
{
name = top;
pos = (300,452);
}
);
layerId = "BDCBA76E-5474-4BD3-A1CC-9641C626CFE7";
shapes = (
{
closed = 1;
nodes = (
(518,450,l),
(201,450,ls),
(133,450,o),
(81,398,o),
(82,330,cs),
(82,315,ls),
(82,287,o),
(90,261,o),
(106,240,c),
(91,220,o),
(82,193,o),
(82,165,cs),
(82,120,ls),
(81,52,o),
(133,0,o),
(201,0,cs),
(518,0,l),
(518,90,l),
(202,90,ls),
(185,90,o),
(172,103,o),
(172,120,cs),
(172,165,ls),
(172,182,o),
(185,195,o),
(202,195,cs),
(442,195,l),
(442,285,l),
(202,285,ls),
(185,285,o),
(172,298,o),
(172,315,cs),
(172,330,ls),
(172,347,o),
(185,360,o),
(202,360,cs),
(518,360,l)
);
}
);
width = 600;
},
{
anchors = (
{
name = bottom;
pos = (300,0);
},
{
name = top;
pos = (300,452);
}
);
layerId = "D8CC3DFA-F3EA-4C7D-84FB-05FCEA5C6558";
shapes = (
{
closed = 1;
nodes = (
(518,452,l),
(201,452,ls),
(133,452,o),
(81,400,o),
(82,332,cs),
(82,331,ls),
(81,284,o),
(105,246,o),
(141,226,c),
(105,206,o),
(81,168,o),
(82,121,cs),
(82,120,ls),
(81,52,o),
(133,0,o),
(201,0,cs),
(518,0,l),
(518,30,l),
(201,30,ls),
(150,30,o),
(111,69,o),
(112,120,cs),
(112,121,ls),
(111,172,o),
(150,211,o),
(201,211,cs),
(442,211,l),
(442,241,l),
(201,241,ls),
(150,241,o),
(111,280,o),
(112,331,cs),
(112,332,ls),
(111,383,o),
(150,422,o),
(201,422,cs),
(518,422,l)
);
}
);
width = 600;
}
);
unicode = 603;
},
{
glyphname = eopenreversedclosed;
lastChange = "2025-08-03 16:34:17 +0000";
layers = (
{
anchors = (
{
name = bottom;
pos = (300,0);
},
{
name = top;
pos = (300,452);
}
);
layerId = m01;
shapes = (
{
closed = 1;
nodes = (
(399,0,ls),
(467,0,o),
(519,52,o),
(518,120,cs),
(518,145,ls),
(519,182,o),
(503,214,o),
(480,235,c),
(503,256,o),
(519,288,o),
(518,325,cs),
(518,332,ls),
(519,400,o),
(467,452,o),
(399,452,cs),
(201,452,ls),
(133,452,o),
(81,400,o),
(82,332,cs),
(82,120,ls),
(81,52,o),
(133,0,o),
(201,0,cs)
);
},
{
closed = 1;
nodes = (
(167,60,o),
(141,86,o),
(142,120,cs),
(142,332,ls),
(141,366,o),
(167,392,o),
(201,392,cs),
(399,392,ls),
(433,392,o),
(459,366,o),
(458,332,cs),
(458,325,ls),
(459,291,o),
(433,265,o),
(399,265,cs),
(212,265,l),
(212,205,l),
(399,205,ls),
(433,205,o),
(459,179,o),
(458,145,cs),
(458,120,ls),
(459,86,o),
(433,60,o),
(399,60,cs),
(201,60,ls)
);
}
);
width = 600;
},
{
anchors = (
{
name = bottom;
pos = (300,0);
},
{
name = top;
pos = (300,452);
}
);
layerId = "BDCBA76E-5474-4BD3-A1CC-9641C626CFE7";
shapes = (
{
closed = 1;
nodes = (
(399,0,ls),
(467,0,o),
(519,52,o),
(518,120,cs),
(518,165,ls),
(518,193,o),
(510,219,o),
(494,240,c),
(509,260,o),
(518,287,o),
(518,315,cs),
(518,332,ls),
(519,400,o),
(467,452,o),
(399,452,cs),
(201,452,ls),
(133,452,o),
(81,400,o),
(82,332,cs),
(82,120,ls),
(81,52,o),
(133,0,o),
(201,0,cs)
);
},
{
closed = 1;
nodes = (
(185,90,o),
(172,103,o),
(172,120,cs),
(172,332,ls),
(172,349,o),
(185,362,o),
(202,362,cs),
(398,362,ls),
(415,362,o),
(428,349,o),
(428,332,cs),
(428,315,ls),
(428,298,o),
(415,285,o),
(398,285,cs),
(222,285,l),
(222,195,l),
(398,195,ls),
(415,195,o),
(428,182,o),
(428,165,cs),
(428,120,ls),
(428,103,o),
(415,90,o),
(398,90,cs),
(202,90,ls)
);
}
);
width = 600;
},
{
anchors = (
{
name = bottom;
pos = (300,0);
},
{
name = top;
pos = (300,452);
}
);
layerId = "D8CC3DFA-F3EA-4C7D-84FB-05FCEA5C6558";
shapes = (
{
closed = 1;
nodes = (
(399,0,ls),
(467,0,o),
(519,52,o),
(518,120,cs),
(518,121,ls),
(519,168,o),
(495,206,o),
(459,226,c),
(495,246,o),
(519,284,o),
(518,331,cs),
(518,332,ls),
(519,400,o),
(467,452,o),
(399,452,cs),
(201,452,ls),
(133,452,o),
(82,400,o),
(82,332,cs),
(82,120,ls),
(81,52,o),
(133,0,o),
(201,0,cs)
);
},
{
closed = 1;
nodes = (
(150,30,o),
(111,69,o),
(112,120,cs),
(112,332,ls),
(111,383,o),
(150,422,o),
(201,422,cs),
(399,422,ls),
(450,422,o),
(489,383,o),
(488,332,cs),
(488,331,ls),
(489,280,o),
(450,241,o),
(399,241,cs),
(192,241,l),
(192,211,l),
(399,211,ls),
(450,211,o),
(489,172,o),
(488,121,cs),
(488,120,ls),
(489,69,o),
(450,30,o),
(399,30,cs),
(201,30,ls)
);
}
);
width = 600;
}
);
unicode = 606;
},
{
glyphname = eopenreversedhook;
lastChange = "2025-08-03 16:41:23 +0000";
layers = (
{
anchors = (
{
name = bottom;
pos = (300,0);
},
{
name = top;
pos = (300,452);
}
);
layerId = m01;
shapes = (
{
closed = 1;
nodes = (
(264,0,ls),
(332,0,o),
(384,52,o),
(383,120,cs),
(383,145,ls),
(383,166,o),
(378,187,o),
(368,205,c),
(488,205,l),
(488,265,l),
(368,265,l),
(378,282,o),
(383,304,o),
(383,325,cs),
(383,332,ls),
(384,400,o),
(332,452,o),
(264,452,cs),
(47,452,l),
(47,392,l),
(264,392,ls),
(298,392,o),
(324,366,o),
(323,332,cs),
(323,325,ls),
(324,291,o),
(298,265,o),
(264,265,cs),
(123,265,l),
(123,205,l),
(264,205,ls),
(298,205,o),
(324,179,o),
(323,145,cs),
(323,120,ls),
(324,86,o),
(298,60,o),
(264,60,cs),
(47,60,l),
(47,0,l)
);
},
{
alignment = -1;
pos = (18,671);
ref = _part.hook;
scale = (1,-1);
}
);
width = 600;
},
{
anchors = (
{
name = bottom;
pos = (300,0);
},
{
name = top;
pos = (300,452);
}
);
layerId = "BDCBA76E-5474-4BD3-A1CC-9641C626CFE7";
shapes = (
{
closed = 1;
nodes = (
(264,0,ls),
(332,0,o),
(384,52,o),
(383,120,cs),
(383,165,ls),
(383,175,o),
(382,186,o),
(380,195,c),
(488,195,l),
(488,285,l),
(380,285,l),
(382,294,o),
(383,305,o),
(383,315,cs),
(383,332,ls),
(384,400,o),
(332,452,o),
(264,452,cs),
(47,452,l),
(47,362,l),
(263,362,ls),
(280,362,o),
(293,349,o),
(293,332,cs),
(293,315,ls),
(293,298,o),
(280,285,o),
(263,285,cs),
(123,285,l),
(123,195,l),
(263,195,ls),
(280,195,o),
(293,182,o),
(293,165,cs),
(293,120,ls),
(293,103,o),
(280,90,o),
(263,90,cs),
(47,90,l),
(47,0,l)
);
},
{
alignment = -1;
pos = (18,661);
ref = _part.hook;
scale = (1,-1);
}
);
width = 600;
},
{
anchors = (
{
name = bottom;
pos = (300,0);
},
{
name = top;
pos = (300,452);
}
);
layerId = "D8CC3DFA-F3EA-4C7D-84FB-05FCEA5C6558";
shapes = (
{
closed = 1;
nodes = (
(264,0,ls),
(332,0,o),
(384,52,o),
(383,120,cs),
(383,121,ls),
(384,158,o),
(368,190,o),
(345,211,c),
(458,211,l),
(458,241,l),
(345,241,l),
(368,262,o),
(384,294,o),
(383,331,cs),
(383,332,ls),
(384,400,o),
(332,452,o),
(264,452,cs),
(47,452,l),
(47,422,l),
(264,422,ls),
(315,422,o),
(354,383,o),
(353,332,cs),
(353,331,ls),
(354,280,o),
(315,241,o),
(264,241,cs),
(123,241,l),
(123,211,l),
(264,211,ls),
(315,211,o),
(354,172,o),
(353,121,cs),
(353,120,ls),
(354,69,o),
(315,30,o),
(264,30,cs),
(47,30,l),
(47,0,l)
);
},
{
alignment = -1;
pos = (18,677);
ref = _part.hook;
scale = (1,-1);
}
);
width = 600;
}
);
unicode = 605;
},
{
glyphname = esh;
lastChange = "2025-08-03 16:42:45 +0000";
layers = (
{
anchors = (
{
name = bottom;
pos = (300,0);
},
{
name = top;
pos = (300,800);
}
);
layerId = m01;
shapes = (
{
alignment = -1;
angle = 180;
pos = (740,466);
ref = _part.hook;
},
{
closed = 1;
nodes = (
(270,0,l),
(330,0,l),
(330,468,l),
(270,468,l)
);
},
{
alignment = -1;
pos = (-140,2);
ref = _part.hook;
}
);
width = 600;
},
{
anchors = (
{
name = bottom;
pos = (300,0);
},
{
name = top;
pos = (300,800);
}
);
layerId = "BDCBA76E-5474-4BD3-A1CC-9641C626CFE7";
shapes = (
{
alignment = -1;
angle = 180;
pos = (725,466);
ref = _part.hook;
},
{
closed = 1;
nodes = (
(255,0,l),
(345,0,l),
(345,468,l),
(255,468,l)
);
},
{
alignment = -1;
pos = (-125,2);
ref = _part.hook;
}
);
width = 600;
},
{
anchors = (
{
name = bottom;
pos = (300,0);
},
{
name = top;
pos = (300,800);
}
);
layerId = "D8CC3DFA-F3EA-4C7D-84FB-05FCEA5C6558";
shapes = (
{
alignment = -1;
angle = 180;
pos = (725,466);
ref = _part.hook;
},
{
closed = 1;
nodes = (
(285,0,l),
(315,0,l),
(315,468,l),
(285,468,l)
);
},
{
alignment = -1;
pos = (-125,2);
ref = _part.hook;
}
);
width = 600;
}
);
unicode = 643;
},
{
glyphname = schwahook;
lastChange = "2025-08-03 16:43:58 +0000";
layers = (
{
anchors = (
{
name = bottom;
pos = (300,0);
},
{
name = top;
pos = (300,452);
}
);
layerId = m01;
shapes = (
{
alignment = -1;
pos = (26,647);
ref = _part.hook;
scale = (1,-1);
},
{
closed = 1;
nodes = (
(416,332,ls),
(417,400,o),
(365,452,o),
(297,452,cs),
(40,452,l),
(40,392,l),
(297,392,ls),
(331,392,o),
(356,366,o),
(356,332,cs),
(356,120,ls),
(356,86,o),
(331,60,o),
(297,60,cs),
(159,60,ls),
(125,60,o),
(99,86,o),
(100,120,cs),
(100,121,ls),
(99,155,o),
(125,181,o),
(159,181,cs),
(496,181,l),
(496,241,l),
(159,241,ls),
(91,241,o),
(39,189,o),
(40,121,cs),
(40,120,ls),
(39,52,o),
(91,0,o),
(159,0,cs),
(297,0,ls),
(365,0,o),
(416,52,o),
(416,120,cs)
);
}
);
width = 600;
},
{
anchors = (
{
name = bottom;
pos = (300,0);
},
{
name = top;
pos = (300,452);
}
);
layerId = "BDCBA76E-5474-4BD3-A1CC-9641C626CFE7";
shapes = (
{
alignment = -1;
pos = (26,631);
ref = _part.hook;
scale = (1,-1);
},
{
closed = 1;
nodes = (
(376,333,ls),
(376,401,o),
(324,453,o),
(256,452,cs),
(40,452,l),
(40,362,l),
(256,362,ls),
(273,362,o),
(286,349,o),
(286,332,cs),
(286,120,ls),
(286,103,o),
(273,90,o),
(256,90,cs),
(160,90,ls),
(143,90,o),
(130,103,o),
(130,120,cs),
(130,135,ls),
(130,152,o),
(143,165,o),
(160,165,cs),
(496,165,l),
(496,255,l),
(159,255,ls),
(91,255,o),
(39,203,o),
(40,135,cs),
(40,120,ls),
(39,52,o),
(91,0,o),
(159,0,cs),
(257,0,ls),
(325,0,o),
(376,52,o),
(376,120,cs)
);
}
);
width = 600;
},
{
anchors = (
{
name = bottom;
pos = (300,0);
},
{
name = top;
pos = (300,452);
}
);
layerId = "D8CC3DFA-F3EA-4C7D-84FB-05FCEA5C6558";
shapes = (
{
alignment = -1;
pos = (26,678);
ref = _part.hook;
scale = (1,-1);
},
{
closed = 1;
nodes = (
(386,332,ls),
(387,400,o),
(335,452,o),
(267,452,cs),
(40,452,l),
(40,422,l),
(267,422,ls),
(318,422,o),
(356,383,o),
(356,332,cs),
(356,120,ls),
(356,69,o),
(318,30,o),
(267,30,cs),
(159,30,ls),
(108,30,o),
(69,69,o),
(70,120,cs),
(70,122,ls),
(69,173,o),
(108,212,o),
(159,212,cs),
(466,212,l),
(466,242,l),
(159,242,ls),
(91,242,o),
(39,190,o),
(40,122,cs),
(40,120,ls),
(39,52,o),
(91,0,o),
(159,0,cs),
(267,0,ls),
(335,0,o),
(386,52,o),
(386,120,cs)
);
}
);
width = 600;
}
);
unicode = 602;
},
{
glyphname = ezh;
lastChange = "2025-08-03 16:44:57 +0000";
layers = (
{
anchors = (
{
name = bottom;
pos = (300,0);
},
{
name = top;
pos = (300,452);
}
);
layerId = m01;
shapes = (
{
closed = 1;
nodes = (
(436,200,o),
(462,174,o),
(461,140,cs),
(461,120,ls),
(462,86,o),
(436,60,o),
(402,60,cs),
(85,60,l),
(85,0,l),
(402,0,ls),
(470,0,o),
(522,52,o),
(521,120,cs),
(521,140,ls),
(522,208,o),
(470,260,o),
(402,260,cs),
(339,260,l),
(510,391,ls),
(538,414,o),
(523,452,o),
(488,452,cs),
(76,452,l),
(76,392,l),
(411,392,l),
(241,260,l),
(241,200,l),
(402,200,ls)
);
}
);
width = 600;
},
{
anchors = (
{
name = bottom;
pos = (268,0);
},
{
name = top;
pos = (268,452);
}
);
layerId = "BDCBA76E-5474-4BD3-A1CC-9641C626CFE7";
shapes = (
{
closed = 1;
nodes = (
(388,205,o),
(401,192,o),
(401,175,cs),
(401,120,ls),
(401,103,o),
(388,90,o),
(371,90,cs),
(55,90,l),
(55,0,l),
(372,0,ls),
(440,0,o),
(492,52,o),
(491,120,cs),
(491,175,ls),
(492,243,o),
(440,295,o),
(372,295,cs),
(350,295,l),
(458,370,ls),
(501,397,o),
(484,452,o),
(435,452,cs),
(46,452,l),
(46,372,l),
(321,372,l),
(211,295,l),
(211,205,l),
(371,205,ls)
);
}
);
width = 536;
},
{
anchors = (
{
name = bottom;
pos = (300,0);
},
{
name = top;
pos = (300,452);
}
);
layerId = "D8CC3DFA-F3EA-4C7D-84FB-05FCEA5C6558";
shapes = (
{
closed = 1;
nodes = (
(454,231,o),
(493,192,o),
(493,141,cs),
(493,119,ls),
(493,68,o),
(454,29,o),
(403,30,cs),
(87,30,l),
(87,0,l),
(403,0,ls),
(471,-1,o),
(523,51,o),
(523,119,cs),
(523,141,ls),
(523,209,o),
(471,261,o),
(403,260,cs),
(293,260,l),
(487,407,ls),
(512,425,o),
(504,452,o),
(472,452,cs),
(78,452,l),
(78,422,l),
(457,422,l),
(243,260,l),
(243,230,l),
(403,230,ls)
);
}
);
width = 600;
}
);
unicode = 658;
},
{
color = 4;
glyphname = f;
lastChange = "2025-08-02 18:33:06 +0000";
layers = (
{
anchors = (
{
name = bottom;
pos = (268,0);
},
{
name = top;
pos = (268,800);
}
);
layerId = m01;
shapes = (
{
closed = 1;
nodes = (
(528,452,l),
(72,452,l),
(72,392,l),
(528,392,l)
);
},
{
closed = 1;
nodes = (
(528,620,l),
(377,620,ls),
(309,620,o),
(257,568,o),
(258,500,cs),
(258,0,l),
(318,0,l),
(318,500,ls),
(317,534,o),
(343,560,o),
(377,560,cs),
(528,560,l)
);
}
);
width = 600;
},
{
anchors = (
{
name = bottom;
pos = (300,0);
},
{
name = top;
pos = (300,800);
}
);
layerId = "BDCBA76E-5474-4BD3-A1CC-9641C626CFE7";
shapes = (
{
closed = 1;
nodes = (
(528,452,l),
(72,452,l),
(72,362,l),
(528,362,l)
);
},
{
closed = 1;
nodes = (
(528,620,l),
(362,620,ls),
(294,620,o),
(242,568,o),
(243,500,cs),
(243,0,l),
(333,0,l),
(333,500,ls),
(333,517,o),
(346,530,o),
(363,530,cs),
(528,530,l)
);
}
);
width = 600;
},
{
anchors = (
{
name = bottom;
pos = (268,0);
},
{
name = top;
pos = (268,800);
}
);
layerId = "D8CC3DFA-F3EA-4C7D-84FB-05FCEA5C6558";
shapes = (
{
closed = 1;
nodes = (
(528,452,l),
(72,452,l),
(72,422,l),
(528,422,l)
);
},
{
closed = 1;
nodes = (
(528,620,l),
(392,620,ls),
(324,620,o),
(272,568,o),
(273,500,cs),
(273,0,l),
(303,0,l),
(303,500,ls),
(302,551,o),
(341,590,o),
(392,590,cs),
(528,590,l)
);
}
);
width = 600;
}
);
unicode = 102;
},
{
glyphname = fengdigraph;
lastChange = "2025-08-03 16:45:47 +0000";
layers = (
{
layerId = m01;
shapes = (
{
closed = 1;
nodes = (
(549,0,l),
(549,332,ls),
(550,400,o),
(498,452,o),
(430,452,cs),
(51,452,l),
(51,392,l),
(430,392,ls),
(464,392,o),
(490,366,o),
(489,332,cs),
(489,0,l)
);
},
{
alignment = -1;
angle = 180;
pos = (959,466);
ref = _part.hook;
},
{
closed = 1;
nodes = (
(347,0,l),
(347,422,l),
(287,422,l),
(287,0,l)
);
},
{
closed = 1;
nodes = (
(187,0,l),
(187,499,ls),
(186,533,o),
(212,559,o),
(246,559,cs),
(317,559,l),
(317,619,l),
(246,619,ls),
(178,619,o),
(126,567,o),
(127,499,cs),
(127,0,l)
);
}
);
width = 600;
},
{
layerId = "BDCBA76E-5474-4BD3-A1CC-9641C626CFE7";
shapes = (
{
closed = 1;
nodes = (
(549,0,l),
(549,332,ls),
(550,400,o),
(498,452,o),
(430,452,cs),
(51,452,l),
(51,362,l),
(429,362,ls),
(446,362,o),
(459,349,o),
(459,332,cs),
(459,0,l)
);
},
{
alignment = -1;
angle = 180;
pos = (929,466);
ref = _part.hook;
},
{
closed = 1;
nodes = (
(362,0,l),
(362,409,l),
(272,409,l),
(272,0,l)
);
},
{
closed = 1;
nodes = (
(202,0,l),
(202,500,ls),
(202,517,o),
(215,530,o),
(232,530,cs),
(317,530,l),
(317,620,l),
(231,620,ls),
(163,620,o),
(111,568,o),
(112,500,cs),
(112,0,l)
);
}
);
width = 600;
},
{
layerId = "D8CC3DFA-F3EA-4C7D-84FB-05FCEA5C6558";
shapes = (
{
closed = 1;
nodes = (
(549,0,l),
(549,332,ls),
(550,400,o),
(498,452,o),
(430,452,cs),
(51,452,l),
(51,422,l),
(430,422,ls),
(481,422,o),
(520,383,o),
(519,332,cs),
(519,0,l)
);
},
{
alignment = -1;
angle = 180;
pos = (959,466);
ref = _part.hook;
},
{
closed = 1;
nodes = (
(332,0,l),
(332,438,l),
(302,438,l),
(302,0,l)
);
},
{
closed = 1;
nodes = (
(172,0,l),
(172,499,ls),
(171,550,o),
(210,589,o),
(261,589,cs),
(317,589,l),
(317,619,l),
(261,619,ls),
(193,619,o),
(141,567,o),
(142,499,cs),
(142,0,l)
);
}
);
width = 600;
}
);
unicode = 681;
},
{
color = 4;
glyphname = g;
lastChange = "2025-08-02 18:37:27 +0000";
layers = (
{
anchors = (
{
name = bottom;
pos = (300,-200);
},
{
name = top;
pos = (300,452);
}
);
layerId = m01;
shapes = (
{
closed = 1;
nodes = (
(201,60,ls),
(167,60,o),
(142,86,o),
(142,120,cs),
(142,332,ls),
(142,366,o),
(167,392,o),
(201,392,cs),
(487,392,l),
(458,422,l),
(458,-80,ls),
(458,-114,o),
(433,-140,o),
(399,-140,cs),
(82,-140,l),
(82,-200,l),
(399,-200,ls),
(467,-200,o),
(518,-148,o),
(518,-80,cs),
(518,452,l),
(201,452,ls),
(133,452,o),
(82,400,o),
(82,332,cs),
(82,120,ls),
(82,52,o),
(133,0,o),
(201,0,cs),
(487,0,l),
(487,60,l)
);
}
);
width = 600;
},
{
anchors = (
{
name = bottom;
pos = (300,-200);
},
{
name = top;
pos = (300,452);
}
);
layerId = "BDCBA76E-5474-4BD3-A1CC-9641C626CFE7";
shapes = (
{
closed = 1;
nodes = (
(202,90,ls),
(185,90,o),
(172,103,o),
(172,120,cs),
(172,332,ls),
(172,349,o),
(185,362,o),
(202,362,cs),
(473,362,l),
(428,407,l),
(428,-80,ls),
(428,-97,o),
(415,-110,o),
(398,-110,cs),
(82,-110,l),
(82,-200,l),
(399,-200,ls),
(467,-200,o),
(518,-148,o),
(518,-80,cs),
(518,452,l),
(201,452,ls),
(133,452,o),
(82,400,o),
(82,332,cs),
(82,119,ls),
(82,51,o),
(134,0,o),
(202,0,cs),
(473,0,l),
(473,90,l)
);
}
);
width = 600;
},
{
anchors = (
{
name = bottom;
pos = (300,-200);
},
{
name = top;
pos = (300,452);
}
);
layerId = "D8CC3DFA-F3EA-4C7D-84FB-05FCEA5C6558";
shapes = (
{
closed = 1;
nodes = (
(201,30,ls),
(150,30,o),
(112,69,o),
(112,120,cs),
(112,332,ls),
(112,383,o),
(150,422,o),
(201,422,cs),
(502,422,l),
(488,437,l),
(488,-81,ls),
(488,-132,o),
(449,-171,o),
(398,-170,cs),
(82,-170,l),
(82,-200,l),
(398,-200,ls),
(466,-201,o),
(518,-149,o),
(518,-81,cs),
(518,452,l),
(201,452,ls),
(133,452,o),
(82,400,o),
(82,332,cs),
(82,120,ls),
(82,52,o),
(133,0,o),
(201,0,cs),
(502,0,l),
(502,30,l)
);
}
);
width = 600;
}
);
unicode = 103;
},
{
glyphname = "gamma-latin";
lastChange = "2025-08-10 18:50:39 +0000";
layers = (
{
layerId = m01;
shapes = (
{
attr = {
lineCapEnd = "4";
lineCapStart = "4";
strokeWidth = 60;
};
closed = 0;
nodes = (
(124,452,l),
(261,262,ls),
(305,202,o),
(359,130,o),
(360,96,cs),
(361,59,o),
(335,30,o),
(300,30,cs),
(265,30,o),
(239,59,o),
(240,96,cs),
(241,130,o),
(295,202,o),
(339,262,cs),
(476,452,l)
);
}
);
width = 600;
},
{
layerId = "BDCBA76E-5474-4BD3-A1CC-9641C626CFE7";
shapes = (
{
attr = {
lineCapEnd = "4";
lineCapStart = "4";
strokeWidth = 80;
};
closed = 0;
nodes = (
(124,450,l),
(261,266,ls),
(305,208,o),
(359,137,o),
(360,104,cs),
(361,68,o),
(335,40,o),
(300,40,cs),
(265,40,o),
(239,68,o),
(240,104,cs),
(241,137,o),
(295,208,o),
(339,266,cs),
(476,450,l)
);
}
);
width = 600;
},
{
layerId = "D8CC3DFA-F3EA-4C7D-84FB-05FCEA5C6558";
shapes = (
{
attr = {
lineCapEnd = "4";
lineCapStart = "4";
strokeWidth = 30;
};
closed = 0;
nodes = (
(124,450,l),
(261,262,ls),
(305,202,o),
(359,130,o),
(360,96,cs),
(361,59,o),
(335,30,o),
(300,30,cs),
(265,30,o),
(239,59,o),
(240,96,cs),
(241,130,o),
(295,202,o),
(339,262,cs),
(476,450,l)
);
}
);
width = 600;
}
);
unicode = 611;
},
{
glyphname = ghook;
lastChange = "2025-08-03 16:48:40 +0000";
layers = (
{
anchors = (
{
name = bottom;
pos = (300,0);
},
{
name = top;
pos = (300,800);
}
);
layerId = m01;
shapes = (
{
closed = 1;
nodes = (
(367,-200,ls),
(435,-200,o),
(486,-148,o),
(486,-80,cs),
(486,452,l),
(169,452,ls),
(101,452,o),
(50,400,o),
(50,332,cs),
(50,120,ls),
(50,52,o),
(101,0,o),
(169,0,cs),
(455,0,l),
(455,60,l),
(169,60,ls),
(135,60,o),
(110,86,o),
(110,120,cs),
(110,332,ls),
(110,366,o),
(135,392,o),
(169,392,cs),
(455,392,l),
(426,422,l),
(426,-80,ls),
(426,-114,o),
(401,-140,o),
(367,-140,cs),
(50,-140,l),
(50,-200,l)
);
},
{
alignment = -1;
pos = (16,-14);
ref = _part.hook;
}
);
width = 600;
},
{
anchors = (
{
name = bottom;
pos = (300,0);
},
{
name = top;
pos = (300,800);
}
);
layerId = "BDCBA76E-5474-4BD3-A1CC-9641C626CFE7";
shapes = (
{
closed = 1;
nodes = (
(367,-200,ls),
(435,-200,o),
(486,-148,o),
(486,-80,cs),
(486,452,l),
(169,452,ls),
(101,452,o),
(50,400,o),
(50,332,cs),
(50,119,ls),
(50,51,o),
(102,0,o),
(170,0,cs),
(441,0,l),
(441,90,l),
(170,90,ls),
(153,90,o),
(140,103,o),
(140,120,cs),
(140,332,ls),
(140,349,o),
(153,362,o),
(170,362,cs),
(441,362,l),
(396,407,l),
(396,-80,ls),
(396,-97,o),
(383,-110,o),
(366,-110,cs),
(50,-110,l),
(50,-200,l)
);
},
{
alignment = -1;
pos = (16,-14);
ref = _part.hook;
}
);
width = 600;
},
{
anchors = (
{
name = bottom;
pos = (300,0);
},
{
name = top;
pos = (300,800);
}
);
layerId = "D8CC3DFA-F3EA-4C7D-84FB-05FCEA5C6558";
shapes = (
{
closed = 1;
nodes = (
(336,-200,ls),
(404,-201,o),
(456,-149,o),
(456,-81,cs),
(456,452,l),
(169,452,ls),
(101,452,o),
(49,400,o),
(50,332,cs),
(50,120,ls),
(49,52,o),
(101,0,o),
(169,0,cs),
(441,0,l),
(441,30,l),
(169,30,ls),
(118,30,o),
(79,69,o),
(80,120,cs),
(80,332,ls),
(79,383,o),
(118,422,o),
(169,422,cs),
(442,422,l),
(426,439,l),
(426,-81,ls),
(426,-132,o),
(387,-171,o),
(336,-170,cs),
(50,-170,l),
(50,-200,l)
);
},
{
alignment = -1;
pos = (16,-14);
ref = _part.hook;
}
);
width = 600;
}
);
unicode = 608;
},
{
glyphname = glottalstop;
lastChange = "2025-08-03 16:49:31 +0000";
layers = (
{
layerId = m01;
shapes = (
{
closed = 1;
nodes = (
(400,560,o),
(426,534,o),
(425,500,cs),
(425,403,ls),
(426,369,o),
(400,343,o),
(366,343,cs),
(359,343,ls),
(291,343,o),
(239,291,o),
(240,223,cs),
(240,0,l),
(300,0,l),
(300,223,ls),
(299,257,o),
(325,283,o),
(359,283,cs),
(366,283,ls),
(434,283,o),
(486,335,o),
(485,403,cs),
(485,500,ls),
(486,568,o),
(434,620,o),
(366,620,cs),
(116,620,l),
(116,560,l),
(366,560,ls)
);
}
);
width = 600;
},
{
layerId = "BDCBA76E-5474-4BD3-A1CC-9641C626CFE7";
shapes = (
{
closed = 1;
nodes = (
(382,530,o),
(395,517,o),
(395,500,cs),
(395,403,ls),
(395,386,o),
(382,373,o),
(365,373,cs),
(346,373,ls),
(278,373,o),
(226,321,o),
(227,253,cs),
(227,0,l),
(317,0,l),
(317,253,ls),
(317,270,o),
(330,283,o),
(347,283,cs),
(366,283,ls),
(434,283,o),
(486,335,o),
(485,403,cs),
(485,500,ls),
(486,568,o),
(434,620,o),
(366,620,cs),
(116,620,l),
(116,530,l),
(365,530,ls)
);
}
);
width = 600;
},
{
layerId = "D8CC3DFA-F3EA-4C7D-84FB-05FCEA5C6558";
shapes = (
{
closed = 1;
nodes = (
(417,590,o),
(456,551,o),
(455,500,cs),
(455,403,ls),
(456,352,o),
(417,313,o),
(366,313,cs),
(364,313,ls),
(296,313,o),
(244,261,o),
(245,193,cs),
(245,0,l),
(275,0,l),
(275,193,ls),
(274,244,o),
(313,283,o),
(364,283,cs),
(366,283,ls),
(434,283,o),
(486,335,o),
(485,403,cs),
(485,500,ls),
(486,568,o),
(434,620,o),
(366,620,cs),
(116,620,l),
(116,590,l),
(366,590,ls)
);
}
);
width = 600;
}
);
unicode = 660;
},
{
glyphname = glottalstopreversed;
lastChange = "2025-08-03 16:50:06 +0000";
layers = (
{
layerId = m01;
shapes = (
{
closed = 1;
nodes = (
(359,0,l),
(359,223,ls),
(360,291,o),
(308,343,o),
(240,343,cs),
(235,343,ls),
(201,343,o),
(175,369,o),
(176,403,cs),
(176,500,ls),
(175,534,o),
(201,560,o),
(235,560,cs),
(485,560,l),
(485,620,l),
(235,620,ls),
(167,620,o),
(115,568,o),
(116,500,cs),
(116,403,ls),
(115,335,o),
(167,283,o),
(235,283,cs),
(240,283,ls),
(274,283,o),
(300,257,o),
(299,223,cs),
(299,0,l)
);
}
);
width = 600;
},
{
layerId = "BDCBA76E-5474-4BD3-A1CC-9641C626CFE7";
shapes = (
{
closed = 1;
nodes = (
(374,0,l),
(374,253,ls),
(375,321,o),
(323,373,o),
(255,373,cs),
(236,373,ls),
(219,373,o),
(206,386,o),
(206,403,cs),
(206,500,ls),
(206,517,o),
(219,530,o),
(236,530,cs),
(485,530,l),
(485,620,l),
(235,620,ls),
(167,620,o),
(115,568,o),
(116,500,cs),
(116,403,ls),
(115,335,o),
(167,283,o),
(235,283,cs),
(254,283,ls),
(271,283,o),
(284,270,o),
(284,253,cs),
(284,0,l)
);
}
);
width = 600;
},
{
layerId = "D8CC3DFA-F3EA-4C7D-84FB-05FCEA5C6558";
shapes = (
{
closed = 1;
nodes = (
(356,0,l),
(356,193,ls),
(357,261,o),
(305,313,o),
(237,313,cs),
(235,313,ls),
(184,313,o),
(145,352,o),
(146,403,cs),
(146,500,ls),
(145,551,o),
(184,590,o),
(235,590,cs),
(485,590,l),
(485,620,l),
(235,620,ls),
(167,620,o),
(115,568,o),
(116,500,cs),
(116,403,ls),
(115,335,o),
(167,283,o),
(235,283,cs),
(237,283,ls),
(288,283,o),
(327,244,o),
(326,193,cs),
(326,0,l)
);
}
);
width = 600;
}
);
unicode = 661;
},
{
glyphname = glottalstopsmall;
lastChange = "2025-07-28 00:24:01 +0000";
layers = (
{
layerId = m01;
shapes = (
{
closed = 1;
nodes = (
(270,0,l),
(270,53,ls),
(269,87,o),
(295,113,o),
(329,113,cs),
(334,113,ls),
(402,113,o),
(454,165,o),
(453,233,cs),
(453,332,ls),
(454,400,o),
(402,452,o),
(334,452,cs),
(84,452,l),
(84,392,l),
(334,392,ls),
(368,392,o),
(394,366,o),
(393,332,cs),
(393,233,ls),
(394,199,o),
(368,173,o),
(334,173,cs),
(329,173,ls),
(261,173,o),
(209,121,o),
(210,53,cs),
(210,0,l)
);
}
);
width = 600;
},
{
layerId = "BDCBA76E-5474-4BD3-A1CC-9641C626CFE7";
shapes = (
{
closed = 1;
nodes = (
(285,0,l),
(285,83,ls),
(285,100,o),
(298,113,o),
(315,113,cs),
(334,113,ls),
(402,113,o),
(454,165,o),
(453,233,cs),
(453,332,ls),
(454,400,o),
(402,452,o),
(334,452,cs),
(84,452,l),
(84,362,l),
(333,362,ls),
(350,362,o),
(363,349,o),
(363,332,cs),
(363,233,ls),
(363,216,o),
(350,203,o),
(333,203,cs),
(314,203,ls),
(246,203,o),
(194,151,o),
(195,83,cs),
(195,0,l)
);
}
);
width = 600;
},
{
layerId = "D8CC3DFA-F3EA-4C7D-84FB-05FCEA5C6558";
shapes = (
{
closed = 1;
nodes = (
(243,0,l),
(243,23,ls),
(242,74,o),
(281,113,o),
(332,113,cs),
(334,113,ls),
(402,113,o),
(454,165,o),
(453,233,cs),
(453,332,ls),
(454,400,o),
(402,452,o),
(334,452,cs),
(84,452,l),
(84,422,l),
(334,422,ls),
(385,422,o),
(424,383,o),
(423,332,cs),
(423,233,ls),
(424,182,o),
(385,143,o),
(334,143,cs),
(332,143,ls),
(264,143,o),
(212,91,o),
(213,23,cs),
(213,0,l)
);
}
);
width = 600;
}
);
unicode = 578;
},
{
glyphname = glottalstopstroke;
lastChange = "2025-08-03 16:51:26 +0000";
layers = (
{
layerId = m01;
shapes = (
{
ref = glottalstop;
},
{
closed = 1;
nodes = (
(145,127,l),
(395,127,l),
(395,177,l),
(145,177,l)
);
}
);
width = 600;
},
{
layerId = "BDCBA76E-5474-4BD3-A1CC-9641C626CFE7";
shapes = (
{
ref = glottalstop;
},
{
closed = 1;
nodes = (
(146,107,l),
(396,107,l),
(396,197,l),
(146,197,l)
);
}
);
width = 600;
},
{
layerId = "D8CC3DFA-F3EA-4C7D-84FB-05FCEA5C6558";
shapes = (
{
ref = glottalstop;
},
{
closed = 1;
nodes = (
(138,137,l),
(388,137,l),
(388,162,l),
(138,162,l)
);
}
);
width = 600;
}
);
unicode = 673;
},
{
glyphname = glottalstopstrokereversed;
lastChange = "2025-08-03 16:52:17 +0000";
layers = (
{
layerId = m01;
shapes = (
{
ref = glottalstopreversed;
},
{
closed = 1;
nodes = (
(201,127,l),
(451,127,l),
(451,177,l),
(201,177,l)
);
}
);
width = 600;
},
{
layerId = "BDCBA76E-5474-4BD3-A1CC-9641C626CFE7";
shapes = (
{
ref = glottalstopreversed;
},
{
closed = 1;
nodes = (
(204,107,l),
(454,107,l),
(454,197,l),
(204,197,l)
);
}
);
width = 600;
},
{
layerId = "D8CC3DFA-F3EA-4C7D-84FB-05FCEA5C6558";
shapes = (
{
ref = glottalstopreversed;
},
{
closed = 1;
nodes = (
(215,137,l),
(465,137,l),
(465,162,l),
(215,162,l)
);
}
);
width = 600;
}
);
unicode = 674;
},
{
glyphname = gstroke;
lastChange = "2025-08-03 16:54:18 +0000";
layers = (
{
layerId = m01;
shapes = (
{
pos = (-29,0);
ref = g;
},
{
closed = 1;
nodes = (
(367,213,l),
(547,213,l),
(547,273,l),
(367,273,l)
);
}
);
width = 600;
},
{
layerId = "BDCBA76E-5474-4BD3-A1CC-9641C626CFE7";
shapes = (
{
pos = (-14,0);
ref = g;
},
{
closed = 1;
nodes = (
(292,181,l),
(532,181,l),
(532,271,l),
(292,271,l)
);
}
);
width = 600;
},
{
layerId = "D8CC3DFA-F3EA-4C7D-84FB-05FCEA5C6558";
shapes = (
{
pos = (-20,0);
ref = g;
},
{
closed = 1;
nodes = (
(356,218,l),
(538,218,l),
(538,248,l),
(356,248,l)
);
}
);
width = 600;
}
);
unicode = 485;
},
{
color = 4;
glyphname = h;
lastChange = "2025-08-10 18:51:10 +0000";
layers = (
{
anchors = (
{
name = bottom;
pos = (300,0);
},
{
name = center;
pos = (150,640);
},
{
name = top;
pos = (300,800);
}
);
layerId = m01;
shapes = (
{
closed = 1;
nodes = (
(82,620,l),
(82,0,l),
(142,0,l),
(142,620,l)
);
},
{
closed = 1;
nodes = (
(399,392,ls),
(433,392,o),
(458,366,o),
(458,332,cs),
(458,0,l),
(518,0,l),
(518,332,ls),
(518,400,o),
(467,452,o),
(399,452,cs),
(112,452,l),
(112,392,l)
);
}
);
width = 600;
},
{
anchors = (
{
name = bottom;
pos = (300,0);
},
{
name = center;
pos = (150,640);
},
{
name = top;
pos = (300,800);
}
);
layerId = "BDCBA76E-5474-4BD3-A1CC-9641C626CFE7";
shapes = (
{
closed = 1;
nodes = (
(82,620,l),
(82,0,l),
(172,0,l),
(172,620,l)
);
},
{
closed = 1;
nodes = (
(398,362,ls),
(415,362,o),
(428,349,o),
(428,332,cs),
(428,0,l),
(518,0,l),
(518,333,ls),
(518,401,o),
(466,452,o),
(398,452,cs),
(127,452,l),
(127,362,l)
);
}
);
width = 600;
},
{
anchors = (
{
name = bottom;
pos = (300,0);
},
{
name = center;
pos = (150,640);
},
{
name = top;
pos = (300,800);
}
);
layerId = "D8CC3DFA-F3EA-4C7D-84FB-05FCEA5C6558";
shapes = (
{
closed = 1;
nodes = (
(82,620,l),
(82,0,l),
(112,0,l),
(112,620,l)
);
},
{
closed = 1;
nodes = (
(398,422,ls),
(449,423,o),
(488,384,o),
(488,333,cs),
(488,0,l),
(518,0,l),
(518,333,ls),
(518,401,o),
(466,453,o),
(398,452,cs),
(97,452,l),
(97,422,l)
);
}
);
width = 600;
}
);
unicode = 104;
},
{
glyphname = hbar;
lastChange = "2025-08-03 16:54:55 +0000";
layers = (
{
layerId = m01;
shapes = (
{
pos = (31,0);
ref = h;
},
{
closed = 1;
nodes = (
(51,564,l),
(51,514,l),
(301,514,l),
(301,564,l)
);
}
);
width = 600;
},
{
layerId = "BDCBA76E-5474-4BD3-A1CC-9641C626CFE7";
shapes = (
{
pos = (31,0);
ref = h;
},
{
closed = 1;
nodes = (
(51,574,l),
(51,484,l),
(301,484,l),
(301,574,l)
);
}
);
width = 600;
},
{
layerId = "D8CC3DFA-F3EA-4C7D-84FB-05FCEA5C6558";
shapes = (
{
pos = (31,0);
ref = h;
},
{
closed = 1;
nodes = (
(51,554,l),
(51,524,l),
(301,524,l),
(301,554,l)
);
}
);
width = 600;
}
);
unicode = 295;
},
{
color = 4;
glyphname = i;
lastChange = "2025-08-02 18:34:40 +0000";
layers = (
{
anchors = (
{
name = bottom;
pos = (268,0);
}
);
layerId = m01;
shapes = (
{
closed = 1;
nodes = (
(330,25,l),
(330,452,l),
(115,452,l),
(115,392,l),
(302,392,l),
(270,427,l),
(270,25,l)
);
},
{
closed = 1;
nodes = (
(315,520,o),
(333,538,o),
(333,560,cs),
(333,582,o),
(315,600,o),
(293,600,cs),
(271,600,o),
(253,582,o),
(253,560,cs),
(253,538,o),
(271,520,o),
(293,520,cs)
);
},
{
closed = 1;
nodes = (
(82,60,l),
(82,0,l),
(518,0,l),
(518,60,l)
);
}
);
width = 600;
},
{
anchors = (
{
name = bottom;
pos = (300,0);
}
);
layerId = "BDCBA76E-5474-4BD3-A1CC-9641C626CFE7";
shapes = (
{
closed = 1;
nodes = (
(345,45,l),
(345,452,l),
(115,452,l),
(115,362,l),
(300,362,l),
(255,409,l),
(255,45,l)
);
},
{
closed = 1;
nodes = (
(322,499,o),
(347,525,o),
(347,555,cs),
(347,586,o),
(322,611,o),
(291,611,cs),
(261,611,o),
(235,586,o),
(235,555,cs),
(235,525,o),
(261,499,o),
(291,499,cs)
);
},
{
closed = 1;
nodes = (
(82,90,l),
(82,0,l),
(518,0,l),
(518,90,l)
);
}
);
width = 600;
},
{
anchors = (
{
name = bottom;
pos = (268,0);
}
);
layerId = "D8CC3DFA-F3EA-4C7D-84FB-05FCEA5C6558";
shapes = (
{
closed = 1;
nodes = (
(315,15,l),
(315,452,l),
(115,452,l),
(115,422,l),
(302,422,l),
(285,440,l),
(285,15,l)
);
},
{
closed = 1;
nodes = (
(311,513,o),
(324,525,o),
(324,541,cs),
(324,556,o),
(311,568,o),
(296,568,cs),
(281,568,o),
(269,556,o),
(269,541,cs),
(269,525,o),
(281,513,o),
(296,513,cs)
);
},
{
closed = 1;
nodes = (
(82,30,l),
(82,0,l),
(518,0,l),
(518,30,l)
);
}
);
width = 600;
}
);
unicode = 105;
},
{
glyphname = idotless;
lastChange = "2025-08-03 16:56:50 +0000";
layers = (
{
anchors = (
{
name = bottom;
pos = (300,0);
},
{
name = ogonek;
pos = (518,0);
},
{
name = top;
pos = (300,452);
}
);
layerId = m01;
shapes = (
{
closed = 1;
nodes = (
(330,30,l),
(330,452,l),
(115,452,l),
(115,392,l),
(285,392,l),
(270,427,l),
(270,30,l)
);
},
{
closed = 1;
nodes = (
(82,60,l),
(82,0,l),
(518,0,l),
(518,60,l)
);
}
);
width = 600;
},
{
anchors = (
{
name = bottom;
pos = (300,0);
},
{
name = ogonek;
pos = (518,0);
},
{
name = top;
pos = (300,452);
}
);
layerId = "BDCBA76E-5474-4BD3-A1CC-9641C626CFE7";
shapes = (
{
closed = 1;
nodes = (
(345,34,l),
(345,452,l),
(115,452,l),
(115,362,l),
(285,362,l),
(255,427,l),
(255,34,l)
);
},
{
closed = 1;
nodes = (
(82,90,l),
(82,0,l),
(518,0,l),
(518,90,l)
);
}
);
width = 600;
},
{
anchors = (
{
name = bottom;
pos = (300,0);
},
{
name = ogonek;
pos = (518,0);
},
{
name = top;
pos = (300,452);
}
);
layerId = "D8CC3DFA-F3EA-4C7D-84FB-05FCEA5C6558";
shapes = (
{
closed = 1;
nodes = (
(315,13,l),
(315,452,l),
(115,452,l),
(115,422,l),
(303,422,l),
(285,438,l),
(285,13,l)
);
},
{
closed = 1;
nodes = (
(82,30,l),
(82,0,l),
(518,0,l),
(518,30,l)
);
}
);
width = 600;
}
);
unicode = 305;
},
{
glyphname = iacute;
lastChange = "2025-08-03 16:57:20 +0000";
layers = (
{
layerId = m01;
shapes = (
{
pos = (44,-25);
ref = acutecomb;
},
{
closed = 1;
nodes = (
(330,30,l),
(330,452,l),
(115,452,l),
(115,392,l),
(285,392,l),
(270,427,l),
(270,30,l)
);
},
{
closed = 1;
nodes = (
(82,60,l),
(82,0,l),
(518,0,l),
(518,60,l)
);
}
);
width = 600;
},
{
layerId = "BDCBA76E-5474-4BD3-A1CC-9641C626CFE7";
shapes = (
{
pos = (44,-25);
ref = acutecomb;
},
{
closed = 1;
nodes = (
(345,45,l),
(345,452,l),
(115,452,l),
(115,362,l),
(285,362,l),
(255,427,l),
(255,45,l)
);
},
{
closed = 1;
nodes = (
(82,90,l),
(82,0,l),
(518,0,l),
(518,90,l)
);
}
);
width = 600;
},
{
layerId = "D8CC3DFA-F3EA-4C7D-84FB-05FCEA5C6558";
shapes = (
{
pos = (44,-25);
ref = acutecomb;
},
{
closed = 1;
nodes = (
(315,15,l),
(315,452,l),
(115,452,l),
(115,422,l),
(304,422,l),
(285,441,l),
(285,15,l)
);
},
{
closed = 1;
nodes = (
(82,30,l),
(82,0,l),
(518,0,l),
(518,30,l)
);
}
);
width = 600;
}
);
unicode = 237;
},
{
glyphname = icircumflex;
lastChange = "2025-08-03 16:58:16 +0000";
layers = (
{
layerId = m01;
shapes = (
{
pos = (0,12);
ref = circumflexcomb;
},
{
closed = 1;
nodes = (
(330,30,l),
(330,452,l),
(115,452,l),
(115,392,l),
(285,392,l),
(270,427,l),
(270,30,l)
);
},
{
closed = 1;
nodes = (
(82,60,l),
(82,0,l),
(518,0,l),
(518,60,l)
);
}
);
width = 600;
},
{
layerId = "BDCBA76E-5474-4BD3-A1CC-9641C626CFE7";
shapes = (
{
pos = (0,12);
ref = circumflexcomb;
},
{
closed = 1;
nodes = (
(345,45,l),
(345,452,l),
(115,452,l),
(115,362,l),
(285,362,l),
(255,427,l),
(255,45,l)
);
},
{
closed = 1;
nodes = (
(82,90,l),
(82,0,l),
(518,0,l),
(518,90,l)
);
}
);
width = 600;
},
{
layerId = "D8CC3DFA-F3EA-4C7D-84FB-05FCEA5C6558";
shapes = (
{
pos = (0,12);
ref = circumflexcomb;
},
{
closed = 1;
nodes = (
(315,15,l),
(315,452,l),
(115,452,l),
(115,422,l),
(304,422,l),
(285,438,l),
(285,15,l)
);
},
{
closed = 1;
nodes = (
(82,30,l),
(82,0,l),
(518,0,l),
(518,30,l)
);
}
);
width = 600;
}
);
unicode = 238;
},
{
glyphname = idieresis;
lastChange = "2025-08-03 16:58:49 +0000";
layers = (
{
layerId = m01;
shapes = (
{
pos = (0,-6);
ref = dieresiscomb;
},
{
closed = 1;
nodes = (
(330,30,l),
(330,452,l),
(115,452,l),
(115,392,l),
(285,392,l),
(270,427,l),
(270,30,l)
);
},
{
closed = 1;
nodes = (
(82,60,l),
(82,0,l),
(518,0,l),
(518,60,l)
);
}
);
width = 600;
},
{
layerId = "BDCBA76E-5474-4BD3-A1CC-9641C626CFE7";
shapes = (
{
pos = (0,-6);
ref = dieresiscomb;
},
{
closed = 1;
nodes = (
(345,45,l),
(345,452,l),
(115,452,l),
(115,362,l),
(285,362,l),
(255,427,l),
(255,45,l)
);
},
{
closed = 1;
nodes = (
(82,90,l),
(82,0,l),
(518,0,l),
(518,90,l)
);
}
);
width = 600;
},
{
layerId = "D8CC3DFA-F3EA-4C7D-84FB-05FCEA5C6558";
shapes = (
{
pos = (0,-6);
ref = dieresiscomb;
},
{
closed = 1;
nodes = (
(315,15,l),
(315,452,l),
(115,452,l),
(115,422,l),
(300,422,l),
(285,438,l),
(285,15,l)
);
},
{
closed = 1;
nodes = (
(82,30,l),
(82,0,l),
(518,0,l),
(518,30,l)
);
}
);
width = 600;
}
);
unicode = 239;
},
{
glyphname = igrave;
lastChange = "2025-08-03 16:59:25 +0000";
layers = (
{
layerId = m01;
shapes = (
{
closed = 1;
nodes = (
(330,30,l),
(330,452,l),
(115,452,l),
(115,392,l),
(285,392,l),
(270,427,l),
(270,30,l)
);
},
{
closed = 1;
nodes = (
(518,0,l),
(518,60,l),
(82,60,l),
(82,0,l)
);
},
{
pos = (-50,1);
ref = gravecomb;
}
);
width = 600;
},
{
layerId = "BDCBA76E-5474-4BD3-A1CC-9641C626CFE7";
shapes = (
{
closed = 1;
nodes = (
(345,45,l),
(345,452,l),
(115,452,l),
(115,362,l),
(285,362,l),
(255,427,l),
(255,45,l)
);
},
{
closed = 1;
nodes = (
(518,0,l),
(518,90,l),
(82,90,l),
(82,0,l)
);
},
{
pos = (-50,1);
ref = gravecomb;
}
);
width = 600;
},
{
layerId = "D8CC3DFA-F3EA-4C7D-84FB-05FCEA5C6558";
shapes = (
{
closed = 1;
nodes = (
(315,15,l),
(315,452,l),
(115,452,l),
(115,422,l),
(305,422,l),
(285,437,l),
(285,15,l)
);
},
{
closed = 1;
nodes = (
(518,0,l),
(518,30,l),
(82,30,l),
(82,0,l)
);
},
{
pos = (-50,1);
ref = gravecomb;
}
);
width = 600;
}
);
unicode = 236;
},
{
glyphname = imacron;
lastChange = "2025-08-03 16:59:56 +0000";
layers = (
{
layerId = m01;
shapes = (
{
closed = 1;
nodes = (
(330,25,l),
(330,452,l),
(115,452,l),
(115,392,l),
(285,392,l),
(270,427,l),
(270,25,l)
);
},
{
closed = 1;
nodes = (
(518,0,l),
(518,60,l),
(82,60,l),
(82,0,l)
);
},
{
pos = (0,-51);
ref = macroncomb;
}
);
width = 600;
},
{
layerId = "BDCBA76E-5474-4BD3-A1CC-9641C626CFE7";
shapes = (
{
closed = 1;
nodes = (
(345,35,l),
(345,452,l),
(115,452,l),
(115,362,l),
(285,362,l),
(255,427,l),
(255,35,l)
);
},
{
closed = 1;
nodes = (
(518,0,l),
(518,90,l),
(82,90,l),
(82,0,l)
);
},
{
pos = (0,-51);
ref = macroncomb;
}
);
width = 600;
},
{
layerId = "D8CC3DFA-F3EA-4C7D-84FB-05FCEA5C6558";
shapes = (
{
closed = 1;
nodes = (
(315,15,l),
(315,452,l),
(115,452,l),
(115,422,l),
(300,422,l),
(285,441,l),
(285,15,l)
);
},
{
closed = 1;
nodes = (
(518,0,l),
(518,30,l),
(82,30,l),
(82,0,l)
);
},
{
pos = (0,-51);
ref = macroncomb;
}
);
width = 600;
}
);
unicode = 299;
},
